<svg width="331" height="339" viewBox="0 0 331 339" fill="none" xmlns="http://www.w3.org/2000/svg">
<g filter="url(#filter0_d_31_1800)">
<path d="M311.908 330.859H28.662C28.662 330.859 1.43328 329.135 4.197 280.621C4.197 280.621 19.1933 123.538 122.148 96.9759C122.148 96.9759 157.259 87.7232 180.138 133.951C180.138 133.951 202.632 174.374 238.513 159.95C238.513 159.95 304.385 130.503 325.702 267.358C325.726 267.322 333.224 314.113 311.908 330.859Z" fill="#E6F0F5"/>
<path d="M85.8109 303.769C85.7629 304.684 85.6908 305.599 85.5706 306.549C85.5706 306.549 84.5853 320.516 81.7014 327.411H67.6424L55.0495 304.297C55.0495 304.297 52.3579 298.95 51.8773 292.793C51.7571 291.245 51.7812 289.662 51.9975 288.079C51.9975 288.079 52.6944 280.374 47.4073 273.549C42.8171 267.603 38.8037 252.898 51.9975 238.368C55.2659 234.744 65.0469 228.13 68.3634 242.906C70.0457 250.33 70.0698 251.385 69.1565 267.322C68.9162 271.544 71.3675 279.67 76.6546 281.359C81.1727 282.872 86.4838 291.175 85.8109 303.769Z" fill="url(#paint0_linear_31_1800)"/>
<path d="M73.843 328.22C60.2166 302.151 55.3139 248.782 55.2659 248.254L55.9868 248.113C56.0349 248.641 60.9135 301.729 74.4438 327.552L73.843 328.22Z" fill="white"/>
<path d="M71.776 327.447H51.1322C45.1962 324.738 45.6769 318.968 45.4606 315.485C45.052 308.59 39.4525 308.906 37.0733 308.238C28.8062 305.881 29.9837 294.025 32.1226 290.366C40.1975 276.54 49.6422 285.511 51.5888 292.055C51.685 292.336 51.7571 292.618 51.8532 292.864C54.3285 300.252 58.0776 299.302 58.0776 299.302C69.4929 293.181 71.5117 321.959 71.776 327.447Z" fill="url(#paint1_linear_31_1800)"/>
<path d="M119.528 292.02C117.317 294.518 111.886 298.177 112.655 304.861C112.655 304.861 114.049 320.27 102.417 327.447H79.7788L80.596 324.985C80.596 324.985 81.8456 313.093 85.7869 303.806C88.0459 298.528 91.1702 294.06 95.472 293.146C97.2744 292.759 99.6776 293.146 100.807 285.898C100.807 285.898 101.096 264.719 116.452 271.369C119.937 272.846 130.007 280.234 119.528 292.02Z" fill="url(#paint2_linear_31_1800)"/>
<path d="M66.2486 327.728C57.7652 308.66 40.1735 295.96 40.0052 295.854L40.3177 294.904C40.486 295.045 58.2459 307.851 66.8494 327.165L66.2486 327.728Z" fill="white"/>
<path d="M91.2183 327.517L90.5695 327.06C91.0982 325.476 103.739 288.149 115.924 279.812L116.236 280.761C104.292 288.959 91.3625 327.13 91.2183 327.517Z" fill="white"/>
<path d="M282.396 318.194C282.227 318.862 282.059 319.496 281.843 320.164C281.843 320.164 280.353 325.899 278.31 330.507H266.27L265.886 330.367L258.243 312.495C258.243 312.495 256.561 309.75 257.21 305.177C257.21 305.177 257.618 303.031 259.661 297.05C260.574 294.341 261.199 291.597 258.243 285.089C258.027 284.596 257.811 284.068 257.618 283.47C255.6 277.384 255.672 266.865 266.294 260.532C269.178 258.808 277.229 256.733 277.709 268.554C277.926 273.866 277.854 275.062 275.835 283.47C275.595 284.455 275.33 285.546 275.042 286.742C274.297 289.768 275.018 296.452 278.671 299.196C281.795 301.518 284.583 309.152 282.396 318.194Z" fill="url(#paint3_linear_31_1800)"/>
<path d="M270.259 330.648C263.723 307.569 267.255 269.081 267.279 268.694L268 268.835C267.952 269.222 264.468 307.429 270.932 330.226L270.259 330.648Z" fill="white"/>
<path d="M267.64 330.648H251.971C247.453 328.608 247.837 324.21 247.669 321.572C247.357 316.33 243.103 316.576 241.3 316.048C235.028 314.254 235.509 305.775 237.527 302.468C243.824 292.16 250.841 298.774 252.307 303.735C252.379 303.946 252.427 304.157 252.5 304.368C254.374 309.962 257.234 309.258 257.234 309.258C265.886 304.65 267.424 326.497 267.64 330.648Z" fill="url(#paint4_linear_31_1800)"/>
<path d="M303.905 303.735C302.222 305.635 298.113 308.414 298.69 313.48C298.69 313.48 299.747 325.195 290.903 330.648H273.72L274.345 328.784C274.345 328.784 275.282 319.742 278.286 312.671C279.992 308.66 282.372 305.283 285.64 304.579C287.01 304.298 288.836 304.579 289.701 299.056C289.701 299.056 289.918 282.978 301.598 288.009C304.217 289.17 311.883 294.799 303.905 303.735Z" fill="url(#paint5_linear_31_1800)"/>
<path d="M263.338 330.929C256.897 316.47 243.559 306.83 243.439 306.76L243.752 305.81C243.896 305.916 257.402 315.661 263.939 330.366L263.338 330.929Z" fill="white"/>
<path d="M282.492 330.789L281.843 330.331C282.251 329.135 291.864 300.744 301.141 294.376L301.453 295.326C292.393 301.518 282.588 330.472 282.492 330.789Z" fill="white"/>
<path d="M101.336 324.527C101.336 324.527 137.937 324.034 148.68 312.214C162.426 297.086 180.739 261.307 216.451 295.327C221.93 300.533 229.188 312.214 240.243 311.158C251.298 310.103 263.795 307.992 273.408 317.843C283.021 327.693 283.261 325.231 295.758 324.527C308.255 323.823 311.138 330.86 311.138 330.86H90.9059L101.336 324.527Z" fill="url(#paint6_linear_31_1800)"/>
<path d="M30.6807 330.859H202.272C202.272 330.859 176.317 329.452 160.936 320.305C160.936 320.305 115.395 288.114 83.0712 315.731C83.0712 315.731 68.772 325.758 58.9187 323.647C58.9187 323.647 39.9331 322.24 30.6807 330.859Z" fill="url(#paint7_linear_31_1800)"/>
<path d="M133.419 158.402C133.419 159.07 133.419 159.739 133.395 160.372C132.698 180.566 121.283 196.644 107.296 196.644C106.359 196.644 105.445 196.573 104.532 196.433C103.643 196.292 102.778 196.116 101.937 195.835C90.8579 192.457 82.3504 178.772 81.269 161.955C81.1969 160.794 81.1488 159.598 81.1488 158.367C81.1488 155.834 81.317 153.336 81.6295 150.944C82.9272 141.339 86.6522 133.036 91.8673 127.478C96.1931 122.834 101.528 120.125 107.272 120.125C121.715 120.125 133.419 137.258 133.419 158.402Z" fill="url(#paint8_linear_31_1800)"/>
<path d="M121.235 158.227C121.595 157.488 121.908 156.819 122.124 156.186L121.235 158.227Z" fill="#23887C"/>
<path d="M128.324 167.584C119.985 180.601 112.751 184.26 106.887 183.591L110.757 178.701L117.702 166.317L121.235 158.226C118.327 164.031 111.069 173.072 108.377 176.168C106.671 178.138 104.676 180.812 103.355 182.677C98.356 180.53 94.679 175.5 92.5401 171.841C91.2183 169.554 90.1369 166.986 89.3439 164.242C86.8926 155.693 86.3879 148.727 86.8445 143.133L93.6216 132.368C91.3385 132.966 89.1276 135.393 87.7818 137.152C88.8632 132.649 90.5455 129.483 91.8673 127.513C86.6763 133.071 82.9272 141.409 81.6295 150.978C81.317 153.371 81.1488 155.869 81.1488 158.402C81.1488 159.598 81.1969 160.794 81.269 161.99C82.3264 178.807 90.8338 192.492 101.937 195.869C102.778 196.116 103.667 196.327 104.532 196.468C105.445 196.608 106.359 196.679 107.296 196.679C121.283 196.679 132.698 180.601 133.395 160.407C131.929 162.201 130.247 164.594 128.324 167.584Z" fill="#23887C"/>
<path d="M104.532 196.433C104.436 189.396 109.074 183.556 109.122 183.486C118.495 171.665 123.061 160.935 123.253 160.513C125.392 155.587 126.017 150.275 125.152 144.752C124.359 139.756 122.316 135.218 119.384 131.91C111.381 122.904 103.883 125.613 103.186 125.895C94.7751 128.744 87.8057 136.273 82.9751 147.636C82.4945 148.762 82.0619 149.853 81.6774 150.943C81.365 153.336 81.1968 155.834 81.1968 158.367C81.1968 159.563 81.2448 160.759 81.3169 161.955C81.9418 159.105 83.1433 154.532 85.2101 149.642C89.7282 138.982 96.0006 132.227 103.835 129.589L103.907 129.553C104.172 129.448 110.684 126.88 117.822 134.901C120.273 137.68 121.98 141.445 122.653 145.596C123.374 150.099 122.845 154.426 121.091 158.472C121.042 158.578 116.524 169.132 107.464 180.566C107.224 180.847 102.105 187.321 101.961 195.834L104.532 196.433Z" fill="#FFC6B3"/>
<path d="M215.85 94.4779L202.993 113.3L180.931 109.958L196.864 84.0643L200.614 77.978L215.85 94.4779Z" fill="url(#paint9_linear_31_1800)"/>
<path d="M252.163 11.8026C252.163 11.8026 262.713 9.69171 265.285 18.4166C265.285 18.4166 266.102 20.8089 266.246 27.5637C266.246 27.5637 265.165 47.2299 277.782 48.426C277.782 48.426 259.277 62.217 256.946 41.4602C256.176 34.7054 260.887 21.1959 256.2 17.3964C255.455 16.7983 252.572 17.2205 252.572 17.2205L252.163 11.8026Z" fill="url(#paint10_linear_31_1800)"/>
<path d="M251.394 10.5361H254.542C254.975 10.5361 255.335 11.0287 255.359 11.6971L255.503 16.9039C255.528 17.5723 255.143 18.1704 254.686 18.1704H251.586L251.394 10.5361Z" fill="#2CC9B8"/>
<path d="M232.24 6.31434C232.24 6.31434 237.672 -3.21972 245.53 1.14273C253.389 5.50517 254.494 14.8281 254.086 18.2055C254.086 18.2055 254.566 32.7001 249.856 36.957L241.084 13.8079L232.24 6.31434Z" fill="url(#paint11_linear_31_1800)"/>
<path d="M236.518 62.217L236.927 46.7374C236.927 46.7374 224.358 46.7725 232.24 9.90283L249.471 17.8537L248.799 20.8441C248.799 20.8441 254.086 21.0552 249.471 30.9763L251.37 61.7597L236.518 62.217Z" fill="url(#paint12_linear_31_1800)"/>
<path d="M228.035 18.206L231.687 5.75189C231.976 4.73164 232.793 4.27429 233.49 4.73164L253.893 18.4874C254.158 18.6633 254.302 19.0151 254.302 19.4373L254.23 23.7294L245.674 21.1612L228.035 18.206Z" fill="url(#paint13_linear_31_1800)"/>
<path d="M223.949 21.6887C228.996 21.3369 244.809 20.6332 254.23 23.7995C254.23 23.7995 228.275 8.74205 223.084 19.4019C222.603 20.3518 223.108 21.7238 223.949 21.6887Z" fill="#23887C"/>
<path d="M178.864 158.05C178.864 158.05 184.848 172.509 199.772 176.203C199.772 176.203 192.659 157.03 178.864 158.05Z" fill="#0A0E1E"/>
<path d="M218.71 170.962L202.032 188.763L173.121 219.582L131.545 284.456L111.117 282.099L153.246 199.212L179.297 162.342L188.285 149.642L218.71 170.962Z" fill="url(#paint14_linear_31_1800)"/>
<path opacity="0.2" d="M218.71 170.962L202.032 188.728L200.926 184.577C196.384 168.57 185.689 163.75 179.321 162.307L188.309 149.607L218.71 170.962Z" fill="black"/>
<path d="M200.806 122.552L178.864 158.015C178.864 158.015 186.987 158.402 192.755 163.01C197.922 167.127 199.869 176.696 199.869 176.696L220.536 140.706L200.806 122.552Z" fill="url(#paint15_linear_31_1800)"/>
<path d="M228.491 197.699C228.491 197.699 211.26 208.781 197.946 174.162L201.479 169.448L228.058 194.673L228.491 197.699Z" fill="#0A0E1E"/>
<path d="M216.427 209.977L225.847 296.734L207.246 301.096L190.976 205.298C190.087 199.493 190.928 193.407 193.284 188.552L197.946 178.983L206.573 161.216L229.308 184.084L222.122 198.543L220.945 200.936L216.427 209.977Z" fill="url(#paint16_linear_31_1800)"/>
<path opacity="0.2" d="M229.284 184.084L222.098 198.544L220.921 200.936C217.22 194.357 209.554 185.14 197.898 179.018L206.526 161.252L229.284 184.084Z" fill="black"/>
<path d="M206.622 299.407L209.073 314.324L195.374 331L230.774 321.606L226.088 295.186L206.622 299.407Z" fill="url(#paint17_linear_31_1800)"/>
<path d="M214.697 135.851C214.697 135.851 210.803 146.933 207.823 154.321C205.708 159.563 197.922 174.163 197.922 174.163C197.922 174.163 205.973 176.168 214.456 181.551C222.844 186.863 228.467 197.699 228.467 197.699C228.467 197.699 237.191 181.551 239.714 174.515C241.228 170.293 243.151 165.086 244.304 156.361L214.697 135.851Z" fill="url(#paint18_linear_31_1800)"/>
<path d="M111.646 280.445L103.691 298.246L88.5746 314.5L124.118 306.127L133.515 282.169L111.646 280.445Z" fill="url(#paint19_linear_31_1800)"/>
<path opacity="0.2" d="M215.85 94.4779L210.755 101.936L196.865 84.0643L200.614 77.978L215.85 94.4779Z" fill="black"/>
<path d="M250.985 51.7681C250.985 51.7681 242.718 63.8703 236.278 51.7681L220.152 56.2009C215.682 57.5026 212.438 60.493 209.025 64.961L198.955 80.511L213.879 94.3019L195.495 130.292C195.495 130.292 204.098 143.591 210.779 145.596C217.869 147.742 244.425 158.542 244.425 158.542L257.979 114.496L277.277 110.45V85.2252L277.253 82.6922C277.205 74.4246 273.984 66.9311 268.938 63.2371L250.985 51.7681Z" fill="url(#paint20_linear_31_1800)"/>
<path d="M246.852 114.109L245.482 111.857C245.578 111.716 255.768 98.4181 260.022 89.271L261.728 90.9597C257.33 100.423 247.284 113.546 246.852 114.109Z" fill="#0A0E1E"/>
<path d="M247.111 110.173L225.526 132.021L228.396 138.098L249.981 116.25L247.111 110.173Z" fill="#161C3E"/>
<path d="M248.053 118.049L246.587 114.637C247.116 114.144 259.661 102.71 266.847 98.981L267.76 102.781C260.863 106.369 248.174 117.944 248.053 118.049Z" fill="#161C3E"/>
<path d="M178.528 123.573C180.931 135.851 220.32 120.195 220.32 120.195C220.32 120.195 221.93 128.252 228.587 126.915L231.808 125.578L233.418 128.252V132.966C233.418 132.966 235.725 134.303 237.311 130.609C237.311 130.609 240.075 132.297 240.988 127.583C240.988 127.583 243.752 129.588 244.425 124.558C244.425 124.558 247.405 125.578 246.948 121.532L242.814 111.717C242.382 110.696 241.637 110.098 240.82 110.098H230.87L209.914 103.273C209.938 103.273 172.736 94.1612 178.528 123.573Z" fill="url(#paint21_linear_31_1800)"/>
<path d="M276.989 117.487C276.748 129.519 275.763 150.486 272.014 152.14C261.007 157.03 222.411 153.16 222.411 153.16C222.411 153.16 217.581 153.829 213.904 152.808L209.073 148.763C209.073 148.763 206.67 146.23 208.376 144.717C208.376 144.717 205.396 141.691 207.92 139.686C207.92 139.686 206.093 136.66 208.616 134.972C208.616 134.972 208.592 134.866 208.568 134.725C208.304 132.368 210.275 131.629 211.693 132.79L217.1 136.308L220.2 137.153C220.2 137.153 215.153 134.479 216.066 128.745L223.42 131.77L227.217 136.66L254.999 130.961L256.225 116.255L256.609 111.822L277.061 109.149C277.061 109.114 277.085 112.561 276.989 117.487Z" fill="url(#paint22_linear_31_1800)"/>
<path d="M218.494 142.359L213.399 140.002L213.375 139.967L208.304 135.253L208.688 134.408L213.687 139.087L218.71 141.409L218.494 142.359Z" fill="#161C3E"/>
<path d="M217.724 146.37L211.909 143.872L207.751 140.143L208.111 139.263L212.197 142.957L217.917 145.385L217.724 146.37Z" fill="#161C3E"/>
<path d="M214 149.255L210.515 147.214L208.208 145.174L208.568 144.33L210.827 146.3L214.264 148.305L214 149.255Z" fill="#161C3E"/>
<path d="M241.652 115.664L241.033 116.134L244.016 124.53L244.634 124.06L241.652 115.664Z" fill="#161C3E"/>
<path d="M239.267 118.358L238.599 118.648L240.435 127.722L241.103 127.432L239.267 118.358Z" fill="#161C3E"/>
<path d="M236.149 121.378L235.471 121.615L236.966 130.786L237.644 130.549L236.149 121.378Z" fill="#161C3E"/>
<path d="M273.424 66.8291L273.052 67.2168L284.33 90.3987L284.702 90.0109L273.424 66.8291Z" fill="#0A0E1E"/>
<path d="M272.264 69.5131L271.892 69.9009L283.171 93.0827L283.543 92.695L272.264 69.5131Z" fill="#0A0E1E"/>
<path d="M270.779 71.3745L270.407 71.7622L281.685 94.944L282.057 94.5563L270.779 71.3745Z" fill="#0A0E1E"/>
<path d="M269.293 73.4143L268.922 73.8037L279.28 94.9667L279.651 94.5773L269.293 73.4143Z" fill="#0A0E1E"/>
<path d="M266.76 73.5537L266.388 73.9414L277.666 97.1232L278.038 96.7355L266.76 73.5537Z" fill="#0A0E1E"/>
<path d="M265.389 75.9062L265.017 76.2939L276.295 99.4758L276.667 99.088L265.389 75.9062Z" fill="#0A0E1E"/>
<path d="M264.573 78.8068L264.201 79.1953L273.865 99.0099L274.237 98.6214L264.573 78.8068Z" fill="#0A0E1E"/>
<path d="M263.328 80.9709L262.952 81.3491L271.926 100.494L272.303 100.115L263.328 80.9709Z" fill="#0A0E1E"/>
<path d="M262.045 83.1884L261.671 83.5718L270.19 101.383L270.564 100.999L262.045 83.1884Z" fill="#0A0E1E"/>
<path d="M261.048 86.2083L260.677 86.5977L267.577 100.697L267.949 100.307L261.048 86.2083Z" fill="#0A0E1E"/>
<path d="M260.593 90.2437L260.221 90.6313L265.279 101.036L265.651 100.648L260.593 90.2437Z" fill="#0A0E1E"/>
<path d="M294.78 56.5191L294.408 56.9062L298.32 64.9652L298.692 64.5781L294.78 56.5191Z" fill="#0A0E1E"/>
<path d="M291.569 55.0244L291.198 55.415L297.643 68.5192L298.014 68.1286L291.569 55.0244Z" fill="#0A0E1E"/>
<path d="M289.503 55.539L289.13 55.9238L296.726 71.7153L297.1 71.3304L289.503 55.539Z" fill="#0A0E1E"/>
<path d="M287.023 55.6635L286.652 56.0537L295.393 73.8488L295.764 73.4585L287.023 55.6635Z" fill="#0A0E1E"/>
<path d="M285.353 57.5451L284.98 57.9326L293.951 76.3955L294.323 76.008L285.353 57.5451Z" fill="#0A0E1E"/>
<path d="M283.086 57.9371L282.714 58.3247L292.846 79.162L293.218 78.7744L283.086 57.9371Z" fill="#0A0E1E"/>
<path d="M281.723 59.9683L281.351 60.356L291.483 81.1932L291.855 80.8056L281.723 59.9683Z" fill="#0A0E1E"/>
<path d="M280.289 62.0023L279.916 62.3882L289.808 82.8693L290.181 82.4835L280.289 62.0023Z" fill="#0A0E1E"/>
<path d="M278.84 63.9627L278.469 64.3511L288.705 85.3371L289.077 84.9487L278.84 63.9627Z" fill="#0A0E1E"/>
<path d="M276.516 63.9466L276.144 64.3345L287.422 87.5163L287.794 87.1285L276.516 63.9466Z" fill="#0A0E1E"/>
<path d="M275.03 65.8076L274.658 66.1953L285.937 89.3772L286.309 88.9894L275.03 65.8076Z" fill="#0A0E1E"/>
<path opacity="0.2" d="M276.988 117.487L256.249 116.255L256.633 111.822L277.085 109.149C277.06 109.114 277.085 112.561 276.988 117.487Z" fill="black"/>
<path d="M266.582 102.886C263.722 102.886 261.56 101.584 260.286 99.0865C258.411 95.3925 258.82 89.7635 261.439 83.1847C263.843 77.1336 267.904 70.8362 272.855 65.4535C277.805 60.0708 283.093 56.1657 287.731 54.5473C292.778 52.7531 296.575 53.8085 298.449 57.5025C300.324 61.1966 299.915 66.8255 297.296 73.4044C294.892 79.4555 290.831 85.7529 285.88 91.1356C280.93 96.5183 275.642 100.423 271.004 102.042C269.394 102.605 267.928 102.886 266.582 102.886ZM292.153 57.7136C291.047 57.7136 289.774 57.9599 288.356 58.4524C284.054 59.9652 279.127 63.5889 274.465 68.6901C269.803 73.7562 266.03 79.6314 263.795 85.2252C261.8 90.2209 261.319 94.4074 262.473 96.6942C263.626 98.981 266.51 99.5087 270.355 98.1366C274.657 96.6238 279.584 93.0002 284.246 87.8989C288.908 82.8329 292.681 76.9576 294.916 71.3639C296.911 66.3682 297.392 62.1816 296.238 59.8948C295.493 58.4524 294.075 57.7136 292.153 57.7136Z" fill="#161C3E"/>
</g>
<defs>
<filter id="filter0_d_31_1800" x="0" y="0" width="331" height="339" filterUnits="userSpaceOnUse" color-interpolation-filters="sRGB">
<feFlood flood-opacity="0" result="BackgroundImageFix"/>
<feColorMatrix in="SourceAlpha" type="matrix" values="0 0 0 0 0 0 0 0 0 0 0 0 0 0 0 0 0 0 127 0" result="hardAlpha"/>
<feOffset dy="4"/>
<feGaussianBlur stdDeviation="2"/>
<feComposite in2="hardAlpha" operator="out"/>
<feColorMatrix type="matrix" values="0 0 0 0 0 0 0 0 0 0 0 0 0 0 0 0 0 0 0.25 0"/>
<feBlend mode="normal" in2="BackgroundImageFix" result="effect1_dropShadow_31_1800"/>
<feBlend mode="normal" in="SourceGraphic" in2="effect1_dropShadow_31_1800" result="shape"/>
</filter>
<linearGradient id="paint0_linear_31_1800" x1="76.8995" y1="327.436" x2="34.5719" y2="252.107" gradientUnits="userSpaceOnUse">
<stop stop-color="#90BFA5"/>
<stop offset="1" stop-color="#C4DFCC"/>
</linearGradient>
<linearGradient id="paint1_linear_31_1800" x1="30.5806" y1="305.244" x2="71.7859" y2="305.244" gradientUnits="userSpaceOnUse">
<stop stop-color="#90BFA5"/>
<stop offset="1" stop-color="#C4DFCC"/>
</linearGradient>
<linearGradient id="paint2_linear_31_1800" x1="79.7785" y1="298.738" x2="124.167" y2="298.738" gradientUnits="userSpaceOnUse">
<stop stop-color="#90BFA5"/>
<stop offset="1" stop-color="#C4DFCC"/>
</linearGradient>
<linearGradient id="paint3_linear_31_1800" x1="276.324" y1="331.177" x2="248.557" y2="268.415" gradientUnits="userSpaceOnUse">
<stop stop-color="#90BFA5"/>
<stop offset="1" stop-color="#C4DFCC"/>
</linearGradient>
<linearGradient id="paint4_linear_31_1800" x1="236.158" y1="313.842" x2="267.635" y2="313.842" gradientUnits="userSpaceOnUse">
<stop stop-color="#90BFA5"/>
<stop offset="1" stop-color="#C4DFCC"/>
</linearGradient>
<linearGradient id="paint5_linear_31_1800" x1="292.063" y1="326.389" x2="283.379" y2="290.499" gradientUnits="userSpaceOnUse">
<stop stop-color="#90BFA5"/>
<stop offset="1" stop-color="#C4DFCC"/>
</linearGradient>
<linearGradient id="paint6_linear_31_1800" x1="90.8974" y1="305.985" x2="311.138" y2="305.985" gradientUnits="userSpaceOnUse">
<stop stop-color="#F7A06A"/>
<stop offset="1" stop-color="#FFD18F"/>
</linearGradient>
<linearGradient id="paint7_linear_31_1800" x1="30.6807" y1="317.7" x2="202.272" y2="317.7" gradientUnits="userSpaceOnUse">
<stop stop-color="#F7A06A"/>
<stop offset="1" stop-color="#FFD18F"/>
</linearGradient>
<linearGradient id="paint8_linear_31_1800" x1="81.1488" y1="158.384" x2="133.419" y2="158.384" gradientUnits="userSpaceOnUse">
<stop stop-color="#3BACA0"/>
<stop offset="1" stop-color="#58C6B6"/>
</linearGradient>
<linearGradient id="paint9_linear_31_1800" x1="197.034" y1="104.751" x2="217.198" y2="87.1772" gradientUnits="userSpaceOnUse">
<stop stop-color="#ED6263"/>
<stop offset="1" stop-color="#FFA9A9"/>
</linearGradient>
<linearGradient id="paint10_linear_31_1800" x1="276.119" y1="51.0492" x2="242.91" y2="31.1229" gradientUnits="userSpaceOnUse">
<stop stop-color="#002452"/>
<stop offset="1" stop-color="#001328"/>
</linearGradient>
<linearGradient id="paint11_linear_31_1800" x1="232.24" y1="18.4894" x2="254.152" y2="18.4894" gradientUnits="userSpaceOnUse">
<stop stop-color="#002452"/>
<stop offset="1" stop-color="#001328"/>
</linearGradient>
<linearGradient id="paint12_linear_31_1800" x1="254.674" y1="49.7855" x2="224.566" y2="38.0333" gradientUnits="userSpaceOnUse">
<stop stop-color="#ED6263"/>
<stop offset="1" stop-color="#FFA9A9"/>
</linearGradient>
<linearGradient id="paint13_linear_31_1800" x1="228.035" y1="14.1857" x2="254.298" y2="14.1857" gradientUnits="userSpaceOnUse">
<stop stop-color="#3BACA0"/>
<stop offset="1" stop-color="#58C6B6"/>
</linearGradient>
<linearGradient id="paint14_linear_31_1800" x1="201.316" y1="214.331" x2="155.639" y2="215.728" gradientUnits="userSpaceOnUse">
<stop stop-color="#ED6263"/>
<stop offset="1" stop-color="#FFA9A9"/>
</linearGradient>
<linearGradient id="paint15_linear_31_1800" x1="174.063" y1="162.567" x2="214.133" y2="153.36" gradientUnits="userSpaceOnUse">
<stop stop-color="#002452"/>
<stop offset="1" stop-color="#001328"/>
</linearGradient>
<linearGradient id="paint16_linear_31_1800" x1="224.411" y1="231.724" x2="192.703" y2="231.254" gradientUnits="userSpaceOnUse">
<stop stop-color="#ED6263"/>
<stop offset="1" stop-color="#FFA9A9"/>
</linearGradient>
<linearGradient id="paint17_linear_31_1800" x1="195.371" y1="313.089" x2="230.779" y2="313.089" gradientUnits="userSpaceOnUse">
<stop stop-color="#002452"/>
<stop offset="1" stop-color="#001328"/>
</linearGradient>
<linearGradient id="paint18_linear_31_1800" x1="219.975" y1="137.217" x2="225.122" y2="195.479" gradientUnits="userSpaceOnUse">
<stop stop-color="#404AA9"/>
<stop offset="1" stop-color="#7284D3"/>
</linearGradient>
<linearGradient id="paint19_linear_31_1800" x1="88.582" y1="297.463" x2="133.52" y2="297.463" gradientUnits="userSpaceOnUse">
<stop stop-color="#002452"/>
<stop offset="1" stop-color="#001328"/>
</linearGradient>
<linearGradient id="paint20_linear_31_1800" x1="195.52" y1="105.157" x2="277.292" y2="105.157" gradientUnits="userSpaceOnUse">
<stop stop-color="#3BACA0"/>
<stop offset="1" stop-color="#58C6B6"/>
</linearGradient>
<linearGradient id="paint21_linear_31_1800" x1="178.731" y1="162.09" x2="218.253" y2="137.851" gradientUnits="userSpaceOnUse">
<stop stop-color="#ED6263"/>
<stop offset="1" stop-color="#FFA9A9"/>
</linearGradient>
<linearGradient id="paint22_linear_31_1800" x1="274.887" y1="111.364" x2="218.204" y2="135.359" gradientUnits="userSpaceOnUse">
<stop stop-color="#ED6263"/>
<stop offset="1" stop-color="#FFA9A9"/>
</linearGradient>
</defs>
</svg>
