<svg width="331" height="339" viewBox="0 0 331 339" fill="none" xmlns="http://www.w3.org/2000/svg">
<g filter="url(#filter0_d_31_1725)">
<path d="M311.907 330.999H28.662C28.662 330.999 1.43328 329.246 4.197 279.914C4.197 279.914 19.1932 120.181 122.148 93.1712C122.148 93.1712 157.259 83.7626 180.138 130.77C180.138 130.77 202.632 171.875 238.513 157.207C238.513 157.207 304.385 127.264 325.702 266.427C325.726 266.391 333.224 313.971 311.907 330.999Z" fill="#E6F0F5"/>
<path d="M95.4959 304.742C95.4479 305.6 95.3758 306.495 95.2556 307.425C95.2556 307.425 94.3183 320.876 91.5787 327.53H78.2647L66.3207 305.278C66.3207 305.278 63.7732 300.127 63.3166 294.188C63.1965 292.686 63.2205 291.183 63.4368 289.645C63.4368 289.645 64.0856 282.24 59.0869 275.657C54.737 269.933 50.94 255.767 63.4368 241.743C66.537 238.237 75.7894 231.869 78.9377 246.107C80.5238 253.262 80.5478 254.3 79.7067 269.647C79.4904 273.725 81.7975 281.56 86.7962 283.17C91.1221 284.601 96.1448 292.614 95.4959 304.742Z" fill="url(#paint0_linear_31_1725)"/>
<path d="M84.1528 328.317C71.2234 303.204 66.5852 251.76 66.5371 251.259L67.2581 251.116C67.3061 251.617 71.9203 302.774 84.7296 327.673L84.1528 328.317Z" fill="white"/>
<path d="M82.2301 327.53H62.6678C57.0442 324.918 57.5008 319.373 57.3086 316.01C56.9 309.392 51.6129 309.678 49.3538 308.999C41.5193 306.709 42.6248 295.297 44.6435 291.791C52.2858 278.483 61.2258 287.105 63.0763 293.401C63.1484 293.687 63.2445 293.938 63.3166 294.188C65.6718 301.307 69.2286 300.413 69.2286 300.413C80.0431 294.546 81.9658 322.271 82.2301 327.53Z" fill="url(#paint1_linear_31_1725)"/>
<path d="M127.459 293.401C125.368 295.798 120.226 299.304 120.947 305.779C120.947 305.779 122.268 320.625 111.237 327.53H89.8005L90.5696 325.133C90.5696 325.133 91.7471 313.685 95.4962 304.706C97.6351 299.626 100.591 295.333 104.677 294.438C106.383 294.081 108.642 294.438 109.747 287.427C109.747 287.427 110.012 267.035 124.575 273.439C127.844 274.941 137.409 282.06 127.459 293.401Z" fill="url(#paint2_linear_31_1725)"/>
<path d="M76.9431 327.816C68.8922 309.428 52.2378 297.229 52.0696 297.086L52.382 296.12C52.5502 296.227 69.3729 308.57 77.5439 327.208L76.9431 327.816Z" fill="white"/>
<path d="M100.663 327.637L100.014 327.172C100.519 325.633 112.487 289.68 124.046 281.631L124.359 282.597C113.039 290.503 100.783 327.279 100.663 327.637Z" fill="white"/>
<path d="M285.328 317.477C285.183 318.049 285.039 318.657 284.847 319.265C284.847 319.265 283.525 324.417 281.723 328.567H271.1L270.764 328.424L264.011 312.361C264.011 312.361 262.521 309.893 263.098 305.779C263.098 305.779 263.458 303.847 265.261 298.481C266.078 296.048 266.606 293.579 264.011 287.712C263.819 287.283 263.626 286.782 263.458 286.281C261.68 280.808 261.752 271.364 271.124 265.675C273.672 264.137 280.785 262.277 281.194 272.866C281.386 277.624 281.314 278.697 279.536 286.246C279.319 287.14 279.103 288.106 278.839 289.179C278.19 291.898 278.815 297.908 282.035 300.377C284.775 302.487 287.25 309.32 285.328 317.477Z" fill="url(#paint3_linear_31_1725)"/>
<path d="M274.561 328.638C268.769 307.889 271.893 273.295 271.917 272.938L272.638 273.081C272.614 273.438 269.514 307.746 275.234 328.209L274.561 328.638Z" fill="white"/>
<path d="M272.278 328.638H258.435C254.446 326.814 254.782 322.843 254.638 320.482C254.35 315.795 250.601 315.974 249.015 315.509C243.463 313.899 243.896 306.28 245.674 303.31C251.226 294.045 257.426 299.983 258.748 304.455C258.796 304.634 258.868 304.848 258.916 305.027C260.574 310.072 263.098 309.428 263.098 309.428C270.74 305.278 272.086 324.918 272.278 328.638Z" fill="url(#paint4_linear_31_1725)"/>
<path d="M304.313 304.455C302.823 306.136 299.194 308.641 299.699 313.22C299.699 313.22 300.636 323.737 292.826 328.638H277.637L278.19 326.957C278.19 326.957 279.031 318.836 281.675 312.504C283.189 308.891 285.303 305.85 288.163 305.242C289.365 304.992 290.975 305.242 291.744 300.269C291.744 300.269 291.936 285.816 302.246 290.36C304.601 291.397 311.355 296.406 304.313 304.455Z" fill="url(#paint5_linear_31_1725)"/>
<path d="M268.457 328.924C262.785 315.938 251.009 307.316 250.889 307.209L251.202 306.243C251.322 306.315 263.266 315.079 269.058 328.316L268.457 328.924Z" fill="white"/>
<path d="M285.424 328.782L284.775 328.317C285.135 327.243 293.643 301.7 301.862 295.977L302.174 296.942C294.172 302.523 285.52 328.531 285.424 328.782Z" fill="white"/>
<path d="M101.336 324.56C101.336 324.56 137.937 324.06 148.68 312.039C162.426 296.656 180.739 260.274 216.451 294.868C221.93 300.162 229.188 312.039 240.243 310.966C251.298 309.893 263.795 307.746 273.408 317.763C283.02 327.78 283.261 325.276 295.758 324.56C308.254 323.845 311.138 331 311.138 331H90.9058L101.336 324.56Z" fill="url(#paint6_linear_31_1725)"/>
<path d="M30.6807 331H202.272C202.272 331 176.317 329.569 160.936 320.268C160.936 320.268 115.395 287.534 83.0712 315.617C83.0712 315.617 68.772 325.813 58.9187 323.666C58.9187 323.666 39.9331 322.235 30.6807 331Z" fill="url(#paint7_linear_31_1725)"/>
<path d="M69.541 93.0285C69.4929 95.1749 69.2767 97.3572 68.8921 99.5036C68.4836 101.757 67.8828 103.832 67.1138 105.8C64.302 113.098 59.3032 118.214 53.4393 120.217C53.199 120.289 52.9827 120.36 52.7424 120.432C48.9933 121.541 44.8838 121.362 40.8223 119.68C38.5152 118.714 36.3764 117.355 34.4297 115.638C31.2815 112.847 28.6379 109.198 26.7153 105.049C23.5431 98.1442 22.2453 89.8087 23.5671 81.7237C23.6151 81.4375 23.6632 81.1871 23.7113 80.9009C23.7353 80.8294 23.7353 80.7579 23.7593 80.6863C25.3455 72.4582 29.3589 66.1261 34.5499 62.5487C37.6981 60.3664 41.2549 59.2217 45.004 59.2932C47.239 59.329 49.522 59.794 51.8051 60.7242C55.8425 62.3698 59.3513 65.3033 62.1871 69.0954C62.3794 69.3458 62.5476 69.5605 62.7158 69.8109C67.1378 76.0356 69.7092 84.4426 69.541 93.0285Z" fill="url(#paint8_linear_31_1725)"/>
<path d="M68.4354 93.8156C66.4407 88.3064 64.6623 85.6233 63.6289 84.407C63.2204 82.1174 61.9707 75.4992 60.5287 72.673L62.6676 69.7753C62.4994 69.5248 62.3071 69.2744 62.1389 69.0598L59.9039 72.0648C58.5821 71.0631 54.761 68.3443 51.2282 67.8077C49.3296 64.8384 45.869 62.4773 44.1867 61.4398L44.9317 59.2218C41.2067 59.1503 37.6259 60.3308 34.4777 62.4773L36.1839 64.0156C35.1025 65.4465 33.3241 68.4516 32.4108 73.3527C30.0076 75.3561 26.9555 80.2929 26.2586 81.4735L23.6871 80.6149C23.6631 80.6864 23.6631 80.758 23.639 80.8295C23.591 81.1157 23.5429 81.3662 23.4949 81.6523L26.1624 82.5467C26.6431 87.8413 27.9649 92.2774 28.5657 94.1019C28.2773 96.0337 27.6284 101.149 28.4455 105.263L26.6191 105.013C28.5417 109.199 31.1612 112.848 34.3334 115.602L34.5978 113.348C35.6072 113.778 37.0731 114.279 38.6593 114.279C40.0051 114.279 41.4711 113.921 42.8169 112.883C45.7729 114.923 50.7235 116.318 52.0213 116.64L52.6701 120.324C52.9105 120.253 53.1508 120.181 53.3671 120.11L52.7182 116.425C55.3618 114.207 58.2457 109.735 59.1829 108.161C60.3846 108.161 62.7157 107.553 66.4407 104.154L67.0415 105.729C67.7865 103.797 68.3873 101.686 68.8199 99.4322C69.2284 97.2857 69.4447 95.1035 69.4687 92.957L68.4354 93.8156ZM55.9626 87.9129L53.7757 99.6111C49.8824 101.865 45.5325 102.33 44.0906 102.437L36.9289 93.1717C37.3375 90.1666 38.8275 82.7971 39.2841 80.6865L48.7529 77.9318C50.1467 79.6847 54.4726 85.1225 55.9626 87.9129ZM37.5057 63.944C38.7794 63.3001 41.2548 62.1911 43.3696 62.0838C44.6193 62.7993 48.5847 65.2677 50.6514 68.3801C50.315 70.0972 49.3297 74.891 48.4885 76.9301L38.9476 79.7205C37.3615 78.218 34.3094 74.8194 33.228 73.6031C34.3815 67.271 37.1212 64.3018 37.5057 63.944ZM33.6365 111.703C31.9543 110.021 30.4162 107.696 29.5991 106.372C28.3975 102.759 28.9502 97.25 29.2866 94.8531C30.7526 94.2449 34.6699 93.8514 36.232 93.7083L43.5619 103.189C43.4177 106.444 42.9851 110.093 42.7688 111.81C39.1159 114.815 34.2854 112.096 33.6365 111.703ZM54.4726 99.9331L56.6595 88.2348C57.7891 87.6267 61.0094 85.981 63.2684 85.3013C64.2538 86.5176 66.0321 89.2365 68.0509 94.9246C67.9307 96.4629 67.5462 99.7899 66.5849 102.831C62.4513 106.766 60.0481 107.159 59.0628 107.088C56.972 104.906 55.1214 101.328 54.4726 99.9331Z" fill="#161C3E"/>
<path d="M176.773 81.7234C176.773 81.7234 165.502 88.0913 154.928 69.4886L160.215 65.9111C160.215 65.9111 175.283 69.2381 176.773 81.7234Z" fill="#0A0E1E"/>
<path d="M181.244 29.6714L197.754 48.2025L185.69 71.6348L166.007 48.2025L181.244 29.6714Z" fill="#ED6263"/>
<path d="M249.567 110.7C249.567 110.7 219.575 137.817 188.693 104.368C188.693 104.368 215.73 89.1639 241.925 98.1075C241.925 98.1075 247.837 102.186 249.567 110.7Z" fill="#0A0E1E"/>
<path d="M202.752 197.203C202.752 197.203 222.459 229.758 236.878 216.163L237.599 188.975L204.675 184.324L202.752 197.203Z" fill="#0A0E1E"/>
<path d="M185.089 105.084C185.089 105.084 173.914 152.843 199.268 163.754L207.679 162.681L205.757 108.304L185.089 105.084Z" fill="#0A0E1E"/>
<path d="M295.71 251.33L293.547 282.454L215.682 272.974C207.295 271.936 201.046 261.025 201.695 248.54L204.218 200.96L204.867 188.868L234.812 201.21L232.649 220.314L231.351 231.762L295.71 251.33Z" fill="url(#paint9_linear_31_1725)"/>
<path opacity="0.2" d="M234.812 201.21L232.649 220.314C223.853 205.074 208.953 201.675 204.219 200.96L204.867 188.868L234.812 201.21Z" fill="black"/>
<path d="M209.433 161.107L197.802 156.993L196.216 156.456L165.671 145.688L94.5347 170.587L88.094 144.794L157.139 112.132C159.11 111.202 161.177 110.737 163.267 110.737H201.815L209.433 161.107Z" fill="url(#paint10_linear_31_1725)"/>
<path d="M88.7911 143.649L66.9697 150.625L43.8506 147.155L73.1941 180.389L95.7845 170.73L88.7911 143.649Z" fill="url(#paint11_linear_31_1725)"/>
<path d="M289.942 283.742L301.694 285.03L309.144 317.263L317.411 252.332L293.282 249.578L289.942 283.742Z" fill="url(#paint12_linear_31_1725)"/>
<path d="M321.256 83.5125C320.992 84.5141 320.319 85.1581 319.622 85.1581C319.526 85.1581 319.406 85.1581 319.309 85.1223L306.212 81.5807L314.815 88.1631C315.68 88.8071 315.969 90.4169 315.44 91.6333C315.128 92.3488 314.623 92.7423 314.07 92.7423C313.878 92.7423 313.662 92.6707 313.47 92.5634L300.011 84.4068L294.172 85.2654C294.172 85.2654 298.882 94.531 295.493 100.97L287.755 81.6164L284.727 72.6371L258.532 60.8673L247.573 60.2949L242.43 60.0087L237.575 30.7095L240.82 30.9599L254.855 32.1047C257.017 32.2836 259.132 33.1421 261.031 34.6447L290.399 57.4687L299.266 59.1501L307.942 61.9405H315.873C316.594 61.9405 317.195 62.8349 317.195 63.9081C317.195 64.409 317.074 64.8382 316.882 65.196C316.69 65.5537 316.402 65.7684 316.089 65.84L307.966 67.5571L319.502 70.2044C320.367 70.4191 320.968 71.5638 320.896 72.8517C320.872 73.4957 320.655 74.0681 320.367 74.4616C320.078 74.8909 319.67 75.1055 319.237 75.1055L307.582 74.7477L320.127 79.9708C321.112 80.3643 321.665 82.0457 321.256 83.5125Z" fill="url(#paint13_linear_31_1725)"/>
<path d="M237.527 96.3198C237.527 96.3198 243.295 122.364 243.968 129.59L201.815 121.72L192.611 98.0728L237.527 96.3198Z" fill="url(#paint14_linear_31_1725)"/>
<path d="M174.154 79.613L169.155 84.049L168.458 84.6572L137.601 88.4135L154.616 69.7392L155.937 68.2725C155.937 68.2725 160.479 65.1601 167.04 69.7035C170.309 71.993 174.154 79.613 174.154 79.613Z" fill="#ED6263"/>
<path opacity="0.2" d="M174.154 79.6134L169.155 84.0493C167.184 73.4243 159.182 70.5267 154.615 69.7754L155.937 68.3086C155.937 68.3086 160.479 65.1962 167.04 69.7396C170.309 71.9934 174.154 79.6134 174.154 79.6134Z" fill="black"/>
<path opacity="0.2" d="M247.525 60.2236L242.382 59.9732L237.527 30.6382L240.772 30.9244L247.525 60.2236Z" fill="black"/>
<path d="M155.024 69.0594C155.024 69.0594 163.964 61.8687 174.779 80.7219L189.414 105.585C189.414 105.585 245.121 86.3384 249.495 111.023C249.495 111.023 249.279 95.9975 226.713 62.7273H244.088L238.921 29.2783L208.88 28.0619C205.324 27.9188 201.791 29.0994 198.619 31.4605L188.813 38.7227C188.813 38.7227 194.798 60.9744 180.21 58.3986C176.99 57.8262 173.889 56.2164 171.102 53.7479L170.212 52.9609L155.024 69.0594Z" fill="url(#paint15_linear_31_1725)"/>
<path opacity="0.2" d="M209.433 161.107L197.802 156.993L196.216 156.456C200.637 137.424 193.884 119.108 188.862 110.701H201.815L209.433 161.107Z" fill="black"/>
<path d="M173.793 83.477L179.874 79.828C179.874 79.828 180.018 63.5864 186.362 63.7295C186.362 63.7295 189.27 61.6188 190.616 63.1929C190.616 63.1929 191.914 60.9033 194.846 62.8709C194.846 62.8709 198.403 60.5098 199.316 64.6596C199.316 64.6596 199.869 70.5624 195.278 66.9134C195.278 66.9134 194.822 68.3802 193.476 68.5233C192.659 68.5948 191.481 68.0582 191.481 68.0582L191.217 79.7564C191.217 79.7564 194.221 68.8452 200.926 71.3137L196.119 82.368C196.119 82.368 195.326 94.3882 186.675 94.6386L174.418 99.2893C174.418 99.2893 149.569 109.7 141.494 108.877C141.494 108.877 134.717 107.517 134.909 96.9281C134.909 96.9281 135.149 85.5877 144.089 85.0153L173.793 83.477Z" fill="url(#paint16_linear_31_1725)"/>
<path d="M206.357 140.68L202.729 197.096C202.729 197.096 223.18 188.976 236.951 216.307C236.951 216.307 252.5 162.825 246.516 136.781L206.357 140.68Z" fill="url(#paint17_linear_31_1725)"/>
<path d="M199.292 163.862C199.292 163.862 216.787 129.912 185.016 104.905C185.016 104.905 238.681 100.112 244.665 121.004C244.665 121.004 252.908 146.01 243.103 159.283C240.363 163.003 236.734 164.899 233.033 164.792L199.292 163.862Z" fill="url(#paint18_linear_31_1725)"/>
<path d="M180.811 36.7195C180.811 36.7195 177.158 55.8945 167.088 55.5726C161.104 55.3937 158.292 43.4093 158.076 18.8323L182.757 15.0044L185.545 26.166C185.545 26.166 185.954 33.4998 180.811 36.7195Z" fill="url(#paint19_linear_31_1725)"/>
<path d="M182.109 7.02669C180.883 2.69799 172.664 0.0148955 173.625 3.87853C172.111 2.73375 166.055 -1.59494 163.243 0.623069C161.705 1.8394 161.489 3.34192 161.681 4.55825C157.692 2.9484 154.471 0.80195 151.347 6.84782C148.031 13.2872 152.789 19.977 154.88 22.4097C156.081 25.8798 158.316 27.7758 158.316 27.7758V21.3722C158.316 21.3722 163.027 18.1883 169.251 17.8663C175.476 17.5443 176.966 29.0279 176.966 29.0279L178.888 27.7401C179.056 26.5595 179.273 25.5578 179.465 24.7708C179.946 22.9463 181.243 21.8373 182.517 22.2308C185.401 23.1609 185.137 30.2443 185.137 30.2443C190.472 13.3945 182.109 7.02669 182.109 7.02669Z" fill="url(#paint20_linear_31_1725)"/>
<path d="M185.738 71.1343C184.704 71.1343 183.599 70.0969 183.455 69.9538L183.863 69.0595C184.272 69.453 185.473 70.3831 186.17 69.9538C186.483 69.7749 186.675 69.3099 186.771 68.5586L186.867 67.8431L187.3 68.2009C187.949 68.7375 189.799 69.918 190.64 69.2741C190.905 69.0594 191.049 68.6659 191.097 68.022L191.145 67.2349L191.626 67.5927C192.13 67.9862 193.62 68.8448 194.413 68.2724C194.702 68.0577 194.894 67.5927 194.942 66.9488L195.014 66.1617L195.471 66.5553C195.951 66.9845 197.393 67.9147 198.234 67.3423C198.619 67.0918 198.835 66.5552 198.955 65.7324L199.652 65.9471C199.508 67.1276 199.124 67.9146 198.523 68.3082C197.513 68.9879 196.192 68.2724 195.519 67.8074C195.375 68.4513 195.086 68.9521 194.702 69.2383C193.764 69.9538 192.371 69.3099 191.698 68.8806C191.529 69.6318 191.217 70.0253 190.953 70.24C189.871 71.0986 188.141 70.0611 187.324 69.4887C187.155 70.24 186.843 70.7408 186.411 70.9912C186.218 71.0986 185.978 71.1343 185.738 71.1343Z" fill="#161C3E"/>
</g>
<defs>
<filter id="filter0_d_31_1725" x="0" y="0" width="331" height="339" filterUnits="userSpaceOnUse" color-interpolation-filters="sRGB">
<feFlood flood-opacity="0" result="BackgroundImageFix"/>
<feColorMatrix in="SourceAlpha" type="matrix" values="0 0 0 0 0 0 0 0 0 0 0 0 0 0 0 0 0 0 127 0" result="hardAlpha"/>
<feOffset dy="4"/>
<feGaussianBlur stdDeviation="2"/>
<feComposite in2="hardAlpha" operator="out"/>
<feColorMatrix type="matrix" values="0 0 0 0 0 0 0 0 0 0 0 0 0 0 0 0 0 0 0.25 0"/>
<feBlend mode="normal" in2="BackgroundImageFix" result="effect1_dropShadow_31_1725"/>
<feBlend mode="normal" in="SourceGraphic" in2="effect1_dropShadow_31_1725" result="shape"/>
</filter>
<linearGradient id="paint0_linear_31_1725" x1="87.0679" y1="327.544" x2="45.931" y2="255.548" gradientUnits="userSpaceOnUse">
<stop stop-color="#90BFA5"/>
<stop offset="1" stop-color="#C4DFCC"/>
</linearGradient>
<linearGradient id="paint1_linear_31_1725" x1="43.1775" y1="306.16" x2="82.2225" y2="306.16" gradientUnits="userSpaceOnUse">
<stop stop-color="#90BFA5"/>
<stop offset="1" stop-color="#C4DFCC"/>
</linearGradient>
<linearGradient id="paint2_linear_31_1725" x1="89.7963" y1="299.891" x2="131.857" y2="299.891" gradientUnits="userSpaceOnUse">
<stop stop-color="#90BFA5"/>
<stop offset="1" stop-color="#C4DFCC"/>
</linearGradient>
<linearGradient id="paint3_linear_31_1725" x1="279.951" y1="329.114" x2="254.725" y2="273.045" gradientUnits="userSpaceOnUse">
<stop stop-color="#90BFA5"/>
<stop offset="1" stop-color="#C4DFCC"/>
</linearGradient>
<linearGradient id="paint4_linear_31_1725" x1="244.465" y1="313.542" x2="272.274" y2="313.542" gradientUnits="userSpaceOnUse">
<stop stop-color="#90BFA5"/>
<stop offset="1" stop-color="#C4DFCC"/>
</linearGradient>
<linearGradient id="paint5_linear_31_1725" x1="293.854" y1="324.813" x2="285.936" y2="292.632" gradientUnits="userSpaceOnUse">
<stop stop-color="#90BFA5"/>
<stop offset="1" stop-color="#C4DFCC"/>
</linearGradient>
<linearGradient id="paint6_linear_31_1725" x1="90.8973" y1="305.706" x2="311.138" y2="305.706" gradientUnits="userSpaceOnUse">
<stop stop-color="#F7A06A"/>
<stop offset="1" stop-color="#FFD18F"/>
</linearGradient>
<linearGradient id="paint7_linear_31_1725" x1="30.6807" y1="317.618" x2="202.272" y2="317.618" gradientUnits="userSpaceOnUse">
<stop stop-color="#F7A06A"/>
<stop offset="1" stop-color="#FFD18F"/>
</linearGradient>
<linearGradient id="paint8_linear_31_1725" x1="23.0517" y1="90.1619" x2="69.5413" y2="90.1619" gradientUnits="userSpaceOnUse">
<stop stop-color="#E2E5E8"/>
<stop offset="1" stop-color="#C5CBD0"/>
</linearGradient>
<linearGradient id="paint9_linear_31_1725" x1="205.587" y1="210.286" x2="301.629" y2="256.909" gradientUnits="userSpaceOnUse">
<stop stop-color="#ED6263"/>
<stop offset="1" stop-color="#FFA9A9"/>
</linearGradient>
<linearGradient id="paint10_linear_31_1725" x1="213.348" y1="127.989" x2="82.1344" y2="144.76" gradientUnits="userSpaceOnUse">
<stop stop-color="#ED6263"/>
<stop offset="1" stop-color="#FFA9A9"/>
</linearGradient>
<linearGradient id="paint11_linear_31_1725" x1="43.8586" y1="162.025" x2="95.7912" y2="162.025" gradientUnits="userSpaceOnUse">
<stop stop-color="#002452"/>
<stop offset="1" stop-color="#001328"/>
</linearGradient>
<linearGradient id="paint12_linear_31_1725" x1="306.466" y1="247.551" x2="289.811" y2="298.917" gradientUnits="userSpaceOnUse">
<stop stop-color="#002452"/>
<stop offset="1" stop-color="#001328"/>
</linearGradient>
<linearGradient id="paint13_linear_31_1725" x1="237.53" y1="65.7934" x2="321.39" y2="65.7934" gradientUnits="userSpaceOnUse">
<stop stop-color="#ED6263"/>
<stop offset="1" stop-color="#FFA9A9"/>
</linearGradient>
<linearGradient id="paint14_linear_31_1725" x1="218.758" y1="88.7572" x2="217.499" y2="120.073" gradientUnits="userSpaceOnUse">
<stop stop-color="#ED6263"/>
<stop offset="1" stop-color="#FFA9A9"/>
</linearGradient>
<linearGradient id="paint15_linear_31_1725" x1="155.018" y1="69.5027" x2="249.491" y2="69.5027" gradientUnits="userSpaceOnUse">
<stop stop-color="#404AA9"/>
<stop offset="1" stop-color="#7284D3"/>
</linearGradient>
<linearGradient id="paint16_linear_31_1725" x1="134.879" y1="85.522" x2="200.921" y2="85.522" gradientUnits="userSpaceOnUse">
<stop stop-color="#ED6263"/>
<stop offset="1" stop-color="#FFA9A9"/>
</linearGradient>
<linearGradient id="paint17_linear_31_1725" x1="232.813" y1="216.098" x2="209.935" y2="153.77" gradientUnits="userSpaceOnUse">
<stop stop-color="#002452"/>
<stop offset="1" stop-color="#001328"/>
</linearGradient>
<linearGradient id="paint18_linear_31_1725" x1="185.024" y1="134.592" x2="247.911" y2="134.592" gradientUnits="userSpaceOnUse">
<stop stop-color="#3BACA0"/>
<stop offset="1" stop-color="#58C6B6"/>
</linearGradient>
<linearGradient id="paint19_linear_31_1725" x1="174.937" y1="11.4666" x2="155.79" y2="45.2316" gradientUnits="userSpaceOnUse">
<stop stop-color="#ED6263"/>
<stop offset="1" stop-color="#FFA9A9"/>
</linearGradient>
<linearGradient id="paint20_linear_31_1725" x1="150.177" y1="15.1294" x2="186.923" y2="15.1294" gradientUnits="userSpaceOnUse">
<stop stop-color="#002452"/>
<stop offset="1" stop-color="#001328"/>
</linearGradient>
</defs>
</svg>
