<svg width="64" height="64" viewBox="0 0 64 64" fill="none" xmlns="http://www.w3.org/2000/svg">
<rect x="17.395" y="29.4473" width="29.19" height="19.46" rx="3.79095" fill="url(#paint0_linear_2204_9476)"/>
<mask id="mask0_2204_9476" style="mask-type:alpha" maskUnits="userSpaceOnUse" x="17" y="29" width="30" height="20">
<rect x="17.395" y="29.4473" width="29.19" height="19.46" rx="3.79095" fill="url(#paint1_linear_2204_9476)"/>
</mask>
<g mask="url(#mask0_2204_9476)">
<rect x="17.395" y="28.5625" width="29.19" height="9.1403" fill="#D1E7E7"/>
<rect x="19.459" y="33.1016" width="11.4991" height="1.76909" rx="0.686766" fill="#5FABA0"/>
</g>
<rect x="30.0454" y="22.5469" width="29.19" height="19.46" rx="3.79095" fill="#D1E7E7"/>
<path d="M11.132 44.9842L12.4699 45.8991L14.0841 45.7531L13.1691 47.091L13.3151 48.7052L11.9772 47.7903L10.363 47.9362L11.2779 46.5984L11.132 44.9842Z" fill="#C4DFCC"/>
<path d="M58.3179 12.1433L57.9147 14.1115L58.8564 15.8861L56.8883 15.4828L55.1137 16.4246L55.5169 14.4565L54.5752 12.6819L56.5433 13.0851L58.3179 12.1433Z" fill="#C4DFCC"/>
<circle cx="47.9712" cy="58.2749" r="1.72507" fill="#5FABA0"/>
<defs>
<linearGradient id="paint0_linear_2204_9476" x1="16.8756" y1="39.9894" x2="35.823" y2="45.6639" gradientUnits="userSpaceOnUse">
<stop stop-color="#5FABA0"/>
<stop offset="1" stop-color="#5FABA0"/>
</linearGradient>
<linearGradient id="paint1_linear_2204_9476" x1="19.2715" y1="34.2391" x2="39.8765" y2="49.5731" gradientUnits="userSpaceOnUse">
<stop stop-color="#5FABA0"/>
<stop offset="1" stop-color="#8D59FA"/>
</linearGradient>
</defs>
</svg>
