<svg width="64" height="64" viewBox="0 0 64 64" fill="none" xmlns="http://www.w3.org/2000/svg">
<path d="M10.0929 19.6813L11.5979 20.7105L13.4138 20.5464L12.3846 22.0513L12.5487 23.8672L11.0437 22.838L9.22788 23.0021L10.2571 21.4971L10.0929 19.6813Z" fill="#BAD9D5"/>
<path d="M37.1248 51.6454L36.7916 53.2717L37.5699 54.7381L35.9435 54.4049L34.4771 55.1832L34.8103 53.5568L34.0321 52.0904L35.6584 52.4236L37.1248 51.6454Z" fill="#BAD9D5"/>
<circle cx="50.2893" cy="9.42536" r="1.42548" fill="#5FABA1"/>
<path d="M19.9999 46.87C19.2599 46.87 18.5299 46.59 17.9699 46.03C17.4299 45.49 17.1299 44.77 17.1299 44C17.1299 43.23 17.4299 42.51 17.9699 41.97L30.9699 28.97C32.0899 27.85 33.9099 27.85 35.0299 28.97C35.5699 29.51 35.8699 30.23 35.8699 31C35.8699 31.77 35.5699 32.49 35.0299 33.03L22.0299 46.03C21.4699 46.59 20.7399 46.87 19.9999 46.87ZM32.9999 29.63C32.6499 29.63 32.2999 29.76 32.0299 30.03L19.0299 43.03C18.7699 43.29 18.6299 43.63 18.6299 44C18.6299 44.37 18.7699 44.71 19.0299 44.97C19.5599 45.5 20.4399 45.5 20.9699 44.97L33.9699 31.97C34.2299 31.71 34.3699 31.37 34.3699 31C34.3699 30.63 34.2299 30.29 33.9699 30.03C33.6999 29.76 33.3499 29.63 32.9999 29.63Z" fill="#5FABA1"/>
<path d="M33.0102 34.7401C32.8202 34.7401 32.6302 34.6701 32.4802 34.5201L29.4802 31.5201C29.1902 31.2301 29.1902 30.7501 29.4802 30.4601C29.7702 30.1701 30.2502 30.1701 30.5402 30.4601L33.5402 33.4601C33.8302 33.7501 33.8302 34.2301 33.5402 34.5201C33.3902 34.6701 33.2002 34.7401 33.0102 34.7401Z" fill="#5FABA1"/>
<path d="M25.0001 30.5001C24.9501 30.5001 24.9101 30.4901 24.8601 30.4801L23.5001 30.0801L22.1401 30.4801C21.9601 30.5301 21.7701 30.4801 21.6501 30.3501C21.5201 30.2201 21.4701 30.0401 21.5201 29.8601L21.9201 28.5001L21.5201 27.1401C21.4701 26.9601 21.5201 26.7701 21.6501 26.6501C21.7801 26.5201 21.9701 26.4701 22.1401 26.5201L23.5001 26.9201L24.8601 26.5201C25.0401 26.4701 25.2201 26.5201 25.3501 26.6501C25.4801 26.7801 25.5301 26.9701 25.4801 27.1401L25.0801 28.5001L25.4801 29.8601C25.5301 30.0401 25.4801 30.2301 25.3501 30.3501C25.2601 30.4501 25.1301 30.5001 25.0001 30.5001ZM23.5001 29.0601C23.5501 29.0601 23.5901 29.0701 23.6401 29.0801L24.2601 29.2601L24.0801 28.6401C24.0501 28.5501 24.0501 28.4501 24.0801 28.3601L24.2601 27.7401L23.6401 27.9201C23.5501 27.9501 23.4501 27.9501 23.3601 27.9201L22.7401 27.7401L22.9201 28.3601C22.9501 28.4501 22.9501 28.5501 22.9201 28.6401L22.7401 29.2601L23.3601 29.0801C23.4101 29.0701 23.4501 29.0601 23.5001 29.0601Z" fill="#5FABA1"/>
<path d="M21.0001 36.5001C20.9501 36.5001 20.9101 36.4901 20.8601 36.4801L19.5001 36.0801L18.1401 36.4801C17.9601 36.5301 17.7801 36.4801 17.6501 36.3501C17.5201 36.2201 17.4701 36.0301 17.5201 35.8601L17.9201 34.5001L17.5201 33.1401C17.4701 32.9601 17.5201 32.7701 17.6501 32.6501C17.7801 32.5301 17.9701 32.4701 18.1401 32.5201L19.5001 32.9201L20.8601 32.5201C21.0301 32.4701 21.2201 32.5201 21.3501 32.6501C21.4801 32.7801 21.5301 32.9701 21.4801 33.1401L21.0801 34.5001L21.4801 35.8601C21.5301 36.0401 21.4801 36.2301 21.3501 36.3501C21.2601 36.4501 21.1301 36.5001 21.0001 36.5001ZM19.5001 35.0601C19.5501 35.0601 19.5901 35.0701 19.6401 35.0801L20.2601 35.2601L20.0801 34.6401C20.0501 34.5501 20.0501 34.4501 20.0801 34.3601L20.2601 33.7401L19.6401 33.9201C19.5501 33.9501 19.4501 33.9501 19.3601 33.9201L18.7401 33.7401L18.9201 34.3601C18.9501 34.4501 18.9501 34.5501 18.9201 34.6401L18.7401 35.2601L19.3601 35.0801C19.4101 35.0701 19.4501 35.0601 19.5001 35.0601Z" fill="#5FABA1"/>
<path d="M36.0001 41.5001C35.9501 41.5001 35.9101 41.4901 35.8601 41.4801L34.5001 41.0801L33.1401 41.4801C32.9601 41.5301 32.7801 41.4801 32.6501 41.3501C32.5201 41.2201 32.4701 41.0301 32.5201 40.8601L32.9201 39.5001L32.5201 38.1401C32.4701 37.9601 32.5201 37.7701 32.6501 37.6501C32.7801 37.5301 32.9701 37.4701 33.1401 37.5201L34.5001 37.9201L35.8601 37.5201C36.0301 37.4701 36.2201 37.5201 36.3501 37.6501C36.4801 37.7801 36.5301 37.9701 36.4801 38.1401L36.0801 39.5001L36.4801 40.8601C36.5301 41.0401 36.4801 41.2301 36.3501 41.3501C36.2601 41.4501 36.1301 41.5001 36.0001 41.5001ZM34.5001 40.0601C34.5501 40.0601 34.5901 40.0701 34.6401 40.0801L35.2601 40.2601L35.0801 39.6401C35.0501 39.5501 35.0501 39.4501 35.0801 39.3601L35.2601 38.7401L34.6401 38.9201C34.5501 38.9501 34.4501 38.9501 34.3601 38.9201L33.7401 38.7401L33.9201 39.3601C33.9501 39.4501 33.9501 39.5501 33.9201 39.6401L33.7401 40.2601L34.3601 40.0801C34.4101 40.0701 34.4501 40.0601 34.5001 40.0601Z" fill="#5FABA1"/>
</svg>
