<svg width="205" height="154" viewBox="0 0 205 154" fill="none" xmlns="http://www.w3.org/2000/svg">
<g id="Soccer">
<g id="Background 7">
<path id="Vector" d="M195.421 154H15.6523C15.6523 154 -1.62903 153.184 0.125033 130.232C0.125033 130.232 9.64275 55.9154 74.9855 43.3489C74.9855 43.3489 97.2697 38.9715 111.79 60.8421C111.79 60.8421 126.067 79.9663 148.839 73.1422C148.839 73.1422 190.647 59.2109 204.176 123.957C204.191 123.94 208.95 146.077 195.421 154Z" fill="#E6F0F5"/>
</g>
<g id="Plant 13">
<path id="Vector_2" d="M58.0702 141.783C58.0397 142.182 57.9939 142.598 57.9177 143.031C57.9177 143.031 57.3228 149.289 55.584 152.385H47.134L39.5534 142.032C39.5534 142.032 37.9366 139.635 37.6468 136.873C37.5705 136.173 37.5858 135.474 37.7231 134.759C37.7231 134.759 38.1349 131.313 34.9623 128.251C32.2016 125.588 29.7916 118.997 37.7231 112.472C39.6907 110.841 45.563 107.878 47.5611 114.503C48.5678 117.831 48.583 118.314 48.0492 125.455C47.9119 127.352 49.3762 130.997 52.5487 131.746C55.2942 132.412 58.482 136.14 58.0702 141.783Z" fill="url(#paint0_linear_24_855)"/>
<g id="Group">
<path id="Vector_3" d="M50.8707 152.75C42.6647 141.066 39.7209 117.132 39.6904 116.899L40.148 116.832C40.1785 117.065 43.107 140.866 51.2367 152.451L50.8707 152.75Z" fill="white"/>
</g>
<path id="Vector_4" d="M49.6508 152.385H37.2351C33.666 151.17 33.9557 148.59 33.8337 147.026C33.5744 143.946 30.2188 144.08 28.7851 143.763C23.8127 142.698 24.5143 137.389 25.7955 135.757C30.6459 129.566 36.3199 133.577 37.4944 136.506C37.5401 136.64 37.6012 136.756 37.6469 136.873C39.1417 140.185 41.3991 139.769 41.3991 139.769C48.2628 137.039 49.483 149.938 49.6508 152.385Z" fill="url(#paint1_linear_24_855)"/>
<path id="Vector_5" d="M78.3561 136.505C77.0291 137.62 73.7651 139.252 74.2226 142.264C74.2226 142.264 75.0615 149.171 68.0605 152.384H54.4551L54.9432 151.269C54.9432 151.269 55.6905 145.942 58.07 141.765C59.4275 139.401 61.3035 137.404 63.8965 136.988C64.9795 136.821 66.4132 136.988 67.1149 133.726C67.1149 133.726 67.2826 124.238 76.5258 127.218C78.6002 127.917 84.6708 131.229 78.3561 136.505Z" fill="url(#paint2_linear_24_855)"/>
<g id="Group_2">
<path id="Vector_6" d="M46.2949 152.518C41.1852 143.963 30.6151 138.287 30.5083 138.221L30.7066 137.771C30.8134 137.821 41.4903 143.564 46.6762 152.235L46.2949 152.518Z" fill="white"/>
</g>
<g id="Group_3">
<path id="Vector_7" d="M61.3496 152.434L60.9377 152.217C61.2581 151.502 68.8539 134.774 76.1905 131.029L76.3888 131.479C69.2047 135.157 61.4258 152.267 61.3496 152.434Z" fill="white"/>
</g>
</g>
<g id="Plant 12">
<path id="Vector_8" d="M178.552 147.709C178.46 147.975 178.369 148.258 178.247 148.541C178.247 148.541 177.408 150.938 176.264 152.868H169.522L169.308 152.802L165.022 145.329C165.022 145.329 164.077 144.18 164.443 142.266C164.443 142.266 164.672 141.367 165.816 138.871C166.334 137.739 166.67 136.59 165.022 133.861C164.9 133.661 164.778 133.428 164.672 133.195C163.543 130.648 163.589 126.254 169.537 123.608C171.154 122.892 175.669 122.027 175.928 126.953C176.05 129.167 176.004 129.666 174.876 133.178C174.738 133.594 174.601 134.044 174.433 134.543C174.022 135.808 174.418 138.604 176.462 139.753C178.201 140.735 179.772 143.914 178.552 147.709Z" fill="url(#paint3_linear_24_855)"/>
<g id="Group_4">
<path id="Vector_9" d="M171.719 152.901C168.043 143.248 170.025 127.153 170.041 126.986L170.498 127.053C170.483 127.219 168.516 143.181 172.146 152.702L171.719 152.901Z" fill="white"/>
</g>
<path id="Vector_10" d="M170.269 152.902H161.484C158.952 152.053 159.165 150.206 159.074 149.107C158.891 146.927 156.511 147.01 155.505 146.794C151.981 146.045 152.256 142.499 153.384 141.118C156.908 136.807 160.843 139.57 161.682 141.651C161.712 141.734 161.758 141.834 161.789 141.917C162.841 144.264 164.443 143.964 164.443 143.964C169.293 142.033 170.147 151.171 170.269 152.902Z" fill="url(#paint4_linear_24_855)"/>
<path id="Vector_11" d="M190.601 141.651C189.656 142.433 187.353 143.598 187.673 145.729C187.673 145.729 188.268 150.622 183.311 152.902H173.671L174.022 152.12C174.022 152.12 174.556 148.342 176.233 145.396C177.194 143.715 178.536 142.3 180.352 142.017C181.114 141.9 182.136 142.017 182.624 139.703C182.624 139.703 182.746 132.979 189.29 135.093C190.784 135.576 195.07 137.906 190.601 141.651Z" fill="url(#paint5_linear_24_855)"/>
<g id="Group_5">
<path id="Vector_12" d="M167.844 153.035C164.245 146.993 156.771 142.982 156.695 142.932L156.893 142.482C156.969 142.516 164.55 146.594 168.226 152.752L167.844 153.035Z" fill="white"/>
</g>
<g id="Group_6">
<path id="Vector_13" d="M178.613 152.969L178.201 152.752C178.43 152.253 183.829 140.369 189.046 137.706L189.244 138.155C184.165 140.752 178.674 152.852 178.613 152.969Z" fill="white"/>
</g>
</g>
<g id="Sand 2">
<path id="Vector_14" d="M61.7767 151.004C61.7767 151.004 85.0066 150.771 91.8246 145.179C100.549 138.022 112.172 121.094 134.837 137.189C138.315 139.653 142.921 145.179 149.938 144.679C156.954 144.18 164.885 143.181 170.986 147.842C177.087 152.502 177.24 151.337 185.171 151.004C193.103 150.671 194.933 154 194.933 154H55.157L61.7767 151.004Z" fill="url(#paint6_linear_24_855)"/>
<path id="Vector_15" d="M16.9336 154H125.838C125.838 154 109.365 153.334 99.6035 149.006C99.6035 149.006 70.6995 133.777 50.1846 146.842C50.1846 146.842 41.1092 151.586 34.8556 150.587C34.8556 150.587 22.8059 149.922 16.9336 154Z" fill="url(#paint7_linear_24_855)"/>
</g>
<g id="Ball 2">
<path id="Vector_16" d="M41.5973 43.282C41.5668 44.2806 41.4295 45.2959 41.1855 46.2946C40.9262 47.3432 40.5449 48.3085 40.0568 49.224C38.2722 52.6194 35.0996 54.9995 31.3779 55.9316C31.2254 55.9649 31.0881 55.9982 30.9356 56.0315C28.5562 56.5474 25.948 56.4642 23.3702 55.682C21.906 55.2326 20.5485 54.6001 19.313 53.8011C17.3149 52.5029 15.6371 50.8052 14.4169 48.8744C12.4035 45.6621 11.5799 41.784 12.4188 38.0224C12.4493 37.8892 12.4798 37.7727 12.5103 37.6396C12.5256 37.6063 12.5255 37.573 12.5408 37.5397C13.5475 33.7115 16.0947 30.7655 19.3893 29.1011C21.3874 28.0858 23.6448 27.5531 26.0242 27.5864C27.4427 27.6031 28.8917 27.8195 30.3407 28.2522C32.9032 29.0178 35.1301 30.3827 36.93 32.147C37.052 32.2635 37.1587 32.3633 37.2655 32.4798C40.072 35.3759 41.704 39.2874 41.5973 43.282Z" fill="url(#paint8_linear_24_855)"/>
<path id="Vector_17" d="M40.8957 43.6487C39.6297 41.0855 38.501 39.8371 37.8451 39.2712C37.5858 38.206 36.7927 35.1268 35.8775 33.8119L37.235 32.4637C37.1282 32.3472 37.0062 32.2307 36.8994 32.1308L35.4809 33.5289C34.642 33.0629 32.2168 31.798 29.9747 31.5483C28.7697 30.1668 26.5733 29.0683 25.5056 28.5856L25.9785 27.5537C23.6143 27.5204 21.3417 28.0696 19.3435 29.0683L20.4265 29.784C19.7401 30.4498 18.6114 31.8479 18.0318 34.1282C16.5065 35.0602 14.5694 37.3571 14.1271 37.9064L12.495 37.5069C12.4798 37.5402 12.4798 37.5735 12.4645 37.6068C12.434 37.7399 12.4036 37.8565 12.373 37.9896L14.0661 38.4057C14.3711 40.8691 15.21 42.933 15.5914 43.7818C15.4083 44.6806 14.9965 47.0607 15.5151 48.9748L14.3559 48.8583C15.5761 50.8057 17.2386 52.5034 19.252 53.785L19.4198 52.7364C20.0604 52.9362 20.9908 53.1692 21.9975 53.1692C22.8517 53.1692 23.7821 53.0028 24.6362 52.5201C26.5123 53.4688 29.6544 54.1179 30.478 54.2677L30.8899 55.9821C31.0424 55.9488 31.1949 55.9155 31.3322 55.8822L30.9204 54.1678C32.5982 53.1359 34.4285 51.0554 35.0234 50.323C35.786 50.323 37.2655 50.0401 39.6297 48.4589L40.011 49.1912C40.4838 48.2924 40.8651 47.3104 41.1397 46.2618C41.399 45.2632 41.5363 44.2479 41.5515 43.2492L40.8957 43.6487ZM32.9795 40.9024L31.5915 46.345C29.1206 47.3936 26.3598 47.61 25.4446 47.6599L20.8993 43.3491C21.1586 41.9509 22.1043 38.5222 22.3941 37.5402L28.4037 36.2586C29.2883 37.0742 32.0338 39.6041 32.9795 40.9024ZM21.2654 29.7507C22.0738 29.4511 23.6448 28.9351 24.9871 28.8852C25.7802 29.2181 28.2969 30.3666 29.6086 31.8146C29.3951 32.6135 28.7697 34.8439 28.2359 35.7926L22.1805 37.0908C21.1738 36.3918 19.2368 34.8106 18.5504 34.2447C19.2825 31.2986 21.0213 29.9172 21.2654 29.7507ZM18.8097 51.9708C17.742 51.1885 16.7658 50.1066 16.2472 49.4908C15.4846 47.8097 15.8354 45.2465 16.0489 44.1314C16.9794 43.8484 19.4656 43.6653 20.457 43.5987L25.1091 48.0095C25.0176 49.5241 24.743 51.2218 24.6057 52.0207C22.2873 53.4189 19.2215 52.1539 18.8097 51.9708ZM32.0338 46.4948L33.4218 41.0522C34.1387 40.7692 36.1826 40.0036 37.6163 39.6873C38.2417 40.2532 39.3704 41.5182 40.6516 44.1646C40.5753 44.8803 40.3313 46.4283 39.7212 47.843C37.0977 49.6739 35.5725 49.857 34.9471 49.8237C33.6201 48.8084 32.4456 47.144 32.0338 46.4948Z" fill="#161C3E"/>
</g>
<g id="Man 4">
<path id="Vector_18" d="M109.655 38.0223C109.655 38.0223 102.501 40.985 95.7903 32.33L99.1459 30.6655C99.1459 30.6655 108.709 32.2134 109.655 38.0223Z" fill="#0A0E1E"/>
<path id="Vector_19" d="M112.492 13.8052L122.971 22.4269L115.314 33.3289L102.822 22.4269L112.492 13.8052Z" fill="#ED6263"/>
<path id="Vector_20" d="M155.855 51.5043C155.855 51.5043 136.82 64.1207 117.22 48.5583C117.22 48.5583 134.38 41.4845 151.005 45.6456C151.005 45.6456 154.757 47.543 155.855 51.5043Z" fill="#0A0E1E"/>
<path id="Vector_21" d="M126.143 91.7497C126.143 91.7497 138.65 106.896 147.802 100.571L148.26 87.9216L127.363 85.7578L126.143 91.7497Z" fill="#0A0E1E"/>
<path id="Vector_22" d="M114.932 48.8906C114.932 48.8906 107.84 71.1107 123.931 76.1872L129.27 75.6879L128.05 50.3886L114.932 48.8906Z" fill="#0A0E1E"/>
<path id="Vector_23" d="M185.141 116.933L183.768 131.413L134.349 127.003C129.026 126.52 125.06 121.444 125.472 115.635L127.074 93.4978L127.486 87.8721L146.49 93.6143L145.118 102.502L144.294 107.829L185.141 116.933Z" fill="url(#paint9_linear_24_855)"/>
<path id="Vector_24" opacity="0.2" d="M146.49 93.6143L145.117 102.502C139.535 95.4119 130.078 93.8307 127.073 93.4978L127.485 87.8721L146.49 93.6143Z" fill="black"/>
<path id="Vector_25" d="M130.383 74.9566L123.001 73.0425L121.994 72.7928L102.608 67.7829L57.4601 79.3673L53.3723 67.3668L97.1935 52.1706C98.4442 51.7378 99.7559 51.5215 101.083 51.5215H125.548L130.383 74.9566Z" fill="url(#paint10_linear_24_855)"/>
<path id="Vector_26" d="M53.8149 66.834L39.9654 70.0796L25.2922 68.4651L43.9158 83.9276L58.2534 79.4337L53.8149 66.834Z" fill="url(#paint11_linear_24_855)"/>
<path id="Vector_27" d="M181.48 132.012L188.939 132.612L193.667 147.608L198.914 117.399L183.6 116.117L181.48 132.012Z" fill="url(#paint12_linear_24_855)"/>
<path id="Vector_28" d="M201.354 38.8545C201.186 39.3206 200.759 39.6202 200.317 39.6202C200.256 39.6202 200.18 39.6202 200.119 39.6035L191.806 37.9557L197.266 41.0183C197.816 41.3179 197.999 42.0669 197.663 42.6328C197.465 42.9657 197.144 43.1487 196.794 43.1487C196.672 43.1487 196.534 43.1155 196.412 43.0655L187.871 39.2706L184.164 39.6701C184.164 39.6701 187.154 43.981 185.003 46.9769L180.092 37.9724L178.17 33.7947L161.545 28.3187L154.589 28.0524L151.325 27.9192L148.244 14.2876L150.303 14.4041L159.211 14.9367C160.584 15.0199 161.926 15.4194 163.131 16.1185L181.77 26.7375L187.398 27.5198L192.904 28.818H197.938C198.395 28.818 198.777 29.2341 198.777 29.7335C198.777 29.9665 198.7 30.1662 198.578 30.3327C198.456 30.4991 198.273 30.599 198.075 30.6323L192.919 31.4312L200.241 32.6629C200.79 32.7627 201.171 33.2953 201.125 33.8945C201.11 34.1941 200.973 34.4604 200.79 34.6435C200.607 34.8433 200.348 34.9431 200.073 34.9431L192.675 34.7767L200.637 37.2068C201.263 37.3898 201.614 38.1721 201.354 38.8545Z" fill="url(#paint13_linear_24_855)"/>
<path id="Vector_29" d="M148.214 44.813C148.214 44.813 151.875 56.93 152.302 60.2921L125.548 56.6304L119.707 45.6286L148.214 44.813Z" fill="url(#paint14_linear_24_855)"/>
<path id="Vector_30" d="M107.992 37.0404L104.82 39.1043L104.377 39.3872L84.793 41.1349L95.592 32.4466L96.4309 31.7642C96.4309 31.7642 99.3136 30.3161 103.478 32.4299C105.552 33.4952 107.992 37.0404 107.992 37.0404Z" fill="#ED6263"/>
<path id="Vector_31" opacity="0.2" d="M107.992 37.0409L104.82 39.1047C103.569 34.1614 98.4898 32.8132 95.5918 32.4637L96.4307 31.7813C96.4307 31.7813 99.3134 30.3332 103.477 32.447C105.552 33.4956 107.992 37.0409 107.992 37.0409Z" fill="black"/>
<path id="Vector_32" opacity="0.2" d="M154.559 28.0192L151.295 27.9027L148.214 14.2544L150.273 14.3875L154.559 28.0192Z" fill="black"/>
<path id="Vector_33" d="M95.8513 32.1305C95.8513 32.1305 101.525 28.785 108.389 37.5566L117.678 49.1243C117.678 49.1243 153.034 40.1697 155.81 51.6542C155.81 51.6542 155.673 44.6636 141.35 29.1845H152.378L149.099 13.6221L130.033 13.0562C127.775 12.9896 125.533 13.5389 123.52 14.6374L117.297 18.0162C117.297 18.0162 121.095 28.3689 111.836 27.1705C109.792 26.9042 107.825 26.1552 106.055 25.0068L105.491 24.6406L95.8513 32.1305Z" fill="url(#paint15_linear_24_855)"/>
<path id="Vector_34" opacity="0.2" d="M130.383 74.9557L123.001 73.0416L121.994 72.7919C124.801 63.9372 120.515 55.4153 117.327 51.5039H125.548L130.383 74.9557Z" fill="black"/>
<path id="Vector_35" d="M107.764 38.8383L111.623 37.1406C111.623 37.1406 111.714 29.5841 115.741 29.6507C115.741 29.6507 117.587 28.6687 118.441 29.401C118.441 29.401 119.264 28.3358 121.125 29.2512C121.125 29.2512 123.383 28.1527 123.962 30.0834C123.962 30.0834 124.313 32.8298 121.4 31.132C121.4 31.132 121.11 31.8145 120.256 31.881C119.737 31.9143 118.99 31.6647 118.99 31.6647L118.822 37.1073C118.822 37.1073 120.729 32.0308 124.984 33.1793L121.934 38.3224C121.934 38.3224 121.43 43.9148 115.939 44.0313L108.16 46.1951C108.16 46.1951 92.389 51.0386 87.2641 50.6557C87.2641 50.6557 82.9628 50.0233 83.0848 45.0966C83.0848 45.0966 83.2373 39.8203 88.9114 39.554L107.764 38.8383Z" fill="url(#paint16_linear_24_855)"/>
<path id="Vector_36" d="M128.431 65.4529L126.128 91.7009C126.128 91.7009 139.108 87.9226 147.848 100.639C147.848 100.639 157.716 75.7557 153.918 63.6387L128.431 65.4529Z" fill="url(#paint17_linear_24_855)"/>
<path id="Vector_37" d="M123.947 76.2373C123.947 76.2373 135.051 60.4419 114.887 48.8076C114.887 48.8076 148.946 46.5773 152.744 56.2975C152.744 56.2975 157.976 67.9318 151.753 74.1069C150.014 75.8379 147.711 76.72 145.362 76.6701L123.947 76.2373Z" fill="url(#paint18_linear_24_855)"/>
<path id="Vector_38" d="M112.217 17.084C112.217 17.084 109.899 26.0054 103.508 25.8556C99.7102 25.7723 97.9256 20.1965 97.7883 8.76191L113.453 6.98096L115.222 12.174C115.222 12.174 115.482 15.5861 112.217 17.084Z" fill="url(#paint19_linear_24_855)"/>
<path id="Vector_39" d="M113.041 3.26921C112.263 1.25526 107.047 0.00693024 107.657 1.80451C106.696 1.27189 102.852 -0.742057 101.068 0.289887C100.092 0.855792 99.9544 1.55485 100.076 2.12076C97.5444 1.37176 95.5006 0.373112 93.5177 3.18599C91.4128 6.18196 94.4328 9.29444 95.7598 10.4262C96.5224 12.0407 97.941 12.9229 97.941 12.9229V9.94356C97.941 9.94356 100.931 8.46221 104.881 8.31241C108.831 8.16261 109.777 13.5054 109.777 13.5054L110.997 12.9062C111.104 12.357 111.241 11.8909 111.363 11.5248C111.668 10.6759 112.492 10.1599 113.3 10.343C115.131 10.7758 114.963 14.0713 114.963 14.0713C118.349 6.2319 113.041 3.26921 113.041 3.26921Z" fill="url(#paint20_linear_24_855)"/>
<g id="Group_7">
<path id="Vector_40" d="M115.345 33.0953C114.689 33.0953 113.987 32.6126 113.896 32.5461L114.155 32.13C114.414 32.313 115.177 32.7458 115.619 32.5461C115.817 32.4628 115.939 32.2465 116 31.8969L116.061 31.564L116.336 31.7305C116.748 31.9802 117.922 32.5294 118.456 32.2298C118.624 32.13 118.715 31.9469 118.746 31.6473L118.776 31.2811L119.081 31.4475C119.402 31.6306 120.347 32.0301 120.851 31.7638C121.034 31.6639 121.156 31.4475 121.186 31.1479L121.232 30.7818L121.522 30.9649C121.827 31.1646 122.742 31.5973 123.276 31.331C123.52 31.2145 123.657 30.9648 123.734 30.582L124.176 30.6819C124.084 31.2312 123.84 31.5973 123.459 31.7804C122.818 32.0967 121.979 31.7638 121.552 31.5474C121.461 31.847 121.278 32.08 121.034 32.2132C120.439 32.5461 119.554 32.2465 119.127 32.0467C119.02 32.3963 118.822 32.5793 118.654 32.6792C117.968 33.0787 116.87 32.596 116.351 32.3297C116.244 32.6792 116.046 32.9122 115.772 33.0287C115.65 33.0787 115.497 33.0953 115.345 33.0953Z" fill="#161C3E"/>
</g>
</g>
</g>
<defs>
<linearGradient id="paint0_linear_24_855" x1="52.7211" y1="152.391" x2="36.8882" y2="114.591" gradientUnits="userSpaceOnUse">
<stop stop-color="#90BFA5"/>
<stop offset="1" stop-color="#C4DFCC"/>
</linearGradient>
<linearGradient id="paint1_linear_24_855" x1="24.8651" y1="142.443" x2="49.646" y2="142.443" gradientUnits="userSpaceOnUse">
<stop stop-color="#90BFA5"/>
<stop offset="1" stop-color="#C4DFCC"/>
</linearGradient>
<linearGradient id="paint2_linear_24_855" x1="54.4524" y1="139.525" x2="81.1474" y2="139.525" gradientUnits="userSpaceOnUse">
<stop stop-color="#90BFA5"/>
<stop offset="1" stop-color="#C4DFCC"/>
</linearGradient>
<linearGradient id="paint3_linear_24_855" x1="175.139" y1="153.123" x2="165.809" y2="124.833" gradientUnits="userSpaceOnUse">
<stop stop-color="#90BFA5"/>
<stop offset="1" stop-color="#C4DFCC"/>
</linearGradient>
<linearGradient id="paint4_linear_24_855" x1="152.617" y1="145.878" x2="170.267" y2="145.878" gradientUnits="userSpaceOnUse">
<stop stop-color="#90BFA5"/>
<stop offset="1" stop-color="#C4DFCC"/>
</linearGradient>
<linearGradient id="paint5_linear_24_855" x1="183.964" y1="151.122" x2="181.19" y2="135.744" gradientUnits="userSpaceOnUse">
<stop stop-color="#90BFA5"/>
<stop offset="1" stop-color="#C4DFCC"/>
</linearGradient>
<linearGradient id="paint6_linear_24_855" x1="55.1516" y1="142.232" x2="194.933" y2="142.232" gradientUnits="userSpaceOnUse">
<stop stop-color="#F7A06A"/>
<stop offset="1" stop-color="#FFD18F"/>
</linearGradient>
<linearGradient id="paint7_linear_24_855" x1="16.9336" y1="147.774" x2="125.838" y2="147.774" gradientUnits="userSpaceOnUse">
<stop stop-color="#F7A06A"/>
<stop offset="1" stop-color="#FFD18F"/>
</linearGradient>
<linearGradient id="paint8_linear_24_855" x1="12.0917" y1="41.9483" x2="41.5975" y2="41.9483" gradientUnits="userSpaceOnUse">
<stop stop-color="#E2E5E8"/>
<stop offset="1" stop-color="#C5CBD0"/>
</linearGradient>
<linearGradient id="paint9_linear_24_855" x1="127.943" y1="97.837" x2="180.301" y2="132.51" gradientUnits="userSpaceOnUse">
<stop stop-color="#ED6263"/>
<stop offset="1" stop-color="#FFA9A9"/>
</linearGradient>
<linearGradient id="paint10_linear_24_855" x1="132.868" y1="59.548" x2="50.7266" y2="73.87" gradientUnits="userSpaceOnUse">
<stop stop-color="#ED6263"/>
<stop offset="1" stop-color="#FFA9A9"/>
</linearGradient>
<linearGradient id="paint11_linear_24_855" x1="25.2973" y1="75.3836" x2="58.2576" y2="75.3836" gradientUnits="userSpaceOnUse">
<stop stop-color="#002452"/>
<stop offset="1" stop-color="#001328"/>
</linearGradient>
<linearGradient id="paint12_linear_24_855" x1="191.968" y1="115.174" x2="186.025" y2="140.173" gradientUnits="userSpaceOnUse">
<stop stop-color="#002452"/>
<stop offset="1" stop-color="#001328"/>
</linearGradient>
<linearGradient id="paint13_linear_24_855" x1="148.215" y1="30.6106" x2="201.439" y2="30.6106" gradientUnits="userSpaceOnUse">
<stop stop-color="#ED6263"/>
<stop offset="1" stop-color="#FFA9A9"/>
</linearGradient>
<linearGradient id="paint14_linear_24_855" x1="136.302" y1="41.2944" x2="135.872" y2="55.8753" gradientUnits="userSpaceOnUse">
<stop stop-color="#ED6263"/>
<stop offset="1" stop-color="#FFA9A9"/>
</linearGradient>
<linearGradient id="paint15_linear_24_855" x1="95.8477" y1="32.3368" x2="155.807" y2="32.3368" gradientUnits="userSpaceOnUse">
<stop stop-color="#404AA9"/>
<stop offset="1" stop-color="#7284D3"/>
</linearGradient>
<linearGradient id="paint16_linear_24_855" x1="83.0655" y1="39.7898" x2="124.981" y2="39.7898" gradientUnits="userSpaceOnUse">
<stop stop-color="#ED6263"/>
<stop offset="1" stop-color="#FFA9A9"/>
</linearGradient>
<linearGradient id="paint17_linear_24_855" x1="145.222" y1="100.541" x2="136.966" y2="69.8574" gradientUnits="userSpaceOnUse">
<stop stop-color="#002452"/>
<stop offset="1" stop-color="#001328"/>
</linearGradient>
<linearGradient id="paint18_linear_24_855" x1="114.892" y1="62.6196" x2="154.804" y2="62.6196" gradientUnits="userSpaceOnUse">
<stop stop-color="#3BACA0"/>
<stop offset="1" stop-color="#58C6B6"/>
</linearGradient>
<linearGradient id="paint19_linear_24_855" x1="108.49" y1="5.33497" x2="101.131" y2="23.0371" gradientUnits="userSpaceOnUse">
<stop stop-color="#ED6263"/>
<stop offset="1" stop-color="#FFA9A9"/>
</linearGradient>
<linearGradient id="paint20_linear_24_855" x1="92.775" y1="7.03907" x2="116.097" y2="7.03907" gradientUnits="userSpaceOnUse">
<stop stop-color="#002452"/>
<stop offset="1" stop-color="#001328"/>
</linearGradient>
</defs>
</svg>
