<svg width="64" height="64" viewBox="0 0 64 64" fill="none" xmlns="http://www.w3.org/2000/svg">
<path d="M5.86053 31.0913L7.19838 32.0063L8.81258 31.8603L7.89766 33.1982L8.04359 34.8124L6.70573 33.8975L5.09153 34.0434L6.00646 32.7055L5.86053 31.0913Z" fill="#5FABA0"/>
<path d="M58.3181 12.1433L57.9149 14.1115L58.8567 15.8861L56.8885 15.4828L55.1139 16.4246L55.5172 14.4565L54.5754 12.6819L56.5435 13.0851L58.3181 12.1433Z" fill="#5FABA0"/>
<circle cx="47.9712" cy="58.2749" r="1.72507" fill="#D1E7E7"/>
<path d="M26.8833 15.3334H20.3666C16.9999 15.3334 15.3333 17 15.3333 20.3667V26.9C15.3333 30.3334 16.9999 32 20.3666 31.9167H26.8999C30.3332 32 31.9999 30.3334 31.9166 26.8834V20.3667C31.9999 17 30.3333 15.3334 26.8833 15.3334ZM27.0166 28.2667C25.8833 28.2667 24.7833 27.8334 23.8666 27.0667C22.8333 27.8167 21.5833 28.2667 20.2333 28.2667C19.5499 28.2667 18.9833 27.7 18.9833 27.0167C18.9833 26.3334 19.5499 25.7667 20.2333 25.7667C21.9333 25.7667 23.3499 24.6 23.8666 23H20.2333C19.5499 23 18.9833 22.4334 18.9833 21.75C18.9833 21.0667 19.5499 20.5 20.2333 20.5H22.3833C22.4499 19.8667 22.9666 19.3667 23.6166 19.3667C24.2666 19.3667 24.7833 19.8667 24.8499 20.5H25.2833C25.2999 20.5 25.3166 20.5 25.3166 20.5H25.3499H26.9999C27.6832 20.5 28.2499 21.0667 28.2499 21.75C28.2499 22.4334 27.6999 23 26.9999 23H26.4499C26.2999 23.8 25.9833 24.55 25.5666 25.2334C26.0166 25.5667 26.4999 25.7667 27.0166 25.7667C27.6999 25.7667 28.2666 26.3334 28.2666 27.0167C28.2666 27.7 27.6999 28.2667 27.0166 28.2667Z" fill="#D1E7E7"/>
<path d="M27.0166 28.2667C25.8833 28.2667 24.7833 27.8334 23.8666 27.0667C22.8333 27.8167 21.5833 28.2667 20.2333 28.2667C19.5499 28.2667 18.9833 27.7 18.9833 27.0167C18.9833 26.3334 19.5499 25.7667 20.2333 25.7667C21.9333 25.7667 23.3499 24.6 23.8666 23H20.2333C19.5499 23 18.9833 22.4334 18.9833 21.75C18.9833 21.0667 19.5499 20.5 20.2333 20.5H22.3833C22.4499 19.8667 22.9666 19.3667 23.6166 19.3667C24.2666 19.3667 24.7833 19.8667 24.8499 20.5H25.2833H25.3166H25.3499H26.9999C27.6832 20.5 28.2499 21.0667 28.2499 21.75C28.2499 22.4334 27.6999 23 26.9999 23H26.4499C26.2999 23.8 25.9833 24.55 25.5666 25.2334C26.0166 25.5667 26.4999 25.7667 27.0166 25.7667C27.6999 25.7667 28.2666 26.3334 28.2666 27.0167C28.2666 27.7 27.6999 28.2667 27.0166 28.2667Z" fill="#5FABA0"/>
<path d="M26.9999 49.9167C19.8833 49.9167 14.0833 44.1167 14.0833 37C14.0833 36.3167 14.6499 35.75 15.3333 35.75C16.0166 35.75 16.5833 36.3167 16.5833 37C16.5833 41.9333 20.0166 46.0667 24.6333 47.15L24.1833 46.4C23.8333 45.8 24.0166 45.0333 24.6166 44.6833C25.1999 44.3333 25.9833 44.5167 26.3333 45.1167L28.0833 48.0333C28.3166 48.4167 28.3166 48.9 28.0999 49.2833C27.8666 49.6667 27.4499 49.9167 26.9999 49.9167Z" fill="#5FABA0"/>
<path d="M48.6666 28.25C47.9833 28.25 47.4166 27.6834 47.4166 27C47.4166 22.0667 43.9833 17.9334 39.3666 16.85L39.8166 17.6C40.1666 18.2 39.9833 18.9667 39.3833 19.3167C38.8 19.6667 38.0166 19.4834 37.6666 18.8834L35.9166 15.9667C35.6833 15.5834 35.6833 15.1 35.9 14.7167C36.1333 14.3334 36.55 14.0834 37 14.0834C44.1166 14.0834 49.9166 19.8834 49.9166 27C49.9166 27.6834 49.35 28.25 48.6666 28.25Z" fill="#D1E7E7"/>
<path d="M40.2001 31.75C35.5334 31.75 31.7334 35.5333 31.7334 40.2167C31.7334 44.8833 35.5167 48.6833 40.2001 48.6833C44.8667 48.6833 48.6667 44.9 48.6667 40.2167C48.6667 35.5333 44.8834 31.75 40.2001 31.75ZM44.3334 44.2333C43.7167 44.5333 42.9667 44.3 42.6501 43.6667L42.3667 43.1H38.0501L37.7667 43.6667C37.5501 44.1 37.1001 44.35 36.6501 44.35C36.4667 44.35 36.2667 44.3 36.1001 44.2167C35.4834 43.9 35.2334 43.15 35.5334 42.5333L39.1001 35.4167C39.3167 35 39.7501 34.7333 40.2167 34.7333C40.6834 34.7333 41.1167 35 41.3334 35.4333L44.9001 42.55C45.2001 43.1667 44.9501 43.9167 44.3334 44.2333Z" fill="#5FABA0"/>
<path d="M44.3334 44.2333C43.7167 44.5333 42.9667 44.3 42.6501 43.6667L42.3667 43.1H38.0501L37.7667 43.6667C37.5501 44.1 37.1001 44.35 36.6501 44.35C36.4667 44.35 36.2667 44.3 36.1001 44.2167C35.4834 43.9 35.2334 43.15 35.5334 42.5333L39.1001 35.4167C39.3167 35 39.7501 34.7333 40.2167 34.7333C40.6834 34.7333 41.1167 35 41.3334 35.4333L44.9001 42.55C45.2001 43.1667 44.9501 43.9167 44.3334 44.2333Z" fill="#D1E7E7"/>
<path d="M39.3 40.6H41.1167L40.2001 38.7833L39.3 40.6Z" fill="#5FABA0"/>
</svg>
