<svg width="56" height="56" viewBox="0 0 56 56" fill="none" xmlns="http://www.w3.org/2000/svg">
<rect x="34.4775" y="13.2227" width="24.4082" height="18.5989" rx="3.24031" transform="rotate(90.3018 34.4775 13.2227)" fill="#5FABA0"/>
<mask id="mask0_81_4545" style="mask-type:alpha" maskUnits="userSpaceOnUse" x="19" y="15" width="19" height="24">
<path d="M19.25 35.1207V22.3854L25.8854 15.75H34.3551C36.2214 15.75 37.7344 17.263 37.7344 19.1293V35.1207C37.7344 36.987 36.2214 38.5 34.3551 38.5H22.6293C20.763 38.5 19.25 36.987 19.25 35.1207Z" fill="#D9D9D9"/>
</mask>
<g mask="url(#mask0_81_4545)">
<path d="M19.25 35.1207V22.3854L25.8854 15.75H34.3551C36.2214 15.75 37.7344 17.263 37.7344 19.1293V35.1207C37.7344 36.987 36.2214 38.5 34.3551 38.5H22.6293C20.763 38.5 19.25 36.987 19.25 35.1207Z" fill="#D1E7E7"/>
<rect x="23.9893" y="26.3125" width="1.9862" height="6.95169" rx="0.993098" fill="white"/>
<rect x="27.583" y="25.3193" width="1.9862" height="7.94478" rx="0.993098" fill="url(#paint0_linear_81_4545)"/>
<rect x="27.583" y="25.3193" width="1.9862" height="7.94478" rx="0.993098" fill="white"/>
<rect x="31.1768" y="23.333" width="1.9862" height="9.93098" rx="0.993099" fill="white"/>
<path d="M23.6322 22.3851H18.3018L25.8851 14.8018V20.1322C25.8851 21.3765 24.8765 22.3851 23.6322 22.3851Z" fill="white"/>
</g>
<path d="M6.22833 8.08749L7.56102 8.99888L9.16898 8.85352L8.25759 10.1862L8.40296 11.7942L7.07027 10.8828L5.46231 11.0281L6.3737 9.69546L6.22833 8.08749Z" fill="#D1E7E7"/>
<path d="M50.3623 25.8442L50.0672 27.2843L50.7563 28.5828L49.3162 28.2878L48.0177 28.9769L48.3127 27.5368L47.6236 26.2382L49.0637 26.5333L50.3623 25.8442Z" fill="#D1E7E7"/>
<circle cx="14.0523" cy="47.814" r="1.26229" fill="#5FABA0"/>
<defs>
<linearGradient id="paint0_linear_81_4545" x1="28.4256" y1="41.1126" x2="31.7253" y2="28.9078" gradientUnits="userSpaceOnUse">
<stop stop-color="white"/>
<stop offset="1" stop-color="#8D59FA"/>
</linearGradient>
</defs>
</svg>
