<svg width="205" height="154" viewBox="0 0 205 154" fill="none" xmlns="http://www.w3.org/2000/svg">
<g id="Bike">
<g id="Background 12">
<path id="Vector" d="M195.421 153.732H15.6523C15.6523 153.732 -1.62903 152.859 0.125033 128.294C0.125033 128.294 9.64275 48.7569 74.9855 35.3077C74.9855 35.3077 97.2697 30.6227 111.79 54.0297C111.79 54.0297 126.067 74.4974 148.839 67.1939C148.839 67.1939 190.647 52.284 204.176 121.579C204.191 121.561 208.95 145.253 195.421 153.732Z" fill="#E6F0F5"/>
</g>
<g id="Plant 21">
<path id="Vector_2" d="M55.3704 143.152C55.3399 143.561 55.2942 143.971 55.2331 144.381C55.2331 144.381 54.684 150.562 53.0825 153.626H45.2731L38.2873 143.401C38.2873 143.401 36.7926 141.032 36.518 138.306C36.457 137.629 36.457 136.917 36.579 136.222C36.579 136.222 36.9604 132.82 34.0318 129.792C31.4846 127.155 29.2577 120.653 36.579 114.205C38.3941 112.602 43.8241 109.662 45.6696 116.218C46.6001 119.513 46.6153 119.976 46.112 127.03C45.9747 128.901 47.3322 132.499 50.276 133.247C52.7927 133.889 55.7365 137.576 55.3704 143.152Z" fill="url(#paint0_linear_12_468)"/>
<g id="Group">
<path id="Vector_3" d="M48.705 154C41.1244 142.457 38.4094 118.819 38.3789 118.569L38.8365 118.498C38.867 118.73 41.5667 142.226 49.0711 153.662L48.705 154Z" fill="white"/>
</g>
<path id="Vector_4" d="M47.5918 153.626H36.1369C32.8423 152.433 33.1169 149.868 32.9949 148.336C32.7661 145.29 29.6698 145.414 28.3275 145.111C23.7365 144.06 24.3923 138.823 25.5668 137.202C30.0359 131.074 35.2828 135.047 36.3657 137.95C36.4115 138.075 36.4573 138.2 36.503 138.307C37.8758 141.584 39.9654 141.157 39.9654 141.157C46.3105 138.467 47.424 151.204 47.5918 153.626Z" fill="url(#paint1_linear_12_468)"/>
<path id="Vector_5" d="M74.0858 137.95C72.8656 139.055 69.8456 140.676 70.2727 143.633C70.2727 143.633 71.0505 150.455 64.5834 153.626H52.0151L52.4727 152.54C52.4727 152.54 53.1591 147.267 55.3555 143.152C56.6062 140.818 58.345 138.841 60.7245 138.431C61.7311 138.253 63.0581 138.431 63.6835 135.207C63.6835 135.207 63.836 125.837 72.3623 128.776C74.3146 129.453 79.9124 132.731 74.0858 137.95Z" fill="url(#paint2_linear_12_468)"/>
<g id="Group_2">
<path id="Vector_6" d="M44.4801 153.769C39.767 145.325 30.0205 139.714 29.929 139.661L30.1272 139.18C30.2188 139.233 40.0873 144.916 44.8614 153.484L44.4801 153.769Z" fill="white"/>
</g>
<g id="Group_3">
<path id="Vector_7" d="M58.406 153.68L57.9941 153.449C58.2839 152.754 65.3155 136.205 72.0877 132.5L72.286 132.981C65.651 136.615 58.467 153.52 58.406 153.68Z" fill="white"/>
</g>
</g>
<g id="Plant 20">
<path id="Vector_8" d="M181.297 147.266C181.206 147.586 181.083 147.925 180.961 148.246C180.961 148.246 180.031 151.096 178.765 153.394H171.261L171.017 153.322L166.243 144.433C166.243 144.433 165.19 143.08 165.587 140.782C165.587 140.782 165.846 139.713 167.112 136.738C167.692 135.384 168.073 134.03 166.227 130.788C166.09 130.539 165.953 130.272 165.831 129.987C164.565 126.958 164.626 121.721 171.245 118.586C173.045 117.731 178.063 116.698 178.368 122.576C178.506 125.213 178.46 125.818 177.194 129.987C177.042 130.468 176.889 131.02 176.706 131.608C176.248 133.122 176.691 136.435 178.963 137.807C180.916 138.965 182.67 142.741 181.297 147.266Z" fill="url(#paint3_linear_12_468)"/>
<g id="Group_4">
<path id="Vector_9" d="M173.732 153.448C169.644 141.958 171.856 122.809 171.871 122.613L172.329 122.684C172.313 122.88 170.117 141.887 174.159 153.234L173.732 153.448Z" fill="white"/>
</g>
<path id="Vector_10" d="M172.1 153.447H162.323C159.516 152.431 159.745 150.24 159.638 148.922C159.44 146.321 156.801 146.428 155.657 146.179C151.737 145.288 152.042 141.066 153.308 139.428C157.228 134.297 161.606 137.593 162.536 140.069C162.582 140.176 162.612 140.283 162.658 140.372C163.833 143.168 165.602 142.812 165.602 142.812C171.017 140.514 171.962 151.38 172.1 153.447Z" fill="url(#paint4_linear_12_468)"/>
<path id="Vector_11" d="M194.72 140.052C193.667 140.996 191.105 142.368 191.471 144.915C191.471 144.915 192.142 150.74 186.62 153.448H175.898L176.294 152.522C176.294 152.522 176.889 148.033 178.765 144.506C179.833 142.51 181.312 140.818 183.356 140.48C184.21 140.337 185.339 140.48 185.888 137.736C185.888 137.736 186.025 129.738 193.301 132.25C194.903 132.82 199.692 135.599 194.72 140.052Z" fill="url(#paint5_linear_12_468)"/>
<g id="Group_5">
<path id="Vector_12" d="M169.415 153.589C165.404 146.392 157.091 141.6 157 141.564L157.198 141.083C157.289 141.137 165.709 145.982 169.797 153.304L169.415 153.589Z" fill="white"/>
</g>
<g id="Group_6">
<path id="Vector_13" d="M181.358 153.518L180.946 153.287C181.206 152.681 187.2 138.555 192.981 135.384L193.179 135.865C187.536 138.965 181.419 153.376 181.358 153.518Z" fill="white"/>
</g>
</g>
<g id="Sand 3">
<path id="Vector_14" d="M61.6241 150.525C61.6241 150.525 84.854 150.275 91.672 144.29C100.397 136.63 112.019 118.514 134.685 135.74C138.162 138.376 142.769 144.29 149.785 143.756C156.801 143.221 164.733 142.152 170.834 147.14C176.935 152.128 177.087 150.881 185.019 150.525C192.95 150.168 194.781 153.731 194.781 153.731H55.0044L61.6241 150.525Z" fill="url(#paint6_linear_12_468)"/>
<path id="Vector_15" d="M16.781 153.731H125.686C125.686 153.731 109.213 153.019 99.4509 148.387C99.4509 148.387 70.5469 132.088 50.032 146.071C50.032 146.071 40.9566 151.148 34.703 150.079C34.703 150.079 22.6533 149.367 16.781 153.731Z" fill="url(#paint7_linear_12_468)"/>
</g>
<g id="Cloud 6">
<path id="Vector_16" d="M155.428 44.8912H189.945C189.945 44.8912 188.435 38.2111 183.814 40.3309C183.814 40.3309 183.082 33.8646 178.155 32.2436C176.904 31.8339 175.577 31.8339 174.311 32.1723C172.176 32.7602 168.18 34.4703 165.602 39.3155C165.602 39.3155 162.338 36.1626 159.318 41.9163C159.318 41.9163 155.733 41.3641 155.413 45.1762" fill="white"/>
<path id="Vector_17" d="M13.5778 26.7208H48.0947C48.0947 26.7208 46.5847 20.0407 41.9631 22.1605C41.9631 22.1605 41.231 15.6942 36.3044 14.0732C35.0536 13.6635 33.7266 13.6635 32.4607 14.0019C30.3253 14.5898 26.3291 16.2998 23.7513 21.1451C23.7513 21.1451 20.4873 17.9921 17.4672 23.7459C17.4672 23.7459 13.8828 23.1937 13.5625 27.0058" fill="white"/>
</g>
<g id="Man 7">
<path id="Vector_18" d="M76.8921 127.278V135.722L90.1467 133.958L85.7844 130.449L85.6319 126.049L76.8921 127.278Z" fill="url(#paint8_linear_12_468)"/>
<path id="Vector_19" d="M79.7291 136.363C79.7749 136.916 80.2172 137.325 80.69 137.272L85.7082 136.631C86.181 136.577 86.5318 136.061 86.4861 135.508C86.4403 134.956 85.998 134.546 85.5252 134.6L80.507 135.241C80.0342 135.312 79.6834 135.811 79.7291 136.363Z" fill="url(#paint9_linear_12_468)"/>
<path id="Vector_20" d="M81.0865 75.9575L80.4001 81.7469L77.197 128.222L85.1742 127.1L92.7701 86.8772L93.731 77.0798L81.0865 75.9575Z" fill="#ED6263"/>
<g id="Group_7">
<path id="Vector_21" d="M55.3094 153.875C53.7231 153.875 52.1216 153.679 50.5505 153.287C43.8546 151.648 38.1958 146.696 34.5962 139.339C31.0423 132.071 29.9441 123.324 31.4999 114.685C33.0557 106.063 37.0824 98.5636 42.8327 93.5758C48.6592 88.5346 55.5534 86.6642 62.2341 88.303C68.9301 89.9418 74.5889 94.894 78.1885 102.251C81.7424 109.519 82.8406 118.265 81.2848 126.905C79.729 135.527 75.7023 143.026 69.952 148.014C65.5135 151.879 60.4343 153.875 55.3094 153.875ZM57.4905 92.0973C53.1435 92.0973 48.8422 93.8074 45.0443 97.0851C40.0262 101.432 36.5028 108.005 35.13 115.593C33.7573 123.182 34.7182 130.859 37.8145 137.201C40.8803 143.454 45.6697 147.675 51.2979 149.047C52.6249 149.368 53.9519 149.528 55.2637 149.528C65.5745 149.528 75.1685 139.837 77.6547 126.032C79.0274 118.443 78.0665 110.766 74.9702 104.424C71.9044 98.1717 67.115 93.9499 61.4868 92.5782C60.1598 92.2576 58.8175 92.0973 57.4905 92.0973Z" fill="url(#paint10_linear_12_468)"/>
</g>
<g id="Group_8">
<path id="Vector_22" d="M130.673 153.571C129.087 153.571 127.485 153.375 125.914 152.983C119.218 151.345 113.56 146.392 109.96 139.035C106.406 131.768 105.308 123.021 106.864 114.382C108.419 105.76 112.446 98.2604 118.196 93.2726C124.023 88.2314 130.917 86.3609 137.598 87.9998C144.294 89.6386 149.953 94.5908 153.552 101.948C157.106 109.216 158.204 117.962 156.649 126.602C155.093 135.223 151.066 142.723 145.316 147.711C140.862 151.576 135.798 153.571 130.673 153.571ZM132.87 91.7941C122.559 91.7941 112.965 101.485 110.479 115.29C107.672 130.859 114.932 145.876 126.662 148.744C127.989 149.064 129.316 149.225 130.627 149.225C140.938 149.225 150.532 139.534 153.018 125.729C154.391 118.14 153.43 110.463 150.334 104.121C147.268 97.8685 142.479 93.6467 136.851 92.275C135.508 91.9366 134.181 91.7941 132.87 91.7941Z" fill="url(#paint11_linear_12_468)"/>
</g>
<path id="Vector_23" d="M142.067 72.5022H139.856C138.513 72.5022 137.186 72.0568 136.042 71.2196C130.399 67.1047 113.011 54.1899 111.409 49.8434C110.57 47.5989 109.487 42.8427 108.587 38.514C107.626 33.9003 106.879 29.7853 106.879 29.7853L114.872 28.9125L117.205 28.6631L119.402 42.6289L141.945 70.1686L142.067 72.5022Z" fill="#ED6263"/>
<path id="Vector_24" opacity="0.2" d="M114.856 28.9297V36.6964L108.587 38.5312C107.626 33.9175 106.879 29.8026 106.879 29.8026L114.856 28.9297Z" fill="black"/>
<path id="Vector_25" d="M115.649 11.367L131.07 8.05371L140.298 10.6901C140.298 10.6901 136.164 32.9926 127.257 20.7369L117.846 22.8211L115.649 11.367Z" fill="url(#paint12_linear_12_468)"/>
<path id="Vector_26" d="M140.664 10.2971C140.664 10.2971 140.694 11.5974 133.358 13.0225L131.787 15.9083L130.933 15.4986L130.811 13.6103C130.856 13.0225 130.551 12.4881 130.048 12.2743C129.285 11.9537 127.958 12.1318 128.187 14.5545C128.187 14.5545 125.228 15.3917 122.895 12.3812C122.895 12.3812 121.964 10.9383 121.796 9.67358C121.629 8.40882 123.871 6.23556 123.871 6.23556C123.871 6.23556 126.677 3.72387 130.445 3.31416C133.129 2.99352 138.163 4.72142 140.664 10.2971Z" fill="url(#paint13_linear_12_468)"/>
<g id="Group_9">
<path id="Vector_27" d="M128.782 18.3667L126.585 9.51333L127.028 9.35303L128.965 17.191L132.809 11.2056L133.175 11.5263L128.782 18.3667Z" fill="#005F57"/>
</g>
<g id="Group_10">
<path id="Vector_28" d="M128.828 23.052C128.645 22.3395 128.233 20.3087 128.706 17.6367L129.148 17.7436C128.69 20.2731 129.087 22.2326 129.255 22.8917C129.285 23.0342 129.224 23.1767 129.117 23.2124C129.011 23.2836 128.873 23.2123 128.828 23.052Z" fill="#005F57"/>
</g>
<path id="Vector_29" d="M121.796 3.33207C121.11 3.84866 120.927 4.9353 121.415 5.70128C122.727 7.76765 125.884 11.4016 132.382 12.4526C132.382 12.4526 137.217 13.0939 140.557 12.3635C141.35 12.1854 141.869 11.2947 141.686 10.3684C141.091 7.30449 138.986 0.766943 131.787 0.0544026C129.163 -0.2128 125.625 0.446282 121.796 3.33207Z" fill="url(#paint14_linear_12_468)"/>
<path id="Vector_30" d="M124.755 4.27637C124.755 4.27637 133.388 5.54114 139.123 9.10385C139.123 9.10385 129.117 11.3127 124.755 4.27637Z" fill="url(#paint15_linear_12_468)"/>
<path id="Vector_31" d="M125.93 3.01164C125.93 3.01164 136.271 6.12903 139.215 7.8035C139.215 7.8035 133.953 1.64 125.93 3.01164Z" fill="url(#paint16_linear_12_468)"/>
<path id="Vector_32" d="M128.797 18.67C129.252 18.67 129.621 18.2393 129.621 17.708C129.621 17.1767 129.252 16.7461 128.797 16.7461C128.342 16.7461 127.974 17.1767 127.974 17.708C127.974 18.2393 128.342 18.67 128.797 18.67Z" fill="url(#paint17_linear_12_468)"/>
<path id="Vector_33" d="M77.1057 42.5571L79.7139 79.3242L94.2956 81.1056L95.1192 58.625L77.1057 42.5571Z" fill="url(#paint18_linear_12_468)"/>
<path id="Vector_34" d="M105.842 31.6377L106.711 36.6255L114.78 34.6838L115.329 29.7139L105.842 31.6377Z" fill="url(#paint19_linear_12_468)"/>
<path id="Vector_35" d="M143.394 70.525C143.074 68.0845 141.625 66.1607 139.611 65.4659C135.676 64.1299 129.438 62.8652 122.04 64.3259L120.667 64.5931L122.803 78.0245L81.7577 77.9888L80.2019 53.2637L77.4564 53.4953L79.0732 79.0576L54.2265 119.619C53.0673 121.507 54.2417 124.108 56.2246 124.072L85.4336 123.467L124.099 86.3434L129.438 119.993L132.137 119.405L123.87 67.2473C130.505 66.2319 136.027 67.5857 138.833 68.5477C139.993 68.9396 140.542 70.0796 140.664 71.0059C140.816 72.146 140.42 73.2148 139.611 73.8383C138.391 74.7824 136.683 75.0318 135.554 75.0852C134.852 75.1209 134.288 75.7443 134.242 76.5638C134.181 77.5257 134.837 78.3451 135.661 78.2917C137.14 78.2204 139.383 77.8641 141.121 76.5103C142.83 75.1921 143.699 72.912 143.394 70.525ZM84.4422 120.296L56.8499 120.866L79.2867 84.2414L80.6137 117.072L83.3592 116.911L81.9102 81.2309L123.26 81.2665L123.504 82.7985L84.4422 120.296Z" fill="url(#paint20_linear_12_468)"/>
<path id="Vector_36" d="M73.0482 54.279L85.8758 54.7065C87.2485 54.76 87.5841 52.4798 86.2723 51.9989L74.0396 47.4742C72.8652 47.0289 71.6144 47.9196 71.4162 49.3447L71.1111 51.4823C70.8976 52.9252 71.8127 54.2434 73.0482 54.279Z" fill="url(#paint21_linear_12_468)"/>
<g id="Group_11">
<g id="Group_12">
<path id="Vector_37" d="M82.4593 135.402L81.1628 120.225L82.3831 120.083L83.6795 135.26C83.71 135.652 83.466 136.008 83.1304 136.043C82.7796 136.079 82.4898 135.794 82.4593 135.402Z" fill="#0A0E1E"/>
</g>
</g>
<g id="Group_13">
<path id="Vector_38" d="M82.1001 112.927L54.2581 116.092L54.3319 116.979L82.174 113.814L82.1001 112.927Z" fill="black"/>
</g>
<g id="Group_14">
<path id="Vector_39" d="M54.9981 124.292L54.9204 125.178L81.3829 128.343L81.4606 127.457L54.9981 124.292Z" fill="black"/>
</g>
<path id="Vector_40" d="M88.1179 121.578C87.6298 125.835 84.4267 128.864 80.9644 128.311C77.502 127.777 75.092 123.876 75.5801 119.618C76.0682 115.361 79.2713 112.333 82.7337 112.885C86.196 113.419 88.606 117.32 88.1179 121.578Z" fill="url(#paint22_linear_12_468)"/>
<path id="Vector_41" d="M143.912 71.4868C143.912 71.4868 144.751 72.1459 143.226 73.3929L141.853 71.4334C141.853 71.4334 138.147 73.5532 136.774 69.8658L119.584 54.9381C119.584 54.9381 116.076 52.3907 115.329 46.7438L114.048 38.5318L113.117 32.6178L123.169 29.7319L123.84 34.8266L124.969 43.3949L139.962 65.8756C139.962 65.8756 141.274 65.7687 142.723 66.8019C143.226 67.1403 143.745 67.6035 144.019 68.0844C144.324 68.6188 144.324 69.5095 144.019 69.5095C144.019 69.5095 144.477 69.848 144.477 70.5783C144.446 71.0771 143.973 71.469 143.912 71.4868Z" fill="url(#paint23_linear_12_468)"/>
<path id="Vector_42" opacity="0.2" d="M123.825 34.8085L114.032 38.5137L113.117 32.5996L123.169 29.7139L123.825 34.8085Z" fill="black"/>
<path id="Vector_43" d="M114.597 75.6551C113.987 77.5433 112.858 79.5384 110.784 81.106L85.6929 99.4539L78.6919 92.756L101.571 71.6292L98.2307 68.1912L92.7397 62.5443L104.744 50.3599C104.744 50.3599 105.918 51.6425 107.565 53.9938C109.594 56.9153 112.355 61.5289 114.444 67.4608C115.375 70.0616 115.466 73.0008 114.597 75.6551Z" fill="url(#paint24_linear_12_468)"/>
<path id="Vector_44" d="M59.0312 121.116C58.7414 123.699 56.789 125.534 54.6994 125.196C52.5945 124.875 51.1455 122.506 51.4353 119.923C51.7251 117.34 53.6775 115.505 55.7671 115.843C57.872 116.182 59.3362 118.533 59.0312 121.116Z" fill="url(#paint25_linear_12_468)"/>
<path id="Vector_45" d="M93.1212 38.7807L112.645 32.0294L113.331 35.5565L124.054 33.1517L122.33 22.1251C122.33 22.1251 119.997 19.5956 119.859 9.95845C119.859 9.95845 110.586 2.31646 94.2804 9.95845C94.2804 9.95845 82.0477 16.211 77.0906 28.4311L93.1212 38.7807Z" fill="url(#paint26_linear_12_468)"/>
<path id="Vector_46" d="M133.556 119.993C133.327 121.952 131.863 123.341 130.262 123.092C128.675 122.843 127.562 121.044 127.791 119.084C128.019 117.125 129.484 115.735 131.085 115.985C132.671 116.234 133.785 118.033 133.556 119.993Z" fill="url(#paint27_linear_12_468)"/>
<g id="Group_15">
<g id="Group_16">
<path id="Vector_47" d="M81.1629 120.083L79.3936 104.977L80.5985 104.781L82.3678 119.887C82.4136 120.279 82.1848 120.635 81.8493 120.688C81.5137 120.742 81.2086 120.457 81.1629 120.083Z" fill="#0A0E1E"/>
</g>
</g>
<path id="Vector_48" opacity="0.2" d="M107.565 53.9757C107.367 57.1822 105.964 63.6663 98.2307 68.1731L92.7397 62.5262L104.744 50.3418C104.744 50.3418 105.918 51.6065 107.565 53.9757Z" fill="black"/>
<path id="Vector_49" d="M88.3774 34.2035C88.3774 34.2035 100.747 43.6803 106.803 52.5158C106.803 52.5158 106.528 60.229 95.531 65.8403C95.531 65.8403 62.8444 48.2405 77.3955 27.4878L88.3774 34.2035Z" fill="url(#paint28_linear_12_468)"/>
<path id="Vector_50" d="M79.5918 91.4736L73.3687 98.4209L85.6624 108.325L83.6795 102.055L87.0809 98.8128L79.5918 91.4736Z" fill="url(#paint29_linear_12_468)"/>
<path id="Vector_51" d="M77.1972 102.446C76.9227 102.909 76.9989 103.551 77.3955 103.871L81.4985 107.309C81.8951 107.63 82.4442 107.541 82.7187 107.078C82.9932 106.615 82.917 105.973 82.5204 105.653L78.4174 102.215C78.0209 101.876 77.4718 101.983 77.1972 102.446Z" fill="url(#paint30_linear_12_468)"/>
</g>
</g>
<defs>
<linearGradient id="paint0_linear_12_468" x1="50.4235" y1="153.632" x2="34.04" y2="117.085" gradientUnits="userSpaceOnUse">
<stop stop-color="#90BFA5"/>
<stop offset="1" stop-color="#C4DFCC"/>
</linearGradient>
<linearGradient id="paint1_linear_12_468" x1="24.7126" y1="143.804" x2="47.5853" y2="143.804" gradientUnits="userSpaceOnUse">
<stop stop-color="#90BFA5"/>
<stop offset="1" stop-color="#C4DFCC"/>
</linearGradient>
<linearGradient id="paint2_linear_12_468" x1="52.022" y1="140.923" x2="76.6613" y2="140.923" gradientUnits="userSpaceOnUse">
<stop stop-color="#90BFA5"/>
<stop offset="1" stop-color="#C4DFCC"/>
</linearGradient>
<linearGradient id="paint3_linear_12_468" x1="177.515" y1="153.71" x2="165.795" y2="120.508" gradientUnits="userSpaceOnUse">
<stop stop-color="#90BFA5"/>
<stop offset="1" stop-color="#C4DFCC"/>
</linearGradient>
<linearGradient id="paint4_linear_12_468" x1="152.465" y1="145.085" x2="172.096" y2="145.085" gradientUnits="userSpaceOnUse">
<stop stop-color="#90BFA5"/>
<stop offset="1" stop-color="#C4DFCC"/>
</linearGradient>
<linearGradient id="paint5_linear_12_468" x1="187.33" y1="151.329" x2="183.812" y2="133.106" gradientUnits="userSpaceOnUse">
<stop stop-color="#90BFA5"/>
<stop offset="1" stop-color="#C4DFCC"/>
</linearGradient>
<linearGradient id="paint6_linear_12_468" x1="54.999" y1="141.136" x2="194.781" y2="141.136" gradientUnits="userSpaceOnUse">
<stop stop-color="#F7A06A"/>
<stop offset="1" stop-color="#FFD18F"/>
</linearGradient>
<linearGradient id="paint7_linear_12_468" x1="16.781" y1="147.068" x2="125.686" y2="147.068" gradientUnits="userSpaceOnUse">
<stop stop-color="#F7A06A"/>
<stop offset="1" stop-color="#FFD18F"/>
</linearGradient>
<linearGradient id="paint8_linear_12_468" x1="76.8945" y1="130.886" x2="90.1467" y2="130.886" gradientUnits="userSpaceOnUse">
<stop stop-color="#002452"/>
<stop offset="1" stop-color="#001328"/>
</linearGradient>
<linearGradient id="paint9_linear_12_468" x1="79.7326" y1="135.956" x2="86.5108" y2="135.932" gradientUnits="userSpaceOnUse">
<stop stop-color="#3BACA0"/>
<stop offset="1" stop-color="#58C6B6"/>
</linearGradient>
<linearGradient id="paint10_linear_12_468" x1="80.9245" y1="121.223" x2="32.4206" y2="120.635" gradientUnits="userSpaceOnUse">
<stop stop-color="#002452"/>
<stop offset="1" stop-color="#001328"/>
</linearGradient>
<linearGradient id="paint11_linear_12_468" x1="157.352" y1="119.968" x2="106.558" y2="120.752" gradientUnits="userSpaceOnUse">
<stop stop-color="#002452"/>
<stop offset="1" stop-color="#001328"/>
</linearGradient>
<linearGradient id="paint12_linear_12_468" x1="115.649" y1="16.2285" x2="140.303" y2="16.2285" gradientUnits="userSpaceOnUse">
<stop stop-color="#ED6263"/>
<stop offset="1" stop-color="#FFA9A9"/>
</linearGradient>
<linearGradient id="paint13_linear_12_468" x1="121.817" y1="9.57313" x2="140.671" y2="9.57313" gradientUnits="userSpaceOnUse">
<stop stop-color="#002452"/>
<stop offset="1" stop-color="#001328"/>
</linearGradient>
<linearGradient id="paint14_linear_12_468" x1="113.018" y1="3.33737" x2="130.637" y2="5.30517" gradientUnits="userSpaceOnUse">
<stop stop-color="#3BACA0"/>
<stop offset="1" stop-color="#58C6B6"/>
</linearGradient>
<linearGradient id="paint15_linear_12_468" x1="133.393" y1="6.84929" x2="147.763" y2="6.84929" gradientUnits="userSpaceOnUse">
<stop stop-color="#3BACA0"/>
<stop offset="1" stop-color="#58C6B6"/>
</linearGradient>
<linearGradient id="paint16_linear_12_468" x1="133.235" y1="5.30703" x2="146.526" y2="5.30703" gradientUnits="userSpaceOnUse">
<stop stop-color="#3BACA0"/>
<stop offset="1" stop-color="#58C6B6"/>
</linearGradient>
<linearGradient id="paint17_linear_12_468" x1="127.976" y1="17.7035" x2="129.626" y2="17.7035" gradientUnits="userSpaceOnUse">
<stop stop-color="#002452"/>
<stop offset="1" stop-color="#001328"/>
</linearGradient>
<linearGradient id="paint18_linear_12_468" x1="87.409" y1="82.7713" x2="85.5382" y2="48.8657" gradientUnits="userSpaceOnUse">
<stop stop-color="#002452"/>
<stop offset="1" stop-color="#001328"/>
</linearGradient>
<linearGradient id="paint19_linear_12_468" x1="110.135" y1="34.3259" x2="108.302" y2="43.3949" gradientUnits="userSpaceOnUse">
<stop stop-color="#3BACA0"/>
<stop offset="1" stop-color="#58C6B6"/>
</linearGradient>
<linearGradient id="paint20_linear_12_468" x1="53.765" y1="88.6869" x2="143.455" y2="88.6869" gradientUnits="userSpaceOnUse">
<stop stop-color="#404AA9"/>
<stop offset="1" stop-color="#7284D3"/>
</linearGradient>
<linearGradient id="paint21_linear_12_468" x1="71.0715" y1="51.0434" x2="87.1053" y2="51.0434" gradientUnits="userSpaceOnUse">
<stop stop-color="#3BACA0"/>
<stop offset="1" stop-color="#58C6B6"/>
</linearGradient>
<linearGradient id="paint22_linear_12_468" x1="88.2337" y1="120.486" x2="75.2171" y2="120.66" gradientUnits="userSpaceOnUse">
<stop stop-color="#404AA9"/>
<stop offset="1" stop-color="#7284D3"/>
</linearGradient>
<linearGradient id="paint23_linear_12_468" x1="113.986" y1="30.2459" x2="141.849" y2="65.4641" gradientUnits="userSpaceOnUse">
<stop stop-color="#ED6263"/>
<stop offset="1" stop-color="#FFA9A9"/>
</linearGradient>
<linearGradient id="paint24_linear_12_468" x1="106.404" y1="59.0816" x2="85.3216" y2="98.9319" gradientUnits="userSpaceOnUse">
<stop stop-color="#ED6263"/>
<stop offset="1" stop-color="#FFA9A9"/>
</linearGradient>
<linearGradient id="paint25_linear_12_468" x1="51.4007" y1="120.529" x2="59.0755" y2="120.529" gradientUnits="userSpaceOnUse">
<stop stop-color="#002452"/>
<stop offset="1" stop-color="#001328"/>
</linearGradient>
<linearGradient id="paint26_linear_12_468" x1="92.1543" y1="39.2344" x2="121.846" y2="14.1121" gradientUnits="userSpaceOnUse">
<stop stop-color="#3BACA0"/>
<stop offset="1" stop-color="#58C6B6"/>
</linearGradient>
<linearGradient id="paint27_linear_12_468" x1="127.754" y1="119.545" x2="133.583" y2="119.545" gradientUnits="userSpaceOnUse">
<stop stop-color="#002452"/>
<stop offset="1" stop-color="#001328"/>
</linearGradient>
<linearGradient id="paint28_linear_12_468" x1="73.6582" y1="46.6689" x2="106.801" y2="46.6689" gradientUnits="userSpaceOnUse">
<stop stop-color="#404AA9"/>
<stop offset="1" stop-color="#7284D3"/>
</linearGradient>
<linearGradient id="paint29_linear_12_468" x1="73.3687" y1="99.8971" x2="87.0797" y2="99.8971" gradientUnits="userSpaceOnUse">
<stop stop-color="#002452"/>
<stop offset="1" stop-color="#001328"/>
</linearGradient>
<linearGradient id="paint30_linear_12_468" x1="77.0257" y1="104.763" x2="82.8821" y2="104.763" gradientUnits="userSpaceOnUse">
<stop stop-color="#3BACA0"/>
<stop offset="1" stop-color="#58C6B6"/>
</linearGradient>
</defs>
</svg>
