<svg width="64" height="64" viewBox="0 0 64 64" fill="none" xmlns="http://www.w3.org/2000/svg">
<circle cx="41.375" cy="52.375" r="1.375" fill="#5FABA0"/>
<circle cx="9.375" cy="15.875" r="1.375" fill="#5FABA0"/>
<path d="M21.9798 46.4309L21.5788 48.1021L22.3333 49.6463L20.6621 49.2453L19.118 49.9998L19.5189 48.3286L18.7644 46.7845L20.4356 47.1854L21.9798 46.4309Z" fill="#D1E7E7"/>
<path d="M46.0188 10.1843L47.4705 11.177L49.222 11.0187L48.2293 12.4704L48.3876 14.2219L46.9359 13.2291L45.1844 13.3875L46.1772 11.9358L46.0188 10.1843Z" fill="#D1E7E7"/>
<path d="M27.6488 47.4725L31.9815 47.5445C37.3141 47.6331 40.7024 44.3556 40.791 39.023L40.9031 32.2739L30.4879 32.1008C29.8047 32.0895 29.2475 31.5135 29.2589 30.8303C29.2702 30.147 29.8462 29.5898 30.5295 29.6012L40.9447 29.7743L41.0569 23.0252C41.1455 17.6926 37.868 14.3044 32.5354 14.2157L28.2193 14.144C22.8867 14.0554 19.4985 17.3329 19.4098 22.6655L19.144 38.6633C19.0387 43.9956 22.3162 47.3838 27.6488 47.4725Z" fill="#5FABA0"/>
<path d="M45.5405 32.266L42.0033 35.6265C41.7469 35.87 41.6222 36.1836 41.6141 36.5002C41.606 36.8167 41.7141 37.1529 41.958 37.3926C42.4288 37.8882 43.2285 37.9086 43.7241 37.4378L49.4486 31.9993C49.9442 31.5286 49.9646 30.7288 49.4938 30.2333L44.0553 24.5088C43.5846 24.0132 42.7848 23.9927 42.2893 24.4635C41.7937 24.9343 41.7732 25.734 42.244 26.2296L45.6045 29.7668L38.2069 29.5773L38.1429 32.0765L45.5405 32.266Z" fill="#D1E7E7"/>
</svg>
