<svg width="56" height="56" viewBox="0 0 56 56" fill="none" xmlns="http://www.w3.org/2000/svg">
<circle cx="49.7656" cy="35.3281" r="1.20312" fill="#D1E7E7"/>
<circle cx="10.0986" cy="20.0156" r="1.20312" fill="#D1E7E7"/>
<path d="M40.704 17.6609L41.9742 18.5296L43.5068 18.391L42.6381 19.6613L42.7767 21.1939L41.5064 20.3252L39.9738 20.4637L40.8425 19.1935L40.704 17.6609Z" fill="#5FABA0"/>
<path d="M21.1278 46.752L20.777 48.2144L21.4372 49.5655L19.9749 49.2146L18.6237 49.8748L18.9746 48.4125L18.3144 47.0614L19.7767 47.4122L21.1278 46.752Z" fill="#5FABA0"/>
<path d="M28.0003 14.667C24.507 14.667 21.667 17.507 21.667 21.0003C21.667 24.427 24.347 27.2003 27.8403 27.3203C27.947 27.307 28.0537 27.307 28.1337 27.3203C28.1603 27.3203 28.1737 27.3203 28.2003 27.3203C28.2137 27.3203 28.2137 27.3203 28.227 27.3203C31.6403 27.2003 34.3203 24.427 34.3337 21.0003C34.3337 17.507 31.4937 14.667 28.0003 14.667Z" fill="#D1E7E7"/>
<path d="M34.7733 30.8668C31.0533 28.3868 24.9866 28.3868 21.2399 30.8668C19.5466 32.0002 18.6133 33.5335 18.6133 35.1735C18.6133 36.8135 19.5466 38.3335 21.2266 39.4535C23.0933 40.7068 25.5466 41.3335 27.9999 41.3335C30.4533 41.3335 32.9066 40.7068 34.7733 39.4535C36.4533 38.3202 37.3866 36.8002 37.3866 35.1468C37.3733 33.5068 36.4533 31.9868 34.7733 30.8668Z" fill="#5FABA0"/>
<path d="M29.333 40.5863V39.413C29.333 38.7196 29.8997 38.1463 30.5997 38.1463C31.8063 38.1463 32.2997 37.293 31.693 36.2463C31.3463 35.6463 31.553 34.8663 32.1597 34.5196L33.313 33.8596C33.8397 33.5463 34.5197 33.733 34.833 34.2596L34.9063 34.3863C35.5063 35.433 36.493 35.433 37.0997 34.3863L37.173 34.2596C37.4863 33.733 38.1663 33.5463 38.693 33.8596L39.8463 34.5196C40.453 34.8663 40.6597 35.6463 40.313 36.2463C39.7063 37.293 40.1997 38.1463 41.4063 38.1463C42.0997 38.1463 42.673 38.713 42.673 39.413V40.5863C42.673 41.2796 42.1063 41.853 41.4063 41.853C40.1997 41.853 39.7063 42.7063 40.313 43.753C40.6597 44.3596 40.453 45.133 39.8463 45.4796L38.693 46.1396C38.1663 46.453 37.4863 46.2663 37.173 45.7396L37.0997 45.613C36.4997 44.5663 35.513 44.5663 34.9063 45.613L34.833 45.7396C34.5197 46.2663 33.8397 46.453 33.313 46.1396L32.1597 45.4796C31.553 45.133 31.3463 44.353 31.693 43.753C32.2997 42.7063 31.8063 41.853 30.5997 41.853C29.8997 41.853 29.333 41.2796 29.333 40.5863Z" fill="#D1E7E7"/>
<path d="M35.9997 42.1663C37.1963 42.1663 38.1663 41.1963 38.1663 39.9997C38.1663 38.8031 37.1963 37.833 35.9997 37.833C34.8031 37.833 33.833 38.8031 33.833 39.9997C33.833 41.1963 34.8031 42.1663 35.9997 42.1663Z" fill="#5FABA0"/>
</svg>
