<svg width="205" height="153" viewBox="0 0 205 153" fill="none" xmlns="http://www.w3.org/2000/svg">
<g id="Tennis">
<g id="Background 4">
<path id="Vector" d="M195.421 153.391H15.6524C15.6524 153.391 -1.62903 152.517 0.125033 127.92C0.125033 127.92 9.64279 48.2788 74.9855 34.8121C74.9855 34.8121 97.2697 30.121 111.79 53.5585C111.79 53.5585 126.067 74.053 148.839 66.7399C148.839 66.7399 190.647 51.8105 204.176 121.196C204.191 121.178 208.95 144.901 195.421 153.391Z" fill="#E6F0F5"/>
</g>
<g id="Plant 9">
<path id="Vector_2" d="M51.9234 140.833C51.8929 141.257 51.8472 141.681 51.7709 142.121C51.7709 142.121 51.1455 148.597 49.3152 151.793H40.3923L32.3999 141.077C32.3999 141.077 30.6916 138.598 30.3866 135.744C30.3103 135.026 30.3256 134.292 30.4629 133.558C30.4629 133.558 30.9052 129.986 27.5496 126.822C24.6363 124.065 22.0891 117.248 30.4629 110.511C32.5372 108.831 38.745 105.765 40.8499 112.615C41.9176 116.057 41.9329 116.546 41.3533 123.935C41.2008 125.892 42.7565 129.66 46.1121 130.443C48.9796 131.144 52.3505 134.993 51.9234 140.833Z" fill="url(#paint0_linear_12_550)"/>
<g id="Group">
<path id="Vector_3" d="M44.3275 152.169C35.6792 140.083 32.5676 115.34 32.5371 115.095L32.9947 115.03C33.0252 115.274 36.1215 139.887 44.7088 151.859L44.3275 152.169Z" fill="white"/>
</g>
<path id="Vector_4" d="M43.0158 151.81H29.9137C26.1462 150.554 26.4513 147.879 26.314 146.264C26.0547 143.067 22.5008 143.214 20.9908 142.904C15.7439 141.811 16.4912 136.314 17.8487 134.618C22.9737 128.208 28.968 132.367 30.2035 135.401C30.2645 135.532 30.3102 135.662 30.3713 135.776C31.9423 139.201 34.3217 138.761 34.3217 138.761C41.5668 135.923 42.848 149.265 43.0158 151.81Z" fill="url(#paint1_linear_12_550)"/>
<path id="Vector_5" d="M73.3228 135.385C71.9196 136.543 68.4724 138.239 68.9605 141.338C68.9605 141.338 69.8452 148.482 62.4628 151.81H48.0947L48.6134 150.668C48.6134 150.668 49.4065 145.155 51.9079 140.849C53.3417 138.402 55.3246 136.331 58.0548 135.907C59.1988 135.727 60.724 135.907 61.4409 132.547C61.4409 132.547 61.6239 122.728 71.3704 125.81C73.5821 126.495 79.973 129.921 73.3228 135.385Z" fill="url(#paint2_linear_12_550)"/>
<g id="Group_2">
<path id="Vector_6" d="M39.5076 151.94C34.1234 143.1 22.9583 137.212 22.8516 137.163L23.0499 136.723C23.1567 136.788 34.4284 142.725 39.8889 151.679L39.5076 151.94Z" fill="white"/>
</g>
<g id="Group_3">
<path id="Vector_7" d="M55.3549 151.843L54.9431 151.631C55.2787 150.897 63.3016 133.591 71.0348 129.726L71.233 130.166C63.6524 133.966 55.4464 151.663 55.3549 151.843Z" fill="white"/>
</g>
</g>
<g id="Plant 8">
<path id="Vector_8" d="M176.691 147.521C176.584 147.831 176.477 148.125 176.34 148.434C176.34 148.434 175.394 151.093 174.098 153.23H166.456L166.212 153.165L161.362 144.879C161.362 144.879 160.294 143.607 160.706 141.486C160.706 141.486 160.965 140.491 162.262 137.718C162.841 136.463 163.238 135.19 161.362 132.173C161.224 131.944 161.087 131.7 160.965 131.423C159.684 128.601 159.73 123.724 166.471 120.788C168.302 119.989 173.411 119.027 173.716 124.507C173.854 126.97 173.808 127.524 172.527 131.423C172.374 131.879 172.206 132.385 172.023 132.939C171.55 134.342 172.008 137.441 174.326 138.713C176.309 139.79 178.079 143.329 176.691 147.521Z" fill="url(#paint3_linear_12_550)"/>
<g id="Group_4">
<path id="Vector_9" d="M168.988 153.297C164.84 142.597 167.082 124.753 167.097 124.574L167.555 124.639C167.524 124.818 165.313 142.532 169.415 153.101L168.988 153.297Z" fill="white"/>
</g>
<path id="Vector_10" d="M167.325 153.295H157.381C154.513 152.349 154.757 150.311 154.65 149.087C154.452 146.657 151.752 146.771 150.608 146.526C146.627 145.695 146.933 141.764 148.214 140.231C152.21 135.452 156.664 138.518 157.594 140.818C157.64 140.916 157.67 141.013 157.716 141.111C158.906 143.705 160.721 143.379 160.721 143.379C166.212 141.242 167.188 151.371 167.325 153.295Z" fill="url(#paint4_linear_12_550)"/>
<path id="Vector_11" d="M190.342 140.817C189.274 141.698 186.666 142.986 187.032 145.335C187.032 145.335 187.703 150.766 182.09 153.295H171.185L171.581 152.43C171.581 152.43 172.176 148.238 174.083 144.96C175.166 143.101 176.676 141.535 178.75 141.208C179.619 141.078 180.779 141.208 181.328 138.648C181.328 138.648 181.465 131.194 188.878 133.526C190.54 134.064 195.406 136.674 190.342 140.817Z" fill="url(#paint5_linear_12_550)"/>
<g id="Group_5">
<path id="Vector_12" d="M164.595 153.426C160.508 146.722 152.042 142.253 151.966 142.221L152.164 141.78C152.256 141.829 160.828 146.347 164.977 153.165L164.595 153.426Z" fill="white"/>
</g>
<g id="Group_6">
<path id="Vector_13" d="M176.752 153.361L176.34 153.149C176.599 152.595 182.7 139.432 188.588 136.48L188.786 136.92C183.036 139.791 176.813 153.215 176.752 153.361Z" fill="white"/>
</g>
</g>
<g id="Sand 1">
<path id="Vector_14" d="M61.7767 150.456C61.7767 150.456 85.0066 150.228 91.8246 144.747C100.549 137.734 112.172 121.146 134.837 136.918C138.315 139.332 142.921 144.747 149.937 144.258C156.954 143.769 164.885 142.79 170.986 147.357C177.087 151.924 177.24 150.782 185.171 150.456C193.103 150.13 194.933 153.392 194.933 153.392H55.157L61.7767 150.456Z" fill="url(#paint6_linear_12_550)"/>
<path id="Vector_15" d="M16.9336 153.392H125.838C125.838 153.392 109.365 152.74 99.6034 148.499C99.6034 148.499 70.6995 133.575 50.1846 146.378C50.1846 146.378 41.1092 151.027 34.8556 150.048C34.8556 150.048 22.8059 149.396 16.9336 153.392Z" fill="url(#paint7_linear_12_550)"/>
</g>
<g id="Ball 1">
<path id="Vector_16" d="M82.1391 73.4388C82.1391 73.7487 82.139 74.0586 82.1238 74.3522C81.6815 83.7145 74.4364 91.1684 65.5593 91.1684C64.9644 91.1684 64.3848 91.1358 63.8052 91.0705C63.2409 91.0053 62.6918 90.9237 62.158 90.7932C55.1265 89.2274 49.727 82.8826 49.0406 75.0862C48.9949 74.5479 48.9644 73.9933 48.9644 73.4225C48.9644 72.2481 49.0711 71.0901 49.2694 69.9809C50.0931 65.5281 52.4572 61.6789 55.7671 59.1018C58.5126 56.9488 61.8987 55.6929 65.5441 55.6929C74.711 55.6929 82.1391 63.6361 82.1391 73.4388Z" fill="url(#paint8_linear_12_550)"/>
<g id="Group_7">
<g id="Group_8">
<g id="Group_9">
<path id="Vector_17" d="M74.4058 73.3562C74.6346 73.0136 74.8329 72.7037 74.9701 72.4102L74.4058 73.3562Z" fill="#23887C"/>
</g>
<g id="Group_10">
<path id="Vector_18" d="M78.9055 77.6954C73.6128 83.7303 69.0217 85.4266 65.3001 85.1167L67.7558 82.8496L72.1638 77.1082L74.4059 73.3568C72.5603 76.0481 67.954 80.2399 66.2457 81.6752C65.1627 82.5886 63.8968 83.8282 63.0579 84.6927C59.8853 83.6977 57.5516 81.3653 56.1941 79.669C55.3552 78.6088 54.6689 77.4182 54.1656 76.1459C52.6098 72.1825 52.2895 68.953 52.5793 66.3596L56.8805 61.3685C55.4315 61.6458 54.0283 62.7713 53.1741 63.5868C53.8605 61.499 54.9282 60.0311 55.7671 59.1177C52.4725 61.6947 50.0931 65.5604 49.2694 69.9968C49.0711 71.106 48.9644 72.264 48.9644 73.4384C48.9644 73.9929 48.9949 74.5475 49.0406 75.102C49.7117 82.8985 55.1112 89.2433 62.158 90.8091C62.6918 90.9233 63.2561 91.0212 63.8052 91.0864C64.3848 91.1517 64.9644 91.1843 65.5593 91.1843C74.4364 91.1843 81.6815 83.7303 82.1238 74.3681C81.1934 75.1999 80.1257 76.309 78.9055 77.6954Z" fill="#23887C"/>
</g>
</g>
</g>
<g id="Group_11">
<g id="Group_12">
<path id="Vector_19" d="M63.8052 91.0709C63.7442 87.8087 66.688 85.1012 66.7185 85.0686C72.6671 79.5882 75.5651 74.6135 75.6872 74.4177C77.0447 72.1343 77.4412 69.6714 76.8921 67.1106C76.3888 64.7945 75.0923 62.6904 73.2315 61.1572C68.1523 56.9817 63.3935 58.2377 62.9511 58.3681C57.6127 59.6893 53.1894 63.1798 50.1236 68.4481C49.8185 68.97 49.544 69.4756 49.2999 69.9813C49.1016 71.0904 48.9949 72.2484 48.9949 73.4228C48.9949 73.9774 49.0254 74.5319 49.0711 75.0865C49.4677 73.7653 50.2303 71.645 51.542 69.3778C54.4096 64.4357 58.3905 61.304 63.3629 60.0808L63.4087 60.0644C63.5765 60.0155 67.71 58.8248 72.24 62.5436C73.7958 63.8322 74.8788 65.5774 75.3059 67.5021C75.7634 69.5898 75.4279 71.596 74.3144 73.4717C74.2839 73.5207 71.4164 78.4138 65.6661 83.7148C65.5136 83.8453 62.2647 86.8464 62.1732 90.7936L63.8052 91.0709Z" fill="#FFC6B3"/>
</g>
</g>
</g>
<g id="Woman">
<path id="Vector_20" d="M134.456 43.8025L126.296 52.5287L112.294 50.9791L122.406 38.9746L124.786 36.1528L134.456 43.8025Z" fill="url(#paint9_linear_12_550)"/>
<path id="Vector_21" d="M157.503 5.47174C157.503 5.47174 164.199 4.4931 165.831 8.53812C165.831 8.53812 166.349 9.64724 166.441 12.7789C166.441 12.7789 165.754 21.8965 173.762 22.4511C173.762 22.4511 162.017 28.8448 160.538 19.2216C160.05 16.0899 163.039 9.82666 160.065 8.06512C159.592 7.78784 157.762 7.98357 157.762 7.98357L157.503 5.47174Z" fill="url(#paint10_linear_12_550)"/>
<path id="Vector_22" d="M157.015 4.88525H159.013C159.287 4.88525 159.516 5.1136 159.531 5.4235L159.623 7.83747C159.638 8.14737 159.394 8.42465 159.104 8.42465H157.137L157.015 4.88525Z" fill="#2CC9B8"/>
<path id="Vector_23" d="M144.858 2.92745C144.858 2.92745 148.305 -1.49272 153.293 0.52979C158.281 2.5523 158.982 6.87461 158.723 8.44042C158.723 8.44042 159.028 15.1604 156.039 17.134L150.471 6.4016L144.858 2.92745Z" fill="url(#paint11_linear_12_550)"/>
<path id="Vector_24" d="M147.573 28.8451L147.833 21.6685C147.833 21.6685 139.855 21.6848 144.858 4.59131L155.795 8.2775L155.367 9.6639C155.367 9.6639 158.723 9.76176 155.795 14.3613L156.999 28.6331L147.573 28.8451Z" fill="url(#paint12_linear_12_550)"/>
<path id="Vector_25" d="M142.189 8.44055L144.508 2.6666C144.691 2.19359 145.209 1.98156 145.652 2.19359L158.601 8.57103C158.769 8.65259 158.86 8.81569 158.86 9.01142L158.815 11.0013L153.385 9.81064L142.189 8.44055Z" fill="url(#paint13_linear_12_550)"/>
<path id="Vector_26" d="M139.596 10.0549C142.799 9.89182 152.836 9.56561 158.815 11.0336C158.815 11.0336 142.342 4.05263 139.047 8.99474C138.742 9.43512 139.062 10.0712 139.596 10.0549Z" fill="#23887C"/>
<path id="Vector_27" d="M110.982 73.2741C110.982 73.2741 114.78 79.9777 124.252 81.6904C124.252 81.6904 119.737 72.8011 110.982 73.2741Z" fill="#0A0E1E"/>
<path id="Vector_28" d="M136.271 79.2607L125.685 87.5138L107.336 101.802L80.9492 131.879L67.9844 130.786L94.7224 92.3581L111.256 75.2646L116.961 69.3765L136.271 79.2607Z" fill="url(#paint14_linear_12_550)"/>
<path id="Vector_29" opacity="0.2" d="M136.271 79.2599L125.686 87.4967L124.984 85.5721C122.101 78.1508 115.314 75.9162 111.272 75.2475L116.976 69.3594L136.271 79.2599Z" fill="black"/>
<path id="Vector_30" d="M124.908 56.8184L110.982 73.2594C110.982 73.2594 116.138 73.4388 119.798 75.5755C123.078 77.4839 124.313 81.9203 124.313 81.9203L137.43 65.2346L124.908 56.8184Z" fill="url(#paint15_linear_12_550)"/>
<path id="Vector_31" d="M142.479 91.657C142.479 91.657 131.543 96.7948 123.093 80.7452L125.335 78.5596L142.204 90.2543L142.479 91.657Z" fill="#0A0E1E"/>
<path id="Vector_32" d="M134.822 97.3501L140.801 137.572L128.995 139.595L118.669 95.1808C118.105 92.4896 118.639 89.6678 120.133 87.417L123.092 82.9805L128.568 74.7437L142.997 85.3455L138.437 92.0492L137.689 93.1583L134.822 97.3501Z" fill="url(#paint16_linear_12_550)"/>
<path id="Vector_33" opacity="0.2" d="M142.982 85.3444L138.422 92.048L137.674 93.1571C135.326 90.107 130.46 85.8337 123.062 82.9956L128.538 74.7588L142.982 85.3444Z" fill="black"/>
<path id="Vector_34" d="M128.599 138.811L130.155 145.726L121.461 153.458L143.928 149.103L140.954 136.854L128.599 138.811Z" fill="url(#paint17_linear_12_550)"/>
<path id="Vector_35" d="M133.724 62.9829C133.724 62.9829 131.253 68.1207 129.362 71.546C128.019 73.9762 123.077 80.7451 123.077 80.7451C123.077 80.7451 128.187 81.6748 133.571 84.1703C138.895 86.6332 142.464 91.6569 142.464 91.6569C142.464 91.6569 148 84.1703 149.602 80.9082C150.563 78.951 151.783 76.537 152.515 72.492L133.724 62.9829Z" fill="url(#paint18_linear_12_550)"/>
<path id="Vector_36" d="M68.3201 130.02L63.2714 138.273L53.6775 145.809L76.2363 141.927L82.2001 130.819L68.3201 130.02Z" fill="url(#paint19_linear_12_550)"/>
<path id="Vector_37" opacity="0.2" d="M134.456 43.8025L131.222 47.2603L122.406 38.9746L124.786 36.1528L134.456 43.8025Z" fill="black"/>
<path id="Vector_38" d="M156.755 24.001C156.755 24.001 151.509 29.6118 147.421 24.001L137.186 26.0561C134.349 26.6596 132.29 28.046 130.124 30.1174L123.733 37.3267L133.205 43.7205L121.537 60.4062C121.537 60.4062 126.997 66.5716 131.238 67.5013C135.737 68.4963 152.591 73.5036 152.591 73.5036L161.194 53.0827L173.442 51.207V39.5123L173.427 38.338C173.396 34.505 171.352 31.0308 168.149 29.3182L156.755 24.001Z" fill="url(#paint20_linear_12_550)"/>
<g id="Group_13">
<g id="Group_14">
<path id="Vector_39" d="M154.132 52.902L153.262 51.8581C153.323 51.7929 159.79 45.6275 162.49 41.3867L163.573 42.1696C160.782 46.5572 154.406 52.641 154.132 52.902Z" fill="#0A0E1E"/>
</g>
</g>
<g id="Group_15">
<g id="Group_16">
<path id="Vector_40" d="M154.296 51.0798L140.597 61.209L142.419 64.0262L156.118 53.8971L154.296 51.0798Z" fill="#161C3E"/>
</g>
</g>
<g id="Group_17">
<g id="Group_18">
<path id="Vector_41" d="M154.894 54.73L153.964 53.1479C154.299 52.9195 162.261 47.6186 166.822 45.8896L167.401 47.6512C163.024 49.3149 154.97 54.681 154.894 54.73Z" fill="#161C3E"/>
</g>
</g>
<path id="Vector_42" d="M110.769 57.2902C112.294 62.9826 137.293 55.7244 137.293 55.7244C137.293 55.7244 138.315 59.4595 142.54 58.8397L144.584 58.2199L145.606 59.4595V61.6452C145.606 61.6452 147.07 62.265 148.077 60.5524C148.077 60.5524 149.831 61.3353 150.41 59.1496C150.41 59.1496 152.164 60.0793 152.591 57.7469C152.591 57.7469 154.483 58.2199 154.193 56.3442L151.57 51.7936C151.295 51.3206 150.822 51.0433 150.304 51.0433H143.989L130.689 47.879C130.704 47.879 107.093 43.6546 110.769 57.2902Z" fill="url(#paint21_linear_12_550)"/>
<path id="Vector_43" d="M173.259 54.4692C173.106 60.0475 172.481 69.7686 170.102 70.5352C163.116 72.8023 138.62 71.0082 138.62 71.0082C138.62 71.0082 135.554 71.3181 133.22 70.8451L130.155 68.9694C130.155 68.9694 128.629 67.795 129.712 67.0936C129.712 67.0936 127.821 65.6909 129.423 64.7612C129.423 64.7612 128.263 63.3585 129.865 62.5756C129.865 62.5756 129.85 62.5267 129.834 62.4614C129.667 61.3686 130.917 61.0261 131.817 61.5644L135.249 63.1954L137.217 63.5869C137.217 63.5869 134.014 62.3473 134.593 59.6886L139.261 61.0913L141.67 63.3585L159.303 60.7162L160.081 53.8984L160.325 51.8432L173.305 50.6036C173.305 50.5873 173.32 52.1858 173.259 54.4692Z" fill="url(#paint22_linear_12_550)"/>
<g id="Group_19">
<path id="Vector_44" d="M136.134 65.9992L132.9 64.9064L132.885 64.8901L129.667 62.7044L129.911 62.313L133.083 64.4823L136.271 65.5588L136.134 65.9992Z" fill="#161C3E"/>
</g>
<g id="Group_20">
<path id="Vector_45" d="M135.645 67.8616L131.954 66.7036L129.315 64.9747L129.544 64.5669L132.137 66.2795L135.767 67.4049L135.645 67.8616Z" fill="#161C3E"/>
</g>
<g id="Group_21">
<path id="Vector_46" d="M133.281 69.198L131.07 68.252L129.605 67.306L129.834 66.9146L131.268 67.8279L133.449 68.7576L133.281 69.198Z" fill="#161C3E"/>
</g>
<g id="Group_22">
<path id="Vector_47" d="M150.831 53.6211L150.439 53.8394L152.332 57.732L152.725 57.5138L150.831 53.6211Z" fill="#161C3E"/>
</g>
<g id="Group_23">
<path id="Vector_48" d="M149.318 54.8725L148.894 55.0068L150.06 59.2136L150.484 59.0792L149.318 54.8725Z" fill="#161C3E"/>
</g>
<g id="Group_24">
<path id="Vector_49" d="M147.339 56.2721L146.909 56.3818L147.858 60.6337L148.288 60.524L147.339 56.2721Z" fill="#161C3E"/>
</g>
<g id="Group_25">
<g id="Group_26">
<path id="Vector_50" d="M170.997 30.9833L170.76 31.1631L177.919 41.9106L178.155 41.7309L170.997 30.9833Z" fill="#0A0E1E"/>
</g>
</g>
<g id="Group_27">
<g id="Group_28">
<path id="Vector_51" d="M170.26 32.228L170.024 32.4077L177.182 43.1553L177.418 42.9755L170.26 32.228Z" fill="#0A0E1E"/>
</g>
</g>
<g id="Group_29">
<g id="Group_30">
<path id="Vector_52" d="M169.318 33.0907L169.082 33.2705L176.24 44.018L176.476 43.8383L169.318 33.0907Z" fill="#0A0E1E"/>
</g>
</g>
<g id="Group_31">
<g id="Group_32">
<path id="Vector_53" d="M168.375 34.0372L168.139 34.2178L174.713 44.0293L174.949 43.8488L168.375 34.0372Z" fill="#0A0E1E"/>
</g>
</g>
<g id="Group_33">
<g id="Group_34">
<path id="Vector_54" d="M166.767 34.102L166.531 34.2817L173.689 45.0293L173.925 44.8495L166.767 34.102Z" fill="#0A0E1E"/>
</g>
</g>
<g id="Group_35">
<g id="Group_36">
<path id="Vector_55" d="M165.897 35.1938L165.661 35.3735L172.819 46.1211L173.055 45.9413L165.897 35.1938Z" fill="#0A0E1E"/>
</g>
</g>
<g id="Group_37">
<g id="Group_38">
<path id="Vector_56" d="M165.379 36.5337L165.143 36.7139L171.276 45.9003L171.512 45.7202L165.379 36.5337Z" fill="#0A0E1E"/>
</g>
</g>
<g id="Group_39">
<g id="Group_40">
<path id="Vector_57" d="M164.589 37.5371L164.35 37.7124L170.046 46.5881L170.285 46.4128L164.589 37.5371Z" fill="#0A0E1E"/>
</g>
</g>
<g id="Group_41">
<g id="Group_42">
<path id="Vector_58" d="M163.775 38.5664L163.537 38.7441L168.944 47.0016L169.182 46.8239L163.775 38.5664Z" fill="#0A0E1E"/>
</g>
</g>
<g id="Group_43">
<g id="Group_44">
<path id="Vector_59" d="M163.142 39.9616L162.906 40.1421L167.286 46.6787L167.521 46.4982L163.142 39.9616Z" fill="#0A0E1E"/>
</g>
</g>
<g id="Group_45">
<g id="Group_46">
<path id="Vector_60" d="M162.853 41.8408L162.616 42.0205L165.827 46.8441L166.063 46.6644L162.853 41.8408Z" fill="#0A0E1E"/>
</g>
</g>
<g id="Group_47">
<g id="Group_48">
<path id="Vector_61" d="M184.551 26.2038L184.315 26.3833L186.797 30.1196L187.034 29.9401L184.551 26.2038Z" fill="#0A0E1E"/>
</g>
</g>
<g id="Group_49">
<g id="Group_50">
<path id="Vector_62" d="M182.512 25.5108L182.277 25.6919L186.368 31.7672L186.603 31.5861L182.512 25.5108Z" fill="#0A0E1E"/>
</g>
</g>
<g id="Group_51">
<g id="Group_52">
<path id="Vector_63" d="M181.202 25.7478L180.965 25.9263L185.786 33.2475L186.023 33.069L181.202 25.7478Z" fill="#0A0E1E"/>
</g>
</g>
<g id="Group_53">
<g id="Group_54">
<path id="Vector_64" d="M179.627 25.8074L179.392 25.9883L184.94 34.2384L185.175 34.0575L179.627 25.8074Z" fill="#0A0E1E"/>
</g>
</g>
<g id="Group_55">
<g id="Group_56">
<path id="Vector_65" d="M178.567 26.6758L178.331 26.8555L184.024 35.4152L184.261 35.2355L178.567 26.6758Z" fill="#0A0E1E"/>
</g>
</g>
<g id="Group_57">
<g id="Group_58">
<path id="Vector_66" d="M177.129 26.8589L176.893 27.0386L183.323 36.6991L183.56 36.5194L177.129 26.8589Z" fill="#0A0E1E"/>
</g>
</g>
<g id="Group_59">
<g id="Group_60">
<path id="Vector_67" d="M176.264 27.8013L176.028 27.981L182.458 37.6415L182.695 37.4618L176.264 27.8013Z" fill="#0A0E1E"/>
</g>
</g>
<g id="Group_61">
<g id="Group_62">
<path id="Vector_68" d="M175.354 28.7444L175.118 28.9233L181.396 38.4188L181.633 38.2399L175.354 28.7444Z" fill="#0A0E1E"/>
</g>
</g>
<g id="Group_63">
<g id="Group_64">
<path id="Vector_69" d="M174.435 29.6544L174.199 29.8345L180.696 39.564L180.931 39.3839L174.435 29.6544Z" fill="#0A0E1E"/>
</g>
</g>
<g id="Group_65">
<g id="Group_66">
<path id="Vector_70" d="M172.959 29.6488L172.723 29.8286L179.881 40.5762L180.117 40.3963L172.959 29.6488Z" fill="#0A0E1E"/>
</g>
</g>
<g id="Group_67">
<g id="Group_68">
<path id="Vector_71" d="M172.016 30.5107L171.78 30.6904L178.938 41.438L179.174 41.2582L172.016 30.5107Z" fill="#0A0E1E"/>
</g>
</g>
<path id="Vector_72" opacity="0.2" d="M173.259 54.4692L160.096 53.8984L160.34 51.8432L173.32 50.6036C173.305 50.5873 173.32 52.1858 173.259 54.4692Z" fill="black"/>
<g id="Group_69">
<path id="Vector_73" d="M166.654 47.7007C164.839 47.7007 163.467 47.0972 162.658 45.9392C161.468 44.2265 161.728 41.6169 163.39 38.5668C164.916 35.7614 167.493 32.8418 170.635 30.3462C173.777 27.8507 177.133 26.0403 180.077 25.29C183.28 24.4581 185.69 24.9474 186.88 26.6601C188.069 28.3727 187.81 30.9824 186.147 34.0324C184.622 36.8379 182.044 39.7574 178.902 42.253C175.76 44.7485 172.405 46.559 169.461 47.3092C168.439 47.5702 167.509 47.7007 166.654 47.7007ZM182.883 26.7579C182.182 26.7579 181.373 26.8721 180.473 27.1004C177.743 27.8018 174.616 29.4818 171.657 31.8468C168.698 34.1955 166.304 36.9194 164.885 39.5128C163.619 41.8289 163.314 43.7699 164.046 44.83C164.778 45.8902 166.609 46.1349 169.049 45.4988C171.779 44.7974 174.906 43.1174 177.865 40.7524C180.824 38.4037 183.219 35.6798 184.637 33.0864C185.903 30.7703 186.208 28.8294 185.476 27.7692C185.003 27.1004 184.104 26.7579 182.883 26.7579Z" fill="#161C3E"/>
</g>
</g>
</g>
<defs>
<linearGradient id="paint0_linear_12_550" x1="46.2675" y1="151.805" x2="30.1261" y2="112.48" gradientUnits="userSpaceOnUse">
<stop stop-color="#90BFA5"/>
<stop offset="1" stop-color="#C4DFCC"/>
</linearGradient>
<linearGradient id="paint1_linear_12_550" x1="16.8701" y1="141.516" x2="43.022" y2="141.516" gradientUnits="userSpaceOnUse">
<stop stop-color="#90BFA5"/>
<stop offset="1" stop-color="#C4DFCC"/>
</linearGradient>
<linearGradient id="paint2_linear_12_550" x1="48.0945" y1="138.5" x2="76.2666" y2="138.5" gradientUnits="userSpaceOnUse">
<stop stop-color="#90BFA5"/>
<stop offset="1" stop-color="#C4DFCC"/>
</linearGradient>
<linearGradient id="paint3_linear_12_550" x1="172.837" y1="153.54" x2="162.656" y2="122.037" gradientUnits="userSpaceOnUse">
<stop stop-color="#90BFA5"/>
<stop offset="1" stop-color="#C4DFCC"/>
</linearGradient>
<linearGradient id="paint4_linear_12_550" x1="147.344" y1="145.504" x2="167.323" y2="145.504" gradientUnits="userSpaceOnUse">
<stop stop-color="#90BFA5"/>
<stop offset="1" stop-color="#C4DFCC"/>
</linearGradient>
<linearGradient id="paint5_linear_12_550" x1="182.826" y1="151.32" x2="179.807" y2="134.24" gradientUnits="userSpaceOnUse">
<stop stop-color="#90BFA5"/>
<stop offset="1" stop-color="#C4DFCC"/>
</linearGradient>
<linearGradient id="paint6_linear_12_550" x1="55.1516" y1="141.86" x2="194.933" y2="141.86" gradientUnits="userSpaceOnUse">
<stop stop-color="#F7A06A"/>
<stop offset="1" stop-color="#FFD18F"/>
</linearGradient>
<linearGradient id="paint7_linear_12_550" x1="16.9336" y1="147.291" x2="125.838" y2="147.291" gradientUnits="userSpaceOnUse">
<stop stop-color="#F7A06A"/>
<stop offset="1" stop-color="#FFD18F"/>
</linearGradient>
<linearGradient id="paint8_linear_12_550" x1="48.9644" y1="73.4306" x2="82.1391" y2="73.4306" gradientUnits="userSpaceOnUse">
<stop stop-color="#3BACA0"/>
<stop offset="1" stop-color="#58C6B6"/>
</linearGradient>
<linearGradient id="paint9_linear_12_550" x1="122.514" y1="48.5652" x2="131.805" y2="37.4794" gradientUnits="userSpaceOnUse">
<stop stop-color="#ED6263"/>
<stop offset="1" stop-color="#FFA9A9"/>
</linearGradient>
<linearGradient id="paint10_linear_12_550" x1="172.707" y1="23.6672" x2="155.59" y2="9.60753" gradientUnits="userSpaceOnUse">
<stop stop-color="#002452"/>
<stop offset="1" stop-color="#001328"/>
</linearGradient>
<linearGradient id="paint11_linear_12_550" x1="144.858" y1="8.57202" x2="158.765" y2="8.57202" gradientUnits="userSpaceOnUse">
<stop stop-color="#002452"/>
<stop offset="1" stop-color="#001328"/>
</linearGradient>
<linearGradient id="paint12_linear_12_550" x1="159.096" y1="23.0817" x2="141.967" y2="13.9286" gradientUnits="userSpaceOnUse">
<stop stop-color="#ED6263"/>
<stop offset="1" stop-color="#FFA9A9"/>
</linearGradient>
<linearGradient id="paint13_linear_12_550" x1="142.189" y1="6.57667" x2="158.858" y2="6.57667" gradientUnits="userSpaceOnUse">
<stop stop-color="#3BACA0"/>
<stop offset="1" stop-color="#58C6B6"/>
</linearGradient>
<linearGradient id="paint14_linear_12_550" x1="125.231" y1="99.3675" x2="96.2649" y2="100.58" gradientUnits="userSpaceOnUse">
<stop stop-color="#ED6263"/>
<stop offset="1" stop-color="#FFA9A9"/>
</linearGradient>
<linearGradient id="paint15_linear_12_550" x1="107.935" y1="75.37" x2="132.298" y2="67.7065" gradientUnits="userSpaceOnUse">
<stop stop-color="#002452"/>
<stop offset="1" stop-color="#001328"/>
</linearGradient>
<linearGradient id="paint16_linear_12_550" x1="139.889" y1="107.433" x2="119.769" y2="107.023" gradientUnits="userSpaceOnUse">
<stop stop-color="#ED6263"/>
<stop offset="1" stop-color="#FFA9A9"/>
</linearGradient>
<linearGradient id="paint17_linear_12_550" x1="121.459" y1="145.154" x2="143.931" y2="145.154" gradientUnits="userSpaceOnUse">
<stop stop-color="#002452"/>
<stop offset="1" stop-color="#001328"/>
</linearGradient>
<linearGradient id="paint18_linear_12_550" x1="137.074" y1="63.6162" x2="138.823" y2="90.7258" gradientUnits="userSpaceOnUse">
<stop stop-color="#404AA9"/>
<stop offset="1" stop-color="#7284D3"/>
</linearGradient>
<linearGradient id="paint19_linear_12_550" x1="53.6822" y1="137.91" x2="82.2031" y2="137.91" gradientUnits="userSpaceOnUse">
<stop stop-color="#002452"/>
<stop offset="1" stop-color="#001328"/>
</linearGradient>
<linearGradient id="paint20_linear_12_550" x1="121.553" y1="48.7532" x2="173.451" y2="48.7532" gradientUnits="userSpaceOnUse">
<stop stop-color="#3BACA0"/>
<stop offset="1" stop-color="#58C6B6"/>
</linearGradient>
<linearGradient id="paint21_linear_12_550" x1="110.898" y1="75.1479" x2="131.144" y2="58.149" gradientUnits="userSpaceOnUse">
<stop stop-color="#ED6263"/>
<stop offset="1" stop-color="#FFA9A9"/>
</linearGradient>
<linearGradient id="paint22_linear_12_550" x1="171.925" y1="51.6305" x2="140.168" y2="70.0345" gradientUnits="userSpaceOnUse">
<stop stop-color="#ED6263"/>
<stop offset="1" stop-color="#FFA9A9"/>
</linearGradient>
</defs>
</svg>
