<svg width="221" height="180" viewBox="0 0 221 180" fill="none" xmlns="http://www.w3.org/2000/svg">
<path d="M205.152 179.718H16.4318C16.4318 179.718 -1.71015 178.793 0.131259 152.763C0.131259 152.763 10.123 68.481 78.7196 54.2294C78.7196 54.2294 102.113 49.265 117.357 74.0683C117.357 74.0683 132.345 95.7571 156.251 88.0178C156.251 88.0178 200.141 72.2185 214.344 145.647C214.36 145.628 219.355 170.733 205.152 179.718Z" fill="#E6F0F5"/>
<path d="M180.462 179.718H94.0913C94.0913 179.718 108.694 144.551 119.134 149.157C119.134 149.157 126.564 155.009 122.673 163.975C122.673 163.975 141.263 146.439 137.356 167.939C137.356 167.939 148.869 159.388 149.398 166.278C149.398 166.278 177.723 149.591 170.822 169.204C170.822 169.185 187.283 165.013 180.462 179.718Z" fill="url(#paint0_linear_158_1755)"/>
<path d="M49.0007 179.718H119.599C119.599 179.718 118.078 160.351 104.9 164.051C104.9 164.051 109.655 140.852 93.1145 151.555C93.1145 151.555 97.5499 128.733 82.1941 141.229C82.1941 141.229 86.0851 105.025 62.1948 149.894C62.1948 149.894 54.8452 138.681 49.0007 179.718Z" fill="url(#paint1_linear_158_1755)"/>
<path d="M182.559 170.299C182.543 170.658 182.495 171.016 182.447 171.394C182.447 171.394 181.967 176.906 180.542 179.643H173.64L167.459 170.525C167.459 170.525 166.146 168.411 165.906 165.976C165.842 165.372 165.858 164.749 165.97 164.126C165.97 164.126 166.307 161.087 163.729 158.388C161.487 156.047 159.501 150.234 165.97 144.495C167.572 143.061 172.359 140.456 173.993 146.288C174.809 149.214 174.825 149.648 174.393 155.934C174.281 157.595 175.482 160.823 178.06 161.484C180.285 162.05 182.895 165.335 182.559 170.299Z" fill="url(#paint2_linear_158_1755)"/>
<path d="M176.651 180C169.958 169.693 167.54 148.609 167.524 148.382L168.004 148.307C168.02 148.514 170.422 169.448 177.035 179.641L176.651 180Z" fill="white"/>
<path d="M175.69 179.642H165.57C162.656 178.585 162.896 176.301 162.8 174.923C162.592 172.205 159.854 172.318 158.685 172.054C154.634 171.129 155.21 166.448 156.251 164.994C160.206 159.539 164.833 163.069 165.794 165.655C165.842 165.768 165.874 165.881 165.922 165.976C167.139 168.883 168.981 168.524 168.981 168.524C174.569 166.127 175.546 177.49 175.69 179.642Z" fill="url(#paint3_linear_158_1755)"/>
<path d="M199.1 165.655C198.011 166.636 195.353 168.09 195.737 170.732C195.737 170.732 196.426 176.811 190.709 179.642H179.613L180.013 178.66C180.013 178.66 180.622 173.96 182.559 170.298C183.664 168.203 185.201 166.447 187.299 166.089C188.179 165.938 189.364 166.089 189.925 163.22C189.925 163.22 190.069 154.857 197.595 157.481C199.292 158.085 204.24 160.992 199.1 165.655Z" fill="url(#paint4_linear_158_1755)"/>
<path d="M172.92 179.794C168.773 172.281 160.158 167.279 160.078 167.222L160.286 166.712C160.366 166.769 169.093 171.828 173.32 179.473L172.92 179.794Z" fill="white"/>
<path d="M185.281 179.718L184.849 179.473C185.105 178.85 191.318 164.089 197.306 160.786L197.515 161.295C191.67 164.504 185.345 179.567 185.281 179.718Z" fill="white"/>
<path d="M52.3154 171.922C52.1873 172.319 52.0592 172.734 51.899 173.149C51.899 173.149 50.7622 176.679 49.193 179.548H39.9699L39.6657 179.454L33.7891 168.392C33.7891 168.392 32.4921 166.712 32.9885 163.862C32.9885 163.862 33.3087 162.541 34.8779 158.841C35.5825 157.161 36.0469 155.481 33.7891 151.442C33.613 151.14 33.4529 150.8 33.3088 150.46C31.7556 146.704 31.8196 140.191 39.9699 136.303C42.1956 135.246 48.3603 133.962 48.7286 141.248C48.8887 144.533 48.8406 145.269 47.2875 150.46C47.1113 151.064 46.9032 151.744 46.679 152.48C46.1026 154.348 46.663 158.482 49.4651 160.162C51.851 161.616 53.9806 166.335 52.3154 171.922Z" fill="url(#paint5_linear_158_1755)"/>
<path d="M43.0441 179.586C38.0323 165.353 40.7384 141.588 40.7704 141.343L41.2508 141.418C41.2188 141.664 38.5287 165.278 43.4925 179.359L43.0441 179.586Z" fill="white"/>
<path d="M40.9945 179.604H28.9693C25.5107 178.339 25.7989 175.621 25.6708 173.998C25.4306 170.77 22.1801 170.902 20.7711 170.581C15.9514 169.468 16.3357 164.239 17.8728 162.2C22.6925 155.839 28.0726 159.916 29.2095 162.993C29.2575 163.125 29.3055 163.257 29.3536 163.37C30.7947 166.844 32.9884 166.391 32.9884 166.391C39.6495 163.54 40.8184 177.037 40.9945 179.604Z" fill="url(#paint6_linear_158_1755)"/>
<path d="M68.808 162.994C67.527 164.164 64.3566 165.882 64.8049 169.016C64.8049 169.016 65.6215 176.245 58.8323 179.605H45.6382L46.1186 178.454C46.1186 178.454 46.8391 172.866 49.1449 168.506C50.4579 166.033 52.2833 163.938 54.7812 163.504C55.838 163.315 57.2311 163.504 57.8876 160.087C57.8876 160.087 58.0477 150.158 66.9985 153.273C69.0481 153.99 74.9247 157.463 68.808 162.994Z" fill="url(#paint7_linear_158_1755)"/>
<path d="M37.7281 179.755C32.7803 170.808 22.5485 164.862 22.4524 164.806L22.6605 164.296C22.7566 164.353 33.1166 170.374 38.1284 179.453L37.7281 179.755Z" fill="white"/>
<path d="M52.3473 179.661L51.915 179.415C52.2193 178.679 59.6009 161.143 66.7104 157.217L66.9185 157.726C59.9532 161.577 52.4114 179.491 52.3473 179.661Z" fill="white"/>
<path d="M177.659 120.484H220.364C220.364 120.484 218.491 112.141 212.79 114.803C212.79 114.803 211.894 106.724 205.793 104.704C204.24 104.194 202.607 104.194 201.021 104.628C198.379 105.364 193.432 107.497 190.245 113.538C190.245 113.538 186.21 109.593 182.479 116.785C182.479 116.785 178.044 116.086 177.659 120.843" fill="url(#paint8_linear_158_1755)"/>
<path d="M6.24805 73.4452H62.339C62.339 73.4452 59.8892 62.4781 52.3955 65.9891C52.3955 65.9891 51.2105 55.3807 43.2043 52.7191C41.1708 52.0396 39.0092 52.0396 36.9436 52.6059C33.4689 53.5685 26.9839 56.3811 22.7887 64.3091C22.7887 64.3091 17.4887 59.137 12.5729 68.5751C12.5729 68.5751 6.76044 67.6691 6.24805 73.8982" fill="url(#paint9_linear_158_1755)"/>
<path d="M74.9407 94.3972C74.9407 94.3972 79.7444 111.008 87.2701 113.462L88.7112 111.008L76.8621 93.2646L74.9407 94.3972Z" fill="#0A0E1E"/>
<path d="M220.62 30.1051L216.649 41.6573L210.421 55.0783L186.85 92.0945C183.808 96.8702 177.643 96.6059 174.905 91.566L163.12 69.8961L154.362 53.7947L165.474 36.9571L171.639 50.3403L181.743 72.2745C181.887 72.1046 206.113 46.735 206.113 46.735C206.113 46.735 207.01 40.1661 203.615 37.1836C203.615 37.1836 207.298 33.1819 209.22 40.6946L212.054 37.58C212.054 37.58 212.95 29.6709 215.737 29.5199C215.737 29.5199 216.409 26.9716 219.099 27.3491C219.099 27.3491 219.307 27.1415 219.708 27.066C221.149 26.764 221.277 28.5761 220.62 30.1051Z" fill="url(#paint10_linear_158_1755)"/>
<path opacity="0.2" d="M171.639 50.3404C170.774 59.1178 166.147 66.1587 163.12 69.915L154.362 53.8136L165.474 36.9761L171.639 50.3404Z" fill="black"/>
<path d="M165.298 50.7935L173.705 45.1118C173.705 45.1118 182.095 57.0038 189.477 32.88L176.186 20.2329L168.661 31.1245L160.398 38.3163L165.298 50.7935Z" fill="url(#paint11_linear_158_1755)"/>
<path d="M144.274 134.321L98.3186 147.156L92.394 131.678L126.82 117.332L125.956 116.388L122.657 112.802L140.751 103.175C140.751 103.175 141.952 105.289 143.505 108.404C145.555 112.537 148.213 118.427 149.398 123.372C151.479 132.055 144.274 134.321 144.274 134.321Z" fill="url(#paint12_linear_158_1755)"/>
<path d="M89.0474 110.235L84.2117 114.18L76.3657 120.579C75.9974 120.881 75.6291 121.145 75.2448 121.391L30.1062 150.649L22.4844 135.755L64.6127 104.893L73.9638 95.8321L78.9597 90.981L89.0474 110.235Z" fill="url(#paint13_linear_158_1755)"/>
<path opacity="0.2" d="M89.0472 110.235L84.2115 114.18C81.5695 105.214 76.0132 98.2105 73.9636 95.8321L78.9595 90.981L89.0472 110.235Z" fill="black"/>
<path opacity="0.2" d="M143.505 108.404C140.735 110.631 134.442 114.935 125.956 116.407L122.657 112.821L140.751 103.194C140.751 103.175 141.952 105.289 143.505 108.404Z" fill="black"/>
<path d="M168.212 50.9822L144.514 65.8944L142.865 62.4966L132.985 42.1103L138.781 35.9944L142.112 32.4835L142.16 32.4268L142.048 32.2192L133.001 15.4572L108.278 18.4018L105.988 22.4036L100.256 32.1815C98.2064 28.595 101.617 23.9892 101.617 23.9892L97.758 23.2341L88.6631 26.9527C88.551 27.0094 88.4229 27.0282 88.3108 27.0282C87.9265 27.0282 87.5582 26.7829 87.35 26.3676C87.0458 25.7069 87.27 24.8952 87.8464 24.5743L93.6909 21.422L84.8681 22.5923C84.2757 22.6678 83.7313 22.2148 83.5872 21.5353C83.427 20.7614 83.8914 19.9874 84.5639 19.8364L93.0184 17.9677L85.3485 17.3448C84.7881 17.307 84.3077 16.7785 84.2917 16.1178C84.2597 15.4194 84.708 14.8342 85.2845 14.7776L93.0023 13.9659L87.6703 12.6257C87.1899 12.5125 86.8856 11.9462 86.9977 11.3799C87.0938 10.8891 87.5102 10.5682 87.9425 10.5871L93.1785 11.0023L99.023 10.0019L104.964 9.58663L135.835 0.375059C139.678 -0.77639 143.745 0.771454 146.291 4.35793L162.271 26.8395L164.913 30.2372C172.599 36.6551 164.193 51.1898 164.193 51.1898L168.212 50.9822Z" fill="url(#paint14_linear_158_1755)"/>
<path d="M109.047 96.946L87.2701 113.368C87.2701 113.368 85.829 107.422 82.1462 101.759C79.9845 98.4373 74.9407 94.3034 74.9407 94.3034L89.0315 80.9013C89.0315 80.9013 94.3155 64.1958 108.566 61.27L109.047 96.946Z" fill="url(#paint15_linear_158_1755)"/>
<path d="M166.21 31.4457L165.57 30.8794C165.57 30.8794 169.253 37.6748 164.129 45.4141C164.129 45.4141 152.6 60.7038 143.473 52.7758C143.473 52.7758 134.682 46.1314 137.484 37.3728C137.484 37.3728 133.706 37.2973 123.778 48.623L108.566 61.2701C108.566 61.2701 95.8205 64.8754 96.6051 79.6933C96.8133 83.5629 97.9342 87.2815 99.7756 90.5093C102.994 96.1533 110.456 107.045 123.618 115.067C123.618 115.067 137.869 109.782 142.512 104.497C142.512 104.497 134.346 88.8293 126.82 80.1463L147.316 70.5194C147.316 70.5194 171.174 63.3465 168.772 48.4343L166.21 49.9444C166.21 49.9444 172.776 37.958 166.21 31.4457Z" fill="url(#paint16_linear_158_1755)"/>
<path d="M31.8355 150.289L24.3578 154.933L25.5107 171.506L9.5144 143.664L22.6765 135.415L31.8355 150.289Z" fill="url(#paint17_linear_158_1755)"/>
<path d="M100.64 147.44L92.554 150.346L91.0489 166.901L79.7603 136.019L93.9952 130.81L100.64 147.44Z" fill="url(#paint18_linear_158_1755)"/>
<path d="M179.165 34.3144C179.165 34.3144 180.926 30.0295 178.893 28.5761C178.14 28.0287 175.946 28.0286 175.61 30.8034C175.61 30.8034 173.448 32.6156 170.358 32.4834C169.798 32.4646 167.972 31.936 167.972 31.936C167.972 31.936 168.148 22.3658 176.186 17.911C176.186 17.911 181.759 14.0603 190.245 27.368C190.822 28.2552 191.19 29.3311 191.254 30.4448C191.318 31.6717 191.046 32.9931 189.557 33.2007C188.9 33.2951 188.228 33.1064 187.635 32.7288L186.274 31.8228C185.826 32.9742 184.913 33.767 183.856 33.9369L181.294 34.3333L180.302 36.1832L179.165 34.3144Z" fill="url(#paint19_linear_158_1755)"/>
<path d="M215.483 29.4014L214.521 36.3887L214.995 36.4794L215.957 29.4921L215.483 29.4014Z" fill="#161C3E"/>
<path d="M218.862 27.2675L217.103 35.7573L217.57 35.8917L219.329 27.4019L218.862 27.2675Z" fill="#161C3E"/>
<path d="M206.449 46.7726L206.033 46.5084C206.145 46.263 208.819 40.5812 211.846 37.561L212.15 37.9952C209.188 40.9399 206.481 46.716 206.449 46.7726Z" fill="#161C3E"/>
<path opacity="0.2" d="M154.842 43.9984C154.842 43.9984 147.316 46.2258 138.781 35.9949L142.112 32.4839C145.074 36.8443 150.198 43.3755 154.842 43.9984Z" fill="black"/>
<defs>
<linearGradient id="paint0_linear_158_1755" x1="105.693" y1="188.175" x2="161.741" y2="165.354" gradientUnits="userSpaceOnUse">
<stop stop-color="#9DCEF3"/>
<stop offset="1" stop-color="#DDEFFD"/>
</linearGradient>
<linearGradient id="paint1_linear_158_1755" x1="54.8849" y1="153.126" x2="117.042" y2="155.3" gradientUnits="userSpaceOnUse">
<stop stop-color="#9DCEF3"/>
<stop offset="1" stop-color="#DDEFFD"/>
</linearGradient>
<linearGradient id="paint2_linear_158_1755" x1="178.194" y1="179.645" x2="163.495" y2="147.16" gradientUnits="userSpaceOnUse">
<stop stop-color="#90BFA5"/>
<stop offset="1" stop-color="#C4DFCC"/>
</linearGradient>
<linearGradient id="paint3_linear_158_1755" x1="155.482" y1="170.881" x2="175.687" y2="170.881" gradientUnits="userSpaceOnUse">
<stop stop-color="#90BFA5"/>
<stop offset="1" stop-color="#C4DFCC"/>
</linearGradient>
<linearGradient id="paint4_linear_158_1755" x1="179.606" y1="168.312" x2="201.371" y2="168.312" gradientUnits="userSpaceOnUse">
<stop stop-color="#90BFA5"/>
<stop offset="1" stop-color="#C4DFCC"/>
</linearGradient>
<linearGradient id="paint5_linear_158_1755" x1="47.6521" y1="179.931" x2="32.9985" y2="138.801" gradientUnits="userSpaceOnUse">
<stop stop-color="#90BFA5"/>
<stop offset="1" stop-color="#C4DFCC"/>
</linearGradient>
<linearGradient id="paint6_linear_158_1755" x1="16.8457" y1="169.224" x2="40.9877" y2="169.224" gradientUnits="userSpaceOnUse">
<stop stop-color="#90BFA5"/>
<stop offset="1" stop-color="#C4DFCC"/>
</linearGradient>
<linearGradient id="paint7_linear_158_1755" x1="59.7227" y1="176.974" x2="55.3178" y2="154.368" gradientUnits="userSpaceOnUse">
<stop stop-color="#90BFA5"/>
<stop offset="1" stop-color="#C4DFCC"/>
</linearGradient>
<linearGradient id="paint8_linear_158_1755" x1="177.659" y1="112.558" x2="220.36" y2="112.558" gradientUnits="userSpaceOnUse">
<stop stop-color="#9DCEF3"/>
<stop offset="1" stop-color="#DDEFFD"/>
</linearGradient>
<linearGradient id="paint9_linear_158_1755" x1="65.4877" y1="62.4352" x2="5.15962" y2="63.5853" gradientUnits="userSpaceOnUse">
<stop stop-color="#9DCEF3"/>
<stop offset="1" stop-color="#DDEFFD"/>
</linearGradient>
<linearGradient id="paint10_linear_158_1755" x1="154.362" y1="61.2759" x2="221.002" y2="61.2759" gradientUnits="userSpaceOnUse">
<stop stop-color="#ED6263"/>
<stop offset="1" stop-color="#FFA9A9"/>
</linearGradient>
<linearGradient id="paint11_linear_158_1755" x1="160.393" y1="35.5185" x2="189.472" y2="35.5185" gradientUnits="userSpaceOnUse">
<stop stop-color="#ED6263"/>
<stop offset="1" stop-color="#FFA9A9"/>
</linearGradient>
<linearGradient id="paint12_linear_158_1755" x1="151.807" y1="106.53" x2="89.6271" y2="142.29" gradientUnits="userSpaceOnUse">
<stop stop-color="#ED6263"/>
<stop offset="1" stop-color="#FFA9A9"/>
</linearGradient>
<linearGradient id="paint13_linear_158_1755" x1="91.6327" y1="95.793" x2="21.906" y2="131.704" gradientUnits="userSpaceOnUse">
<stop stop-color="#ED6263"/>
<stop offset="0.1935" stop-color="#F07071"/>
<stop offset="1" stop-color="#FFA9A9"/>
</linearGradient>
<linearGradient id="paint14_linear_158_1755" x1="163.685" y1="39.2174" x2="90.4445" y2="23.8925" gradientUnits="userSpaceOnUse">
<stop stop-color="#ED6263"/>
<stop offset="1" stop-color="#FFA9A9"/>
</linearGradient>
<linearGradient id="paint15_linear_158_1755" x1="74.9407" y1="87.3192" x2="109.047" y2="87.3192" gradientUnits="userSpaceOnUse">
<stop stop-color="#002452"/>
<stop offset="1" stop-color="#001328"/>
</linearGradient>
<linearGradient id="paint16_linear_158_1755" x1="96.5636" y1="72.9733" x2="169.128" y2="72.9733" gradientUnits="userSpaceOnUse">
<stop stop-color="#404AA9"/>
<stop offset="1" stop-color="#7284D3"/>
</linearGradient>
<linearGradient id="paint17_linear_158_1755" x1="9.52041" y1="153.458" x2="31.8403" y2="153.458" gradientUnits="userSpaceOnUse">
<stop stop-color="#002452"/>
<stop offset="1" stop-color="#001328"/>
</linearGradient>
<linearGradient id="paint18_linear_158_1755" x1="79.7585" y1="148.849" x2="100.632" y2="148.849" gradientUnits="userSpaceOnUse">
<stop stop-color="#002452"/>
<stop offset="1" stop-color="#001328"/>
</linearGradient>
<linearGradient id="paint19_linear_158_1755" x1="190.461" y1="32.7131" x2="169.428" y2="25.3495" gradientUnits="userSpaceOnUse">
<stop stop-color="#002452"/>
<stop offset="1" stop-color="#001328"/>
</linearGradient>
</defs>
</svg>
