<svg width="331" height="339" viewBox="0 0 331 339" fill="none" xmlns="http://www.w3.org/2000/svg">
<g filter="url(#filter0_d_34_1956)">
<path d="M311.907 330.425H28.662C28.662 330.425 1.43328 328.549 4.197 275.75C4.197 275.75 19.1932 104.796 122.148 75.8883C122.148 75.8883 157.259 65.8187 180.138 116.129C180.138 116.129 202.632 160.121 238.513 144.423C238.513 144.423 304.385 112.377 325.702 261.316C325.726 261.278 333.224 312.2 311.907 330.425Z" fill="#E6F0F5"/>
<path d="M91.2422 307.683C91.1942 308.563 91.1221 309.444 91.026 310.325C91.026 310.325 90.1608 323.61 87.6374 330.196H75.3328L64.326 308.219C64.326 308.219 61.9708 303.126 61.5382 297.268C61.4421 295.813 61.4421 294.282 61.6344 292.789C61.6344 292.789 62.2352 285.476 57.621 278.967C53.6076 273.3 50.0988 259.325 61.6344 245.465C64.4942 242.019 73.0497 235.702 75.9576 249.792C77.4236 256.875 77.4477 257.87 76.6546 273.032C76.4383 277.053 78.5772 284.787 83.2155 286.395C87.1808 287.773 91.819 295.699 91.2422 307.683Z" fill="url(#paint0_linear_34_1956)"/>
<path d="M80.7402 331C68.7962 306.189 64.5184 255.382 64.4703 254.846L65.1913 254.692C65.2394 255.19 69.4931 305.692 81.317 330.272L80.7402 331Z" fill="white"/>
<path d="M78.9858 330.196H60.9375C55.7465 327.63 56.1791 322.117 55.9869 318.824C55.6264 312.277 50.7478 312.545 48.6329 311.894C41.3992 309.635 42.4326 298.378 44.2831 294.894C51.3246 281.723 59.5917 290.261 61.298 296.502C61.3701 296.77 61.4422 297.038 61.5143 297.268C63.6772 304.313 66.9696 303.394 66.9696 303.394C76.9671 297.613 78.7215 324.988 78.9858 330.196Z" fill="url(#paint1_linear_34_1956)"/>
<path d="M120.73 296.503C118.807 298.876 114.049 302.361 114.722 308.716C114.722 308.716 115.948 323.381 105.758 330.196H85.9552L86.6762 327.86C86.6762 327.86 87.7576 316.527 91.2183 307.683C93.1889 302.667 95.9287 298.417 99.6777 297.536C101.264 297.153 103.355 297.536 104.34 290.606C104.34 290.606 104.58 270.467 118.014 276.784C121.09 278.239 129.91 285.284 120.73 296.503Z" fill="url(#paint2_linear_34_1956)"/>
<path d="M74.0832 330.502C66.6572 312.353 51.3004 300.293 51.1562 300.178L51.4687 299.144C51.6129 299.259 67.1618 311.473 74.684 329.889L74.0832 330.502Z" fill="white"/>
<path d="M96.0246 330.31L95.3757 329.812C95.8323 328.319 106.911 292.75 117.582 284.786L117.894 285.82C107.44 293.631 96.1207 329.966 96.0246 330.31Z" fill="white"/>
<path d="M289.654 316.527C289.509 317.216 289.317 317.943 289.125 318.633C289.125 318.633 287.659 324.759 285.664 329.698H273.84L273.456 329.545L265.934 310.439C265.934 310.439 264.275 307.529 264.9 302.59C264.9 302.59 265.309 300.293 267.304 293.899C268.217 290.989 268.818 288.079 265.91 281.111C265.693 280.575 265.477 280 265.285 279.388C263.29 272.879 263.386 261.622 273.816 254.884C276.652 253.046 284.559 250.825 285.039 263.46C285.256 269.127 285.184 270.428 283.189 279.388C282.949 280.421 282.708 281.608 282.42 282.872C281.699 286.126 282.396 293.248 285.977 296.196C289.053 298.685 291.817 306.802 289.654 316.527Z" fill="url(#paint3_linear_34_1956)"/>
<path d="M277.733 329.813C271.293 305.117 274.777 263.958 274.801 263.537L275.522 263.69C275.498 264.111 272.038 304.964 278.406 329.353L277.733 329.813Z" fill="white"/>
<path d="M275.162 329.813H259.757C255.335 327.63 255.696 322.921 255.528 320.088C255.215 314.498 251.058 314.727 249.255 314.191C243.079 312.277 243.559 303.203 245.554 299.68C251.73 288.653 258.628 295.737 260.094 301.059C260.166 301.288 260.214 301.518 260.286 301.71C262.136 307.721 264.924 306.955 264.924 306.955C273.456 302.016 274.946 325.371 275.162 329.813Z" fill="url(#paint4_linear_34_1956)"/>
<path d="M310.802 301.02C309.144 303.05 305.106 305.998 305.683 311.473C305.683 311.473 306.741 323.993 298.041 329.813H281.146L281.771 327.822C281.771 327.822 282.708 318.173 285.664 310.592C287.346 306.304 289.678 302.667 292.898 301.939C294.244 301.633 296.022 301.939 296.887 296.043C296.887 296.043 297.104 278.852 308.567 284.25C311.09 285.476 318.637 291.449 310.802 301.02Z" fill="url(#paint5_linear_34_1956)"/>
<path d="M270.932 330.119C264.612 314.651 251.514 304.352 251.37 304.275L251.682 303.241C251.827 303.356 265.092 313.77 271.533 329.507L270.932 330.119Z" fill="white"/>
<path d="M289.75 329.966L289.101 329.468C289.509 328.167 298.954 297.804 308.062 290.989L308.375 292.023C299.483 298.685 289.846 329.66 289.75 329.966Z" fill="white"/>
<path d="M101.096 323.534C101.096 323.534 137.697 322.998 148.439 310.133C162.186 293.669 180.498 254.731 216.211 291.755C221.69 297.421 228.948 310.133 240.003 308.984C251.058 307.836 263.554 305.538 273.167 316.259C282.78 326.98 283.021 324.299 295.517 323.534C308.014 322.768 310.898 330.426 310.898 330.426H90.6655L101.096 323.534Z" fill="url(#paint6_linear_34_1956)"/>
<path d="M30.4403 330.425H202.031C202.031 330.425 176.076 328.893 160.696 318.939C160.696 318.939 115.154 283.905 82.8309 313.961C82.8309 313.961 68.5316 324.873 58.6783 322.576C58.6783 322.576 39.6928 321.045 30.4403 330.425Z" fill="url(#paint7_linear_34_1956)"/>
<path d="M248.895 96.4873H303.28C303.28 96.4873 300.901 82.1294 293.619 86.6856C293.619 86.6856 292.465 72.7872 284.703 69.303C282.732 68.4224 280.641 68.4224 278.647 69.1499C275.282 70.4134 268.986 74.089 264.924 84.5033C264.924 84.5033 259.781 77.7264 255.023 90.0933C255.023 90.0933 249.375 88.9064 248.871 97.1" fill="#E6F0F5"/>
<path d="M25.3936 57.4336H79.7788C79.7788 57.4336 77.3996 43.0757 70.1178 47.6319C70.1178 47.6319 68.9642 33.7335 61.2018 30.2493C59.2311 29.3687 57.1403 29.3687 55.1456 30.0962C51.7811 31.3597 45.4846 35.0353 41.4231 45.4495C41.4231 45.4495 36.2802 38.6726 31.5218 51.0396C31.5218 51.0396 25.8742 49.8527 25.3695 58.0463" fill="#E6F0F5"/>
<path d="M125.152 273.569V291.717L146.036 287.926L139.163 280.384L138.922 270.927L125.152 273.569Z" fill="url(#paint8_linear_34_1956)"/>
<path d="M129.622 293.095C129.694 294.282 130.391 295.163 131.136 295.048L139.043 293.669C139.788 293.554 140.34 292.444 140.268 291.257C140.196 290.07 139.499 289.19 138.754 289.305L130.848 290.683C130.103 290.836 129.55 291.908 129.622 293.095Z" fill="url(#paint9_linear_34_1956)"/>
<path d="M131.761 163.261L130.679 175.704L125.633 275.597L138.202 273.185L150.17 186.731L151.684 165.673L131.761 163.261Z" fill="#ED6263"/>
<path d="M91.146 330.732C88.6467 330.732 86.1232 330.311 83.6479 329.468C73.0977 325.946 64.1817 315.302 58.5101 299.489C52.9105 283.867 51.1802 265.068 53.6315 246.499C56.0828 227.967 62.4274 211.848 71.4876 201.128C80.6679 190.292 91.5305 186.272 102.057 189.794C112.607 193.317 121.523 203.961 127.195 219.774C132.794 235.395 134.524 254.194 132.073 272.764C129.622 291.295 123.277 307.414 114.217 318.135C107.224 326.443 99.2209 330.732 91.146 330.732ZM94.5826 197.95C87.7334 197.95 80.9563 201.625 74.9723 208.67C67.0656 218.013 61.5141 232.141 59.3512 248.451C57.1883 264.762 58.7023 281.264 63.5809 294.894C68.4114 308.333 75.9576 317.408 84.8255 320.356C86.9163 321.045 89.0072 321.389 91.0739 321.389C107.32 321.389 122.436 300.561 126.353 270.888C128.516 254.577 127.002 238.075 122.124 224.445C117.293 211.006 109.747 201.932 100.879 198.984C98.7883 198.294 96.6734 197.95 94.5826 197.95Z" fill="url(#paint10_linear_34_1956)"/>
<path d="M209.89 330.08C207.391 330.08 204.867 329.659 202.392 328.817C191.842 325.294 182.926 314.65 177.254 298.838C171.655 283.216 169.924 264.417 172.376 245.847C174.827 227.316 181.171 211.197 190.232 200.476C199.412 189.641 210.275 185.621 220.801 189.143C231.351 192.666 240.267 203.31 245.939 219.122C251.538 234.744 253.268 253.543 250.817 272.113C248.366 290.644 242.021 306.763 232.961 317.484C225.944 325.792 217.965 330.08 209.89 330.08ZM213.351 197.298C197.105 197.298 181.988 218.127 178.071 247.8C173.649 281.263 185.089 313.54 203.569 319.704C205.66 320.394 207.751 320.738 209.818 320.738C226.064 320.738 241.18 299.91 245.098 270.237C247.26 253.926 245.746 237.424 240.868 223.794C236.037 210.354 228.491 201.28 219.623 198.332C217.508 197.605 215.418 197.298 213.351 197.298Z" fill="url(#paint11_linear_34_1956)"/>
<path d="M227.842 155.833H224.358C222.243 155.833 220.152 154.876 218.349 153.076C209.458 144.232 182.061 116.473 179.537 107.131C178.215 102.307 176.509 92.084 175.091 82.7801C173.577 72.8636 172.4 64.0191 172.4 64.0191L184.993 62.143L188.67 61.6069L192.13 91.6246L227.65 150.817L227.842 155.833Z" fill="#ED6263"/>
<path opacity="0.2" d="M184.969 62.1812V78.8747L175.091 82.8183C173.577 72.9018 172.4 64.0573 172.4 64.0573L184.969 62.1812Z" fill="black"/>
<path d="M186.218 24.4297L210.515 17.3081L225.054 22.9747C225.054 22.9747 218.542 70.911 204.507 44.569L189.679 49.0487L186.218 24.4297Z" fill="url(#paint12_linear_34_1956)"/>
<path d="M225.631 22.1324C225.631 22.1324 225.679 24.9274 214.12 27.9904L211.644 34.193L210.299 33.3124L210.106 29.2538C210.179 27.9903 209.698 26.8417 208.905 26.3822C207.703 25.6931 205.612 26.076 205.973 31.2831C205.973 31.2831 201.311 33.0826 197.634 26.612C197.634 26.612 196.168 23.5107 195.903 20.7923C195.639 18.0739 199.172 13.4027 199.172 13.4027C199.172 13.4027 203.594 8.00419 209.53 7.12357C213.759 6.43439 221.69 10.1483 225.631 22.1324Z" fill="url(#paint13_linear_34_1956)"/>
<path d="M206.91 39.4767L203.449 20.4476L204.146 20.103L207.198 36.9496L213.255 24.0849L213.831 24.7741L206.91 39.4767Z" fill="#005F57"/>
<path d="M206.982 49.5462C206.694 48.0147 206.045 43.6499 206.79 37.9067L207.487 38.1365C206.766 43.5734 207.391 47.785 207.655 49.2016C207.703 49.5079 207.607 49.8142 207.439 49.8908C207.27 50.044 207.054 49.8908 206.982 49.5462Z" fill="#005F57"/>
<path d="M195.903 7.16184C194.822 8.27219 194.533 10.6078 195.302 12.2541C197.369 16.6955 202.344 24.5062 212.582 26.7652C212.582 26.7652 220.2 28.1435 225.463 26.5737C226.713 26.1908 227.53 24.2765 227.241 22.2855C226.304 15.7 222.988 1.64844 211.644 0.116931C207.511 -0.457385 201.935 0.959224 195.903 7.16184Z" fill="url(#paint14_linear_34_1956)"/>
<path d="M200.566 9.19092C200.566 9.19092 214.168 11.9094 223.204 19.5669C223.204 19.5669 207.439 24.3146 200.566 9.19092Z" fill="url(#paint15_linear_34_1956)"/>
<path d="M202.416 6.47245C202.416 6.47245 218.71 13.1729 223.348 16.7719C223.348 16.7719 215.057 3.52429 202.416 6.47245Z" fill="url(#paint16_linear_34_1956)"/>
<path d="M206.934 40.1278C207.651 40.1278 208.232 39.202 208.232 38.0602C208.232 36.9183 207.651 35.9927 206.934 35.9927C206.217 35.9927 205.636 36.9183 205.636 38.0602C205.636 39.202 206.217 40.1278 206.934 40.1278Z" fill="url(#paint17_linear_34_1956)"/>
<path d="M125.488 91.4712L129.598 170.497L152.573 174.326L153.871 126.007L125.488 91.4712Z" fill="url(#paint18_linear_34_1956)"/>
<path d="M170.765 68.0008L172.135 78.7214L184.848 74.548L185.713 63.8657L170.765 68.0008Z" fill="url(#paint19_linear_34_1956)"/>
<path d="M229.933 151.583C229.428 146.338 227.145 142.203 223.973 140.71C217.773 137.838 207.943 135.12 196.288 138.259L194.125 138.833L197.489 167.702L132.818 167.626L130.367 114.482L126.041 114.98L128.589 169.923L89.4398 257.104C87.6133 261.163 89.4639 266.753 92.5881 266.676L138.61 265.375L199.532 185.583L207.943 257.908L212.197 256.645L199.172 144.538C209.626 142.356 218.325 145.266 222.747 147.333C224.574 148.176 225.439 150.626 225.631 152.617C225.872 155.067 225.247 157.365 223.973 158.705C222.05 160.734 219.359 161.27 217.58 161.385C216.475 161.462 215.586 162.802 215.514 164.563C215.418 166.63 216.451 168.392 217.749 168.277C220.08 168.124 223.613 167.358 226.352 164.448C229.044 161.615 230.414 156.714 229.933 151.583ZM137.048 258.559L93.5734 259.784L128.925 181.065L131.016 251.629L135.342 251.285L133.059 174.594L198.21 174.671L198.595 177.964L137.048 258.559Z" fill="url(#paint20_linear_34_1956)"/>
<path d="M119.096 116.665L139.307 117.584C141.47 117.699 141.999 112.798 139.932 111.764L120.658 102.039C118.807 101.082 116.837 102.997 116.524 106.06L116.044 110.654C115.707 113.756 117.149 116.589 119.096 116.665Z" fill="url(#paint21_linear_34_1956)"/>
<path d="M133.924 291.027L131.881 258.406L133.804 258.1L135.846 290.721C135.894 291.563 135.51 292.329 134.981 292.405C134.428 292.482 133.972 291.869 133.924 291.027Z" fill="#0A0E1E"/>
<path d="M133.358 242.723L89.4894 249.526L89.6058 251.431L133.474 244.629L133.358 242.723Z" fill="black"/>
<path d="M90.6554 267.15L90.533 269.054L132.228 275.858L132.35 273.954L90.6554 267.15Z" fill="black"/>
<path d="M142.84 261.316C142.071 270.467 137.024 276.976 131.569 275.789C126.113 274.64 122.316 266.255 123.085 257.104C123.854 247.953 128.901 241.444 134.356 242.631C139.812 243.78 143.609 252.165 142.84 261.316Z" fill="url(#paint22_linear_34_1956)"/>
<path d="M230.75 153.651C230.75 153.651 232.072 155.067 229.669 157.748L227.506 153.536C227.506 153.536 221.666 158.092 219.503 150.167L192.418 118.081C192.418 118.081 186.891 112.606 185.713 100.469L183.695 82.8185L182.229 70.107L198.066 63.9043L199.123 74.8546L200.902 93.2711L224.526 141.59C224.526 141.59 226.593 141.36 228.876 143.581C229.669 144.309 230.486 145.304 230.918 146.338C231.399 147.486 231.399 149.401 230.918 149.401C230.918 149.401 231.639 150.128 231.639 151.698C231.591 152.77 230.846 153.613 230.75 153.651Z" fill="url(#paint23_linear_34_1956)"/>
<path opacity="0.2" d="M199.099 74.816L183.671 82.7798L182.229 70.0683L198.066 63.8657L199.099 74.816Z" fill="black"/>
<path d="M184.56 162.61C183.599 166.669 181.82 170.957 178.552 174.326L139.019 213.763L127.988 199.367L164.036 153.957L158.773 146.568L150.122 134.431L169.035 108.242C169.035 108.242 170.886 110.998 173.481 116.052C176.677 122.332 181.027 132.248 184.32 144.998C185.785 150.588 185.93 156.905 184.56 162.61Z" fill="url(#paint24_linear_34_1956)"/>
<path d="M97.0101 260.32C96.5535 265.872 93.4774 269.815 90.185 269.088C86.8685 268.399 84.5854 263.306 85.042 257.755C85.4986 252.203 88.5748 248.259 91.8672 248.987C95.1837 249.714 97.4908 254.768 97.0101 260.32Z" fill="url(#paint25_linear_34_1956)"/>
<path d="M150.722 83.3543L181.484 68.8433L182.565 76.4243L199.46 71.2554L196.744 47.5553C196.744 47.5553 193.067 42.1184 192.851 21.4047C192.851 21.4047 178.239 4.97924 152.549 21.4047C152.549 21.4047 133.275 34.8438 125.464 61.1092L150.722 83.3543Z" fill="url(#paint26_linear_34_1956)"/>
<path d="M214.432 257.908C214.072 262.12 211.765 265.106 209.241 264.57C206.742 264.034 204.988 260.167 205.348 255.956C205.708 251.744 208.016 248.758 210.539 249.294C213.038 249.83 214.793 253.697 214.432 257.908Z" fill="url(#paint27_linear_34_1956)"/>
<path d="M131.881 258.1L129.093 225.632L130.992 225.211L133.78 257.679C133.852 258.521 133.491 259.287 132.962 259.402C132.434 259.517 131.953 258.904 131.881 258.1Z" fill="#0A0E1E"/>
<path opacity="0.2" d="M173.481 116.014C173.169 122.906 170.958 136.842 158.773 146.529L150.122 134.392L169.035 108.203C169.035 108.203 170.886 110.922 173.481 116.014Z" fill="black"/>
<path d="M143.248 73.5145C143.248 73.5145 162.739 93.8837 172.279 112.874C172.279 112.874 171.847 129.453 154.519 141.514C154.519 141.514 103.018 103.685 125.945 59.0801L143.248 73.5145Z" fill="url(#paint28_linear_34_1956)"/>
<path d="M129.406 196.61L119.6 211.542L138.971 232.83L135.846 219.353L141.206 212.384L129.406 196.61Z" fill="url(#paint29_linear_34_1956)"/>
<path d="M125.633 220.195C125.2 221.19 125.32 222.568 125.945 223.258L132.41 230.647C133.035 231.336 133.9 231.145 134.332 230.149C134.765 229.154 134.645 227.776 134.02 227.086L127.555 219.697C126.93 218.969 126.065 219.199 125.633 220.195Z" fill="url(#paint30_linear_34_1956)"/>
</g>
<defs>
<filter id="filter0_d_34_1956" x="0" y="0" width="331" height="339" filterUnits="userSpaceOnUse" color-interpolation-filters="sRGB">
<feFlood flood-opacity="0" result="BackgroundImageFix"/>
<feColorMatrix in="SourceAlpha" type="matrix" values="0 0 0 0 0 0 0 0 0 0 0 0 0 0 0 0 0 0 127 0" result="hardAlpha"/>
<feOffset dy="4"/>
<feGaussianBlur stdDeviation="2"/>
<feComposite in2="hardAlpha" operator="out"/>
<feColorMatrix type="matrix" values="0 0 0 0 0 0 0 0 0 0 0 0 0 0 0 0 0 0 0.25 0"/>
<feBlend mode="normal" in2="BackgroundImageFix" result="effect1_dropShadow_34_1956"/>
<feBlend mode="normal" in="SourceGraphic" in2="effect1_dropShadow_34_1956" result="shape"/>
</filter>
<linearGradient id="paint0_linear_34_1956" x1="83.4479" y1="330.209" x2="41.4593" y2="261.546" gradientUnits="userSpaceOnUse">
<stop stop-color="#90BFA5"/>
<stop offset="1" stop-color="#C4DFCC"/>
</linearGradient>
<linearGradient id="paint1_linear_34_1956" x1="42.9373" y1="309.085" x2="78.9756" y2="309.085" gradientUnits="userSpaceOnUse">
<stop stop-color="#90BFA5"/>
<stop offset="1" stop-color="#C4DFCC"/>
</linearGradient>
<linearGradient id="paint2_linear_34_1956" x1="85.966" y1="302.892" x2="124.788" y2="302.892" gradientUnits="userSpaceOnUse">
<stop stop-color="#90BFA5"/>
<stop offset="1" stop-color="#C4DFCC"/>
</linearGradient>
<linearGradient id="paint3_linear_34_1956" x1="283.694" y1="330.378" x2="252.325" y2="265.228" gradientUnits="userSpaceOnUse">
<stop stop-color="#90BFA5"/>
<stop offset="1" stop-color="#C4DFCC"/>
</linearGradient>
<linearGradient id="paint4_linear_34_1956" x1="244.225" y1="311.84" x2="275.156" y2="311.84" gradientUnits="userSpaceOnUse">
<stop stop-color="#90BFA5"/>
<stop offset="1" stop-color="#C4DFCC"/>
</linearGradient>
<linearGradient id="paint5_linear_34_1956" x1="299.159" y1="325.258" x2="289.154" y2="287.265" gradientUnits="userSpaceOnUse">
<stop stop-color="#90BFA5"/>
<stop offset="1" stop-color="#C4DFCC"/>
</linearGradient>
<linearGradient id="paint6_linear_34_1956" x1="90.6571" y1="303.354" x2="310.898" y2="303.354" gradientUnits="userSpaceOnUse">
<stop stop-color="#F7A06A"/>
<stop offset="1" stop-color="#FFD18F"/>
</linearGradient>
<linearGradient id="paint7_linear_34_1956" x1="30.4403" y1="316.103" x2="202.031" y2="316.103" gradientUnits="userSpaceOnUse">
<stop stop-color="#F7A06A"/>
<stop offset="1" stop-color="#FFD18F"/>
</linearGradient>
<linearGradient id="paint8_linear_34_1956" x1="125.156" y1="281.324" x2="146.036" y2="281.324" gradientUnits="userSpaceOnUse">
<stop stop-color="#002452"/>
<stop offset="1" stop-color="#001328"/>
</linearGradient>
<linearGradient id="paint9_linear_34_1956" x1="129.627" y1="292.22" x2="140.307" y2="292.192" gradientUnits="userSpaceOnUse">
<stop stop-color="#3BACA0"/>
<stop offset="1" stop-color="#58C6B6"/>
</linearGradient>
<linearGradient id="paint10_linear_34_1956" x1="131.505" y1="260.552" x2="55.077" y2="259.873" gradientUnits="userSpaceOnUse">
<stop stop-color="#002452"/>
<stop offset="1" stop-color="#001328"/>
</linearGradient>
<linearGradient id="paint11_linear_34_1956" x1="251.925" y1="257.855" x2="171.885" y2="258.761" gradientUnits="userSpaceOnUse">
<stop stop-color="#002452"/>
<stop offset="1" stop-color="#001328"/>
</linearGradient>
<linearGradient id="paint12_linear_34_1956" x1="186.217" y1="34.8787" x2="225.063" y2="34.8787" gradientUnits="userSpaceOnUse">
<stop stop-color="#ED6263"/>
<stop offset="1" stop-color="#FFA9A9"/>
</linearGradient>
<linearGradient id="paint13_linear_34_1956" x1="195.937" y1="20.5764" x2="225.643" y2="20.5764" gradientUnits="userSpaceOnUse">
<stop stop-color="#002452"/>
<stop offset="1" stop-color="#001328"/>
</linearGradient>
<linearGradient id="paint14_linear_34_1956" x1="182.072" y1="7.17324" x2="209.992" y2="9.4591" gradientUnits="userSpaceOnUse">
<stop stop-color="#3BACA0"/>
<stop offset="1" stop-color="#58C6B6"/>
</linearGradient>
<linearGradient id="paint15_linear_34_1956" x1="214.176" y1="14.7211" x2="236.817" y2="14.7211" gradientUnits="userSpaceOnUse">
<stop stop-color="#3BACA0"/>
<stop offset="1" stop-color="#58C6B6"/>
</linearGradient>
<linearGradient id="paint16_linear_34_1956" x1="213.926" y1="11.4061" x2="234.868" y2="11.4061" gradientUnits="userSpaceOnUse">
<stop stop-color="#3BACA0"/>
<stop offset="1" stop-color="#58C6B6"/>
</linearGradient>
<linearGradient id="paint17_linear_34_1956" x1="205.64" y1="38.0505" x2="208.24" y2="38.0505" gradientUnits="userSpaceOnUse">
<stop stop-color="#002452"/>
<stop offset="1" stop-color="#001328"/>
</linearGradient>
<linearGradient id="paint18_linear_34_1956" x1="141.722" y1="177.906" x2="136.251" y2="105.221" gradientUnits="userSpaceOnUse">
<stop stop-color="#002452"/>
<stop offset="1" stop-color="#001328"/>
</linearGradient>
<linearGradient id="paint19_linear_34_1956" x1="177.53" y1="73.7786" x2="172.33" y2="92.634" gradientUnits="userSpaceOnUse">
<stop stop-color="#3BACA0"/>
<stop offset="1" stop-color="#58C6B6"/>
</linearGradient>
<linearGradient id="paint20_linear_34_1956" x1="88.7127" y1="190.62" x2="230.03" y2="190.62" gradientUnits="userSpaceOnUse">
<stop stop-color="#404AA9"/>
<stop offset="1" stop-color="#7284D3"/>
</linearGradient>
<linearGradient id="paint21_linear_34_1956" x1="115.981" y1="109.711" x2="141.244" y2="109.711" gradientUnits="userSpaceOnUse">
<stop stop-color="#3BACA0"/>
<stop offset="1" stop-color="#58C6B6"/>
</linearGradient>
<linearGradient id="paint22_linear_34_1956" x1="143.022" y1="258.969" x2="122.511" y2="259.17" gradientUnits="userSpaceOnUse">
<stop stop-color="#404AA9"/>
<stop offset="1" stop-color="#7284D3"/>
</linearGradient>
<linearGradient id="paint23_linear_34_1956" x1="183.597" y1="65.009" x2="244.957" y2="121.863" gradientUnits="userSpaceOnUse">
<stop stop-color="#ED6263"/>
<stop offset="1" stop-color="#FFA9A9"/>
</linearGradient>
<linearGradient id="paint24_linear_34_1956" x1="171.651" y1="126.988" x2="119.63" y2="199.07" gradientUnits="userSpaceOnUse">
<stop stop-color="#ED6263"/>
<stop offset="1" stop-color="#FFA9A9"/>
</linearGradient>
<linearGradient id="paint25_linear_34_1956" x1="84.9875" y1="259.057" x2="97.08" y2="259.057" gradientUnits="userSpaceOnUse">
<stop stop-color="#002452"/>
<stop offset="1" stop-color="#001328"/>
</linearGradient>
<linearGradient id="paint26_linear_34_1956" x1="149.199" y1="84.3294" x2="207.17" y2="48.3726" gradientUnits="userSpaceOnUse">
<stop stop-color="#3BACA0"/>
<stop offset="1" stop-color="#58C6B6"/>
</linearGradient>
<linearGradient id="paint27_linear_34_1956" x1="205.291" y1="256.946" x2="214.475" y2="256.946" gradientUnits="userSpaceOnUse">
<stop stop-color="#002452"/>
<stop offset="1" stop-color="#001328"/>
</linearGradient>
<linearGradient id="paint28_linear_34_1956" x1="120.057" y1="100.307" x2="172.276" y2="100.307" gradientUnits="userSpaceOnUse">
<stop stop-color="#404AA9"/>
<stop offset="1" stop-color="#7284D3"/>
</linearGradient>
<linearGradient id="paint29_linear_34_1956" x1="119.6" y1="214.715" x2="141.204" y2="214.715" gradientUnits="userSpaceOnUse">
<stop stop-color="#002452"/>
<stop offset="1" stop-color="#001328"/>
</linearGradient>
<linearGradient id="paint30_linear_34_1956" x1="125.362" y1="225.175" x2="134.59" y2="225.175" gradientUnits="userSpaceOnUse">
<stop stop-color="#3BACA0"/>
<stop offset="1" stop-color="#58C6B6"/>
</linearGradient>
</defs>
</svg>
