<svg width="56" height="56" viewBox="0 0 56 56" fill="none" xmlns="http://www.w3.org/2000/svg">
<circle cx="47.8701" cy="29.2031" r="1.20312" fill="#D1E7E7"/>
<circle cx="8.20312" cy="13.8906" r="1.20312" fill="#D1E7E7"/>
<path d="M19.2323 40.627L18.8815 42.0894L19.5416 43.4405L18.0793 43.0896L16.7282 43.7498L17.0791 42.2875L16.4189 40.9364L17.8812 41.2872L19.2323 40.627Z" fill="#D1E7E7"/>
<path d="M40.2665 8.91092L41.5367 9.77959L43.0693 9.64104L42.2006 10.9113L42.3392 12.4439L41.0689 11.5752L39.5363 11.7137L40.405 10.4435L40.2665 8.91092Z" fill="#D1E7E7"/>
<path d="M31.4 14.667H27.9333C23.6667 14.667 21 17.3337 21 21.6003V27.0003H29.3333C29.88 27.0003 30.3333 27.4537 30.3333 28.0003C30.3333 28.547 29.88 29.0003 29.3333 29.0003H21V34.4003C21 38.667 23.6667 41.3337 27.9333 41.3337H31.3867C35.6533 41.3337 38.32 38.667 38.32 34.4003V21.6003C38.3333 17.3337 35.6667 14.667 31.4 14.667Z" fill="#5FABA0"/>
<path d="M15.0799 27.0004L17.8399 24.2404C18.0399 24.0404 18.1333 23.7871 18.1333 23.5338C18.1333 23.2804 18.0399 23.0138 17.8399 22.8271C17.4533 22.4404 16.8133 22.4404 16.4266 22.8271L11.9599 27.2938C11.5733 27.6804 11.5733 28.3204 11.9599 28.7071L16.4266 33.1738C16.8133 33.5604 17.4533 33.5604 17.8399 33.1738C18.2266 32.7871 18.2266 32.1471 17.8399 31.7604L15.0799 29.0004H20.9999V27.0004H15.0799V27.0004Z" fill="#5FABA0"/>
</svg>
