<svg width="221" height="162" viewBox="0 0 221 162" fill="none" xmlns="http://www.w3.org/2000/svg">
<path d="M210.674 161.999H16.874C16.874 161.999 -1.75618 161.108 0.134792 136.036C0.134792 136.036 10.3954 54.8543 80.838 41.1271C80.838 41.1271 104.862 36.3453 120.515 60.2361C120.515 60.2361 135.906 81.1269 160.456 73.6724C160.456 73.6724 205.527 58.4543 220.112 129.181C220.128 129.163 225.259 153.345 210.674 161.999Z" fill="#E6F0F5"/>
<path d="M62.6022 148.653C62.5693 149.09 62.52 149.544 62.4378 150.017C62.4378 150.017 61.7965 156.853 59.922 160.235H50.8125L42.6402 148.926C42.6402 148.926 40.8972 146.308 40.5848 143.29C40.5026 142.526 40.519 141.762 40.667 140.981C40.667 140.981 41.111 137.217 37.6908 133.872C34.7146 130.963 32.1166 123.763 40.667 116.635C42.7882 114.853 49.1188 111.617 51.2729 118.853C52.3581 122.49 52.3746 123.017 51.7991 130.817C51.6511 132.89 53.2296 136.872 56.6498 137.69C59.6096 138.417 63.0462 142.49 62.6022 148.653Z" fill="url(#paint0_linear_274_1772)"/>
<path d="M54.8414 160.635C45.995 147.871 42.8215 121.726 42.7886 121.471L43.2819 121.398C43.3148 121.653 46.4718 147.653 55.2361 160.307L54.8414 160.635Z" fill="white"/>
<path d="M53.5255 160.235H40.1407C36.293 158.907 36.6054 156.089 36.4739 154.38C36.1944 151.016 32.5768 151.162 31.0312 150.816C25.6707 149.653 26.4271 143.853 27.8083 142.071C33.0372 135.307 39.1541 139.689 40.4203 142.889C40.4696 143.035 40.5354 143.162 40.5847 143.289C42.1961 146.907 44.6297 146.453 44.6297 146.453C52.0291 143.471 53.3446 157.562 53.5255 160.235Z" fill="url(#paint1_linear_274_1772)"/>
<path d="M84.4721 142.889C83.0415 144.107 79.5227 145.889 80.016 149.18C80.016 149.18 80.9203 156.726 73.3729 160.235H58.7056L59.2317 159.016C59.2317 159.016 60.0375 153.198 62.6026 148.635C64.066 146.053 66.0885 143.871 68.8839 143.417C70.0514 143.235 71.597 143.417 72.3534 139.853C72.3534 139.853 72.5343 129.489 82.4989 132.744C84.7351 133.507 91.2795 137.126 84.4721 142.889Z" fill="url(#paint2_linear_274_1772)"/>
<path d="M49.9079 160.38C44.3994 151.035 33.0043 144.835 32.8892 144.762L33.1029 144.271C33.218 144.326 44.7283 150.598 50.319 160.071L49.9079 160.38Z" fill="white"/>
<path d="M66.1373 160.291L65.6934 160.055C66.0387 159.273 74.2274 141 82.1366 136.909L82.3503 137.4C74.6056 141.418 66.2195 160.109 66.1373 160.291Z" fill="white"/>
<path d="M192.487 155.127C192.388 155.418 192.29 155.727 192.158 156.036C192.158 156.036 191.254 158.655 190.021 160.764H182.753L182.523 160.691L177.902 152.527C177.902 152.527 176.883 151.273 177.277 149.182C177.277 149.182 177.524 148.2 178.757 145.473C179.316 144.236 179.678 142.982 177.902 140C177.77 139.782 177.639 139.527 177.524 139.273C176.307 136.491 176.356 131.691 182.769 128.8C184.512 128.018 189.379 127.073 189.659 132.455C189.79 134.873 189.741 135.418 188.524 139.255C188.376 139.709 188.228 140.2 188.047 140.746C187.604 142.127 188.031 145.182 190.234 146.436C192.109 147.509 193.803 150.982 192.487 155.127Z" fill="url(#paint3_linear_274_1772)"/>
<path d="M185.121 160.8C181.158 150.254 183.296 132.673 183.312 132.491L183.805 132.563C183.789 132.745 181.668 150.182 185.581 160.582L185.121 160.8Z" fill="white"/>
<path d="M183.558 160.8H174.087C171.358 159.873 171.588 157.855 171.489 156.655C171.292 154.273 168.727 154.364 167.641 154.128C163.843 153.31 164.139 149.437 165.356 147.928C169.154 143.219 173.397 146.237 174.301 148.51C174.334 148.601 174.383 148.71 174.416 148.801C175.551 151.364 177.277 151.037 177.277 151.037C182.506 148.928 183.427 158.91 183.558 160.8Z" fill="url(#paint4_linear_274_1772)"/>
<path d="M205.478 148.509C204.458 149.364 201.975 150.637 202.32 152.964C202.32 152.964 202.962 158.309 197.618 160.8H187.226L187.604 159.946C187.604 159.946 188.179 155.818 189.988 152.6C191.024 150.764 192.471 149.218 194.428 148.909C195.25 148.782 196.352 148.909 196.878 146.382C196.878 146.382 197.009 139.037 204.063 141.346C205.675 141.873 210.295 144.418 205.478 148.509Z" fill="url(#paint5_linear_274_1772)"/>
<path d="M180.944 160.946C177.064 154.346 169.007 149.964 168.924 149.909L169.138 149.418C169.22 149.455 177.393 153.909 181.355 160.637L180.944 160.946Z" fill="white"/>
<path d="M192.553 160.873L192.109 160.636C192.356 160.091 198.176 147.109 203.8 144.2L204.014 144.691C198.538 147.527 192.619 160.746 192.553 160.873Z" fill="white"/>
<path d="M66.5982 158.727C66.5982 158.727 91.6412 158.473 98.9914 152.364C108.397 144.545 120.927 126.055 145.361 143.636C149.11 146.327 154.076 152.364 161.64 151.818C169.204 151.273 177.754 150.182 184.332 155.273C190.909 160.364 191.073 159.091 199.624 158.727C208.174 158.364 210.147 162 210.147 162H59.4619L66.5982 158.727Z" fill="url(#paint6_linear_274_1772)"/>
<path d="M18.2554 162H135.66C135.66 162 117.901 161.273 107.378 156.545C107.378 156.545 76.2177 139.909 54.1016 154.182C54.1016 154.182 44.3178 159.363 37.5761 158.273C37.5761 158.273 24.586 157.545 18.2554 162Z" fill="url(#paint7_linear_274_1772)"/>
<path d="M138.682 86.0722C138.682 86.0722 130.815 92.2904 119.089 86.0722L120.425 79.6904L138.237 80.345L138.682 86.0722Z" fill="#0A0E1E"/>
<path d="M137.347 97.3961L131.484 150.79H120.945L123.394 101.127L122.77 87.4307L122.503 81.6544L137.124 80.7544L137.258 87.7253L137.406 95.8416C137.421 96.3652 137.391 96.8889 137.347 97.3961Z" fill="url(#paint8_linear_274_1772)"/>
<path opacity="0.2" d="M137.257 87.7253C134.378 87.0544 127.104 85.9089 122.77 87.4144L122.503 81.6544L137.124 80.7544L137.257 87.7253Z" fill="black"/>
<path d="M129.331 87.8721C129.331 87.8721 121.464 93.2721 109.738 87.054L111.073 82.4722L129.183 83.1267L129.331 87.8721Z" fill="#0A0E1E"/>
<path d="M128.441 82.4722L127.164 89.754L125.472 99.3266L113.894 151.363L103.726 151.281L110.109 99.7357L110.495 90.7358L110.584 88.9849L110.851 82.7176L128.441 82.4722Z" fill="url(#paint9_linear_274_1772)"/>
<path opacity="0.2" d="M128.44 82.4722L127.164 89.754C121.39 87.0212 114.621 88.6249 110.509 90.7358L110.583 88.9849L110.851 82.7176L128.44 82.4722Z" fill="black"/>
<path d="M124.507 84.3543C124.507 84.3543 129.569 84.8125 131.261 84.8452C134.675 84.927 138.608 85.827 138.608 85.827L136.605 55.5544L126.734 54.8999L124.507 84.3543Z" fill="url(#paint10_linear_274_1772)"/>
<path d="M131.899 149.792L131.261 156.485L140.122 162H119.534L120.647 150.202L131.899 149.792Z" fill="url(#paint11_linear_274_1772)"/>
<path d="M135.343 56.0454L134.378 61.0854L129.406 87.9543C129.406 87.9543 125.472 84.4362 117.753 84.7635C113.003 84.9598 109.664 87.1362 109.664 87.1362L110.554 74.3726C110.97 69.8072 112.187 65.5363 113.36 62.2636C114.725 58.4836 116.046 56.0454 116.046 56.0454H135.343Z" fill="url(#paint12_linear_274_1772)"/>
<path d="M114.532 149.776L113.3 156.453L122.162 161.967H101.574L103.281 150.185L114.532 149.776Z" fill="url(#paint13_linear_274_1772)"/>
<path d="M110.628 35.5088C110.628 35.5088 110.331 40.2542 112.855 46.636L119.089 41.7269L113.152 35.9997L110.628 35.5088Z" fill="#161C3E"/>
<path d="M178.463 33.709L181.937 33.8072C183.05 33.8399 183.941 34.8708 183.911 36.0981L183.866 38.2417C183.837 39.4526 182.946 40.418 181.848 40.418H178.315L178.463 33.709Z" fill="url(#paint14_linear_274_1772)"/>
<path d="M179.992 34.5757C179.992 23.514 175.406 14.4322 169.602 13.6467C169.335 13.614 169.053 13.5977 168.785 13.5977C168.518 13.5977 158.514 13.6467 158.514 13.6467V55.5538H168.637C168.682 55.5538 168.726 55.5538 168.785 55.5538C168.83 55.5538 168.874 55.5538 168.934 55.5538L169.364 55.5375C175.272 54.9647 179.992 45.8011 179.992 34.5757Z" fill="url(#paint15_linear_274_1772)"/>
<path d="M158.736 55.5704C164.934 55.5704 169.958 46.1709 169.958 34.576C169.958 22.9811 164.934 13.5815 158.736 13.5815C152.539 13.5815 147.514 22.9811 147.514 34.576C147.514 46.1709 152.539 55.5704 158.736 55.5704Z" fill="url(#paint16_linear_274_1772)"/>
<path d="M162.358 34.7729C162.358 38.6674 160.71 41.8092 158.692 41.8092C157.668 41.8092 156.747 41.0074 156.079 39.6983C155.426 38.422 155.025 36.6874 155.025 34.7565C155.025 30.862 156.658 27.7202 158.692 27.7202C159.909 27.7202 160.993 28.8657 161.66 30.6493C162.106 31.8111 162.358 33.2347 162.358 34.7729Z" fill="white"/>
<path d="M162.358 34.7725C162.358 38.6671 160.71 41.8089 158.692 41.8089C157.667 41.8089 156.747 41.0071 156.079 39.698L161.66 30.6489C162.106 31.8107 162.358 33.2344 162.358 34.7725Z" fill="url(#paint17_linear_274_1772)"/>
<path d="M158.588 35.8531L87.7693 27.3276L88.0513 24.0713L158.855 33.2512C159.508 33.3331 159.983 33.9876 159.894 34.7076C159.835 35.4112 159.241 35.9349 158.588 35.8531Z" fill="url(#paint18_linear_274_1772)"/>
<path d="M150.854 42.7088C150.854 42.7088 146.995 48.7143 140.553 53.1488C139.113 54.147 137.54 55.0633 135.862 55.7997L138.979 41.3997L141.755 40.0088L145.511 38.127C145.511 38.127 143.433 34.5271 143.581 33.3816C143.581 33.3816 143.581 32.2362 145.214 32.3998L151.003 33.218C151.003 33.218 151.151 34.5271 149.667 35.1816C149.667 35.1816 153.229 36.4907 150.854 42.7088Z" fill="url(#paint19_linear_274_1772)"/>
<path d="M136.248 15.6431C136.248 15.6431 139.202 12.3049 137.525 10.1613C137.258 9.81766 136.516 9.50675 135.937 9.83402C135.937 9.83402 134.437 7.19949 133.131 8.47585C133.131 8.47585 129.361 6.08677 128.5 9.11403C128.5 9.11403 126.214 9.24493 126.021 10.7995C126.021 10.7995 123.186 11.9122 124.27 14.7431C124.27 14.7431 123.29 15.9704 124.67 17.7376C124.67 17.7376 123.913 18.5067 125.383 20.3394L126.021 24.9376L136.248 15.6431Z" fill="url(#paint20_linear_274_1772)"/>
<path d="M132.953 32.3998L132.537 26.5581C132.537 26.5581 138.89 29.5362 136.53 12.3218C136.53 12.3218 130.563 12.1581 128.441 14.8417C128.441 14.8417 129.554 16.6417 128.188 18.7526L127.372 20.8308C127.372 20.8308 126.318 18.1308 124.685 19.2435C124.685 19.2435 123.379 21.8126 126.244 23.2035L125.309 32.2198L132.953 32.3998Z" fill="url(#paint21_linear_274_1772)"/>
<path d="M90.2185 21.8452C90.2185 21.8452 91.8513 20.3725 93.4841 21.0271C93.4841 21.0271 94.6716 20.5362 95.7106 21.3543C95.7106 21.3543 96.8981 20.6998 97.7887 21.3543C98.6793 22.0089 100.861 25.0852 99.2434 25.5107C99.2434 25.5107 98.1598 26.1325 96.9278 25.2161C96.9278 25.2161 95.206 26.2961 94.4192 24.8889C94.4192 24.8889 92.7271 25.5598 91.9107 24.758L90.2185 21.8452Z" fill="url(#paint22_linear_274_1772)"/>
<path opacity="0.2" d="M135.343 56.0454L134.378 61.0854L113.359 62.2636C114.725 58.4836 116.046 56.0454 116.046 56.0454H135.343Z" fill="black"/>
<path opacity="0.2" d="M141.755 40.0093L140.553 53.1492C139.113 54.1474 137.54 55.0638 135.862 55.8001L138.979 41.4002L141.755 40.0093Z" fill="black"/>
<path d="M93.4839 26.2637H99.1244C99.1244 26.2637 100.312 28.2273 99.8666 30.1909L106.843 41.1545L113.226 33.7909L119.757 44.5909C119.757 44.5909 107.808 57.9272 104.32 56.209C99.6736 53.9181 90.3667 32.9727 90.3667 32.9727L90.812 27.5728L93.7807 27.9C93.7807 27.9 93.187 27.0818 93.4839 26.2637Z" fill="url(#paint23_linear_274_1772)"/>
<path d="M125.026 33.0707L125.576 32.6453L125.204 31.9253H135.224C135.224 31.9253 137.955 32.7107 132.122 32.5962L132.849 33.1526L125.026 33.0707Z" fill="#FF9794"/>
<path d="M116.269 40.7453C115.2 39.0926 113.597 36.818 110.628 35.5089L115.304 30.8453C117.159 28.9962 119.594 27.9653 122.102 27.9653H125.62C125.62 27.9653 131.706 34.1835 132.745 28.9471C132.745 28.9471 134.586 29.749 136.263 30.7144C138.044 31.729 139.321 33.578 139.722 35.738C139.944 36.9326 140.108 38.4707 140.048 40.3853C140.033 40.8107 139.989 41.2362 139.915 41.6616L136.901 59.0725L115.081 57.4361L114.473 49.9907L118.198 46.3089C118.198 46.3089 118.05 43.5271 116.269 40.7453Z" fill="url(#paint24_linear_274_1772)"/>
<path d="M142.913 29.2086C142.913 29.2086 143.803 26.754 145.882 27.8995C145.882 27.8995 147.366 26.754 148.999 28.2268C148.999 28.2268 150.483 27.4086 151.671 29.2086C151.671 29.2086 153.303 29.6995 153.155 30.8449C153.155 30.8449 152.932 33.0704 150.899 32.2031C150.899 32.2031 148.895 32.9067 148.36 31.8758C148.36 31.8758 146.52 32.5958 145.911 31.5649C145.911 31.5649 144.59 32.3995 143.239 31.2213L141.948 31.0577L142.913 29.2086Z" fill="url(#paint25_linear_274_1772)"/>
<path d="M94.612 25.0531L94.3003 24.7094C94.5526 24.4312 94.6714 24.1203 94.6565 23.744C94.6417 22.5822 93.4245 21.3058 93.4097 21.3058L93.7065 20.9458C93.7659 21.0113 95.0721 22.3694 95.1018 23.744C95.1018 24.2349 94.9386 24.6767 94.612 25.0531Z" fill="#161C3E"/>
<path d="M97.061 25.4457L96.7344 25.1184C96.9867 24.8075 97.0907 24.4802 97.061 24.0875C96.9719 22.8439 95.5766 21.5675 95.5618 21.5512L95.8438 21.1748C95.9032 21.2403 97.4024 22.5984 97.4914 24.0548C97.536 24.5784 97.3875 25.0366 97.061 25.4457Z" fill="#161C3E"/>
<path d="M93.7214 32.711C93.7066 32.6619 93.4394 31.5491 94.048 30.4528C94.4042 29.8146 94.9831 29.3073 95.7698 28.9801C94.9683 28.8164 93.9441 28.4564 93.4988 27.7201C93.2316 27.2782 93.2168 26.7546 93.4246 26.1655L93.8402 26.3455C93.6769 26.771 93.6917 27.1473 93.8699 27.4419C94.3894 28.3255 96.23 28.5873 96.8979 28.6201L98.7979 28.7019L96.9276 29.111C95.6956 29.3891 94.8495 29.9128 94.4042 30.6982C93.8995 31.6146 94.1222 32.5473 94.1222 32.5637L93.7214 32.711Z" fill="#161C3E"/>
<path d="M146.03 31.6795L145.733 31.3195C146.342 30.714 146.52 29.994 146.283 29.1758C146.104 28.5377 145.719 28.0631 145.719 28.0631L146.045 27.7358C146.075 27.7849 146.876 28.7504 146.832 29.9449C146.802 30.5995 146.535 31.1722 146.03 31.6795Z" fill="#161C3E"/>
<path d="M148.509 32.0408L148.316 31.599C148.791 31.3372 149.088 30.9772 149.192 30.519C149.429 29.4554 148.643 28.2118 148.643 28.2118L149.014 27.9336C149.058 27.999 149.919 29.3736 149.637 30.6499C149.474 31.239 149.103 31.7136 148.509 32.0408Z" fill="#161C3E"/>
<path d="M151.062 32.3514L150.81 31.9423C152.116 30.9277 151.418 29.2423 151.388 29.1605L151.789 28.9478C151.789 28.9805 152.68 31.1077 151.062 32.3514Z" fill="#161C3E"/>
<path d="M91.9252 24.5119C91.9252 11.5847 86.5816 0.997438 79.798 0.0810782C79.4863 0.0319876 79.1598 0.015625 78.8332 0.015625C78.5067 0.015625 66.8396 0.0810782 66.8396 0.0810782V49.0245H78.6551C78.7145 49.0245 78.7738 49.0245 78.8184 49.0245C78.8629 49.0245 78.9371 49.0245 78.9817 49.0245L79.4863 48.9918C86.4183 48.3209 91.9252 37.6191 91.9252 24.5119Z" fill="url(#paint26_linear_274_1772)"/>
<path d="M67.1069 49.0252C74.3456 49.0252 80.2138 38.0506 80.2138 24.5126C80.2138 10.9747 74.3456 0 67.1069 0C59.8682 0 54 10.9747 54 24.5126C54 38.0506 59.8682 49.0252 67.1069 49.0252Z" fill="url(#paint27_linear_274_1772)"/>
<path d="M72.9996 24.6267C72.9996 30.7794 70.402 35.754 67.2106 35.754C65.756 35.754 64.4349 34.723 63.4107 33.0376C62.1935 30.9922 61.4216 27.9976 61.4216 24.6267C61.4216 18.474 64.0193 13.4995 67.2106 13.4995C69.4075 13.4995 71.3075 15.8395 72.302 19.3086C72.7473 20.8795 72.9996 22.6958 72.9996 24.6267Z" fill="white"/>
<path d="M72.9996 24.6272C72.9996 30.7799 70.402 35.7545 67.2106 35.7545C65.7559 35.7545 64.4349 34.7236 63.4106 33.0381L72.2871 19.3091C72.7473 20.88 72.9996 22.6963 72.9996 24.6272Z" fill="url(#paint28_linear_274_1772)"/>
<path d="M58.9727 19.3091L67.5077 20.52C67.9975 20.5854 68.428 20.9127 68.6655 21.3709C69.2444 22.5 69.9569 24.7909 68.428 27.8181C68.1311 28.4072 67.5374 28.7509 66.914 28.6854L58.6758 27.8181L58.9727 19.3091Z" fill="#161C3E"/>
<path d="M58.6758 27.9002C59.9464 27.9002 60.9765 25.9588 60.9765 23.5639C60.9765 21.169 59.9464 19.2275 58.6758 19.2275C57.4051 19.2275 56.375 21.169 56.375 23.5639C56.375 25.9588 57.4051 27.9002 58.6758 27.9002Z" fill="url(#paint29_linear_274_1772)"/>
<path d="M148.791 35.3948C147.574 35.3948 146.193 35.0676 145.971 35.0185L146.075 34.5439C146.95 34.7567 149.37 35.1985 150.112 34.6421L150.364 35.0512C150.008 35.313 149.429 35.3948 148.791 35.3948Z" fill="#161C3E"/>
<defs>
<linearGradient id="paint0_linear_274_1772" x1="56.8357" y1="160.242" x2="39.3801" y2="119.114" gradientUnits="userSpaceOnUse">
<stop stop-color="#90BFA5"/>
<stop offset="1" stop-color="#C4DFCC"/>
</linearGradient>
<linearGradient id="paint1_linear_274_1772" x1="26.8053" y1="149.374" x2="53.5203" y2="149.374" gradientUnits="userSpaceOnUse">
<stop stop-color="#90BFA5"/>
<stop offset="1" stop-color="#C4DFCC"/>
</linearGradient>
<linearGradient id="paint2_linear_274_1772" x1="58.7027" y1="146.188" x2="87.4812" y2="146.188" gradientUnits="userSpaceOnUse">
<stop stop-color="#90BFA5"/>
<stop offset="1" stop-color="#C4DFCC"/>
</linearGradient>
<linearGradient id="paint3_linear_274_1772" x1="188.808" y1="161.042" x2="178.508" y2="130.22" gradientUnits="userSpaceOnUse">
<stop stop-color="#90BFA5"/>
<stop offset="1" stop-color="#C4DFCC"/>
</linearGradient>
<linearGradient id="paint4_linear_274_1772" x1="164.529" y1="153.128" x2="183.556" y2="153.128" gradientUnits="userSpaceOnUse">
<stop stop-color="#90BFA5"/>
<stop offset="1" stop-color="#C4DFCC"/>
</linearGradient>
<linearGradient id="paint5_linear_274_1772" x1="198.322" y1="158.856" x2="195.254" y2="142.071" gradientUnits="userSpaceOnUse">
<stop stop-color="#90BFA5"/>
<stop offset="1" stop-color="#C4DFCC"/>
</linearGradient>
<linearGradient id="paint6_linear_274_1772" x1="59.4561" y1="149.145" x2="210.147" y2="149.145" gradientUnits="userSpaceOnUse">
<stop stop-color="#F7A06A"/>
<stop offset="1" stop-color="#FFD18F"/>
</linearGradient>
<linearGradient id="paint7_linear_274_1772" x1="18.2554" y1="155.199" x2="135.66" y2="155.199" gradientUnits="userSpaceOnUse">
<stop stop-color="#F7A06A"/>
<stop offset="1" stop-color="#FFD18F"/>
</linearGradient>
<linearGradient id="paint8_linear_274_1772" x1="120.945" y1="115.772" x2="137.409" y2="115.772" gradientUnits="userSpaceOnUse">
<stop stop-color="#ED6263"/>
<stop offset="1" stop-color="#FFA9A9"/>
</linearGradient>
<linearGradient id="paint9_linear_274_1772" x1="103.726" y1="116.917" x2="128.441" y2="116.917" gradientUnits="userSpaceOnUse">
<stop stop-color="#ED6263"/>
<stop offset="1" stop-color="#FFA9A9"/>
</linearGradient>
<linearGradient id="paint10_linear_274_1772" x1="134.415" y1="87.2741" x2="126.931" y2="59.6323" gradientUnits="userSpaceOnUse">
<stop stop-color="#002452"/>
<stop offset="1" stop-color="#001328"/>
</linearGradient>
<linearGradient id="paint11_linear_274_1772" x1="140.677" y1="156.304" x2="120.487" y2="155.855" gradientUnits="userSpaceOnUse">
<stop stop-color="#002452"/>
<stop offset="1" stop-color="#001328"/>
</linearGradient>
<linearGradient id="paint12_linear_274_1772" x1="130.512" y1="55.9713" x2="112.611" y2="86.2609" gradientUnits="userSpaceOnUse">
<stop stop-color="#404AA9"/>
<stop offset="1" stop-color="#7284D3"/>
</linearGradient>
<linearGradient id="paint13_linear_274_1772" x1="121.966" y1="156.165" x2="101.378" y2="155.806" gradientUnits="userSpaceOnUse">
<stop stop-color="#002452"/>
<stop offset="1" stop-color="#001328"/>
</linearGradient>
<linearGradient id="paint14_linear_274_1772" x1="178.315" y1="37.0635" x2="183.906" y2="37.0635" gradientUnits="userSpaceOnUse">
<stop offset="0.00242718" stop-color="#161C3E"/>
<stop offset="1" stop-color="#2B3560"/>
</linearGradient>
<linearGradient id="paint15_linear_274_1772" x1="169.365" y1="50.4929" x2="168.534" y2="16.0707" gradientUnits="userSpaceOnUse">
<stop offset="0.00242718" stop-color="#161C3E"/>
<stop offset="1" stop-color="#2B3560"/>
</linearGradient>
<linearGradient id="paint16_linear_274_1772" x1="158.733" y1="51.0432" x2="158.733" y2="16.1149" gradientUnits="userSpaceOnUse">
<stop stop-color="#212E58"/>
<stop offset="1" stop-color="#364877"/>
</linearGradient>
<linearGradient id="paint17_linear_274_1772" x1="156.082" y1="36.2289" x2="162.358" y2="36.2289" gradientUnits="userSpaceOnUse">
<stop stop-color="#3BACA0"/>
<stop offset="1" stop-color="#58C6B6"/>
</linearGradient>
<linearGradient id="paint18_linear_274_1772" x1="159.747" y1="35.3695" x2="86.9688" y2="26.9991" gradientUnits="userSpaceOnUse">
<stop stop-color="#002452"/>
<stop offset="1" stop-color="#001328"/>
</linearGradient>
<linearGradient id="paint19_linear_274_1772" x1="135.862" y1="44.0917" x2="151.671" y2="44.0917" gradientUnits="userSpaceOnUse">
<stop stop-color="#ED6263"/>
<stop offset="1" stop-color="#FFA9A9"/>
</linearGradient>
<linearGradient id="paint20_linear_274_1772" x1="136.854" y1="8.00584" x2="122.177" y2="18.715" gradientUnits="userSpaceOnUse">
<stop stop-color="#002452"/>
<stop offset="1" stop-color="#001328"/>
</linearGradient>
<linearGradient id="paint21_linear_274_1772" x1="124.388" y1="22.3554" x2="137.056" y2="22.3554" gradientUnits="userSpaceOnUse">
<stop stop-color="#ED6263"/>
<stop offset="1" stop-color="#FFA9A9"/>
</linearGradient>
<linearGradient id="paint22_linear_274_1772" x1="90.2185" y1="23.2877" x2="99.8261" y2="23.2877" gradientUnits="userSpaceOnUse">
<stop stop-color="#ED6263"/>
<stop offset="1" stop-color="#FFA9A9"/>
</linearGradient>
<linearGradient id="paint23_linear_274_1772" x1="120.323" y1="51.8076" x2="86.4817" y2="35.4071" gradientUnits="userSpaceOnUse">
<stop stop-color="#ED6263"/>
<stop offset="1" stop-color="#FFA9A9"/>
</linearGradient>
<linearGradient id="paint24_linear_274_1772" x1="110.628" y1="43.524" x2="140.055" y2="43.524" gradientUnits="userSpaceOnUse">
<stop stop-color="#3BACA0"/>
<stop offset="1" stop-color="#58C6B6"/>
</linearGradient>
<linearGradient id="paint25_linear_274_1772" x1="141.928" y1="29.956" x2="153.164" y2="29.956" gradientUnits="userSpaceOnUse">
<stop stop-color="#ED6263"/>
<stop offset="1" stop-color="#FFA9A9"/>
</linearGradient>
<linearGradient id="paint26_linear_274_1772" x1="79.0338" y1="48.3962" x2="79.5896" y2="1.1738" gradientUnits="userSpaceOnUse">
<stop offset="0.00242718" stop-color="#161C3E"/>
<stop offset="1" stop-color="#2B3560"/>
</linearGradient>
<linearGradient id="paint27_linear_274_1772" x1="66.2385" y1="49.0947" x2="68.2758" y2="1.21419" gradientUnits="userSpaceOnUse">
<stop stop-color="#212E58"/>
<stop offset="1" stop-color="#364877"/>
</linearGradient>
<linearGradient id="paint28_linear_274_1772" x1="63.4166" y1="27.5285" x2="72.9996" y2="27.5285" gradientUnits="userSpaceOnUse">
<stop stop-color="#3BACA0"/>
<stop offset="1" stop-color="#58C6B6"/>
</linearGradient>
<linearGradient id="paint29_linear_274_1772" x1="56.375" y1="23.5639" x2="60.9765" y2="23.5639" gradientUnits="userSpaceOnUse">
<stop stop-color="#3BACA0"/>
<stop offset="1" stop-color="#58C6B6"/>
</linearGradient>
</defs>
</svg>
